<?xml version="1.0" encoding="UTF-8" standalone="no"?>
<!-- Created with Inkscape (http://www.inkscape.org/) -->

<svg
   width="793.70081"
   height="1122.5197"
   viewBox="0 0 210 296.99999"
   version="1.1"
   id="svg5"
   inkscape:version="1.2.2 (732a01da63, 2022-12-09)"
   xml:space="preserve"
   sodipodi:docname="instructor_full_body_exploded.svg"
   inkscape:export-filename="instructor_full_body_exploded.webp"
   inkscape:export-xdpi="96"
   inkscape:export-ydpi="96"
   xmlns:inkscape="http://www.inkscape.org/namespaces/inkscape"
   xmlns:sodipodi="http://sodipodi.sourceforge.net/DTD/sodipodi-0.dtd"
   xmlns:xlink="http://www.w3.org/1999/xlink"
   xmlns="http://www.w3.org/2000/svg"
   xmlns:svg="http://www.w3.org/2000/svg"><sodipodi:namedview
     id="namedview7"
     pagecolor="#ffffff"
     bordercolor="#000000"
     borderopacity="0.25"
     inkscape:showpageshadow="2"
     inkscape:pageopacity="0.0"
     inkscape:pagecheckerboard="0"
     inkscape:deskcolor="#d1d1d1"
     inkscape:document-units="px"
     showgrid="false"
     inkscape:zoom="0.91490602"
     inkscape:cx="606.07318"
     inkscape:cy="699.5254"
     inkscape:window-width="2560"
     inkscape:window-height="1377"
     inkscape:window-x="2552"
     inkscape:window-y="-8"
     inkscape:window-maximized="1"
     inkscape:current-layer="svg5" /><defs
     id="defs2"><clipPath
       clipPathUnits="userSpaceOnUse"
       id="clipPath89922"><use
         x="0"
         y="0"
         xlink:href="#g89918"
         id="use89924" /></clipPath><filter
       inkscape:collect="always"
       style="color-interpolation-filters:sRGB"
       id="filter89985"
       x="-0.13297434"
       y="-0.14221579"
       width="1.2659487"
       height="1.2844316"><feGaussianBlur
         inkscape:collect="always"
         stdDeviation="1.619593"
         id="feGaussianBlur89987" /></filter><filter
       inkscape:collect="always"
       style="color-interpolation-filters:sRGB"
       id="filter89994"
       x="-0.042643975"
       y="-0.042710953"
       width="1.0852879"
       height="1.0854219"><feGaussianBlur
         inkscape:collect="always"
         stdDeviation="0.84405203"
         id="feGaussianBlur89996" /></filter><filter
       inkscape:collect="always"
       style="color-interpolation-filters:sRGB"
       id="filter90000"
       x="-0.17479855"
       y="-0.10189402"
       width="1.3495971"
       height="1.203788"><feGaussianBlur
         inkscape:collect="always"
         stdDeviation="3.4790013"
         id="feGaussianBlur90002" /></filter><filter
       inkscape:collect="always"
       style="color-interpolation-filters:sRGB"
       id="filter90006"
       x="-0.092098749"
       y="-0.14303241"
       width="1.1841975"
       height="1.2860648"><feGaussianBlur
         inkscape:collect="always"
         stdDeviation="3.7313598"
         id="feGaussianBlur90008" /></filter><filter
       inkscape:collect="always"
       style="color-interpolation-filters:sRGB"
       id="filter99727"
       x="-0.012517372"
       y="-0.0064823628"
       width="1.0250347"
       height="1.0129647"><feGaussianBlur
         inkscape:collect="always"
         stdDeviation="0.14781349"
         id="feGaussianBlur99729" /></filter><filter
       inkscape:collect="always"
       style="color-interpolation-filters:sRGB"
       id="filter99731"
       x="-0.065321967"
       y="-0.024070189"
       width="1.1306439"
       height="1.0481404"><feGaussianBlur
         inkscape:collect="always"
         stdDeviation="0.34092349"
         id="feGaussianBlur99733" /></filter><filter
       inkscape:collect="always"
       style="color-interpolation-filters:sRGB"
       id="filter99727-2"
       x="-0.01129871"
       y="-0.017878034"
       width="1.0225974"
       height="1.0357561"><feGaussianBlur
         inkscape:collect="always"
         stdDeviation="0.14781349"
         id="feGaussianBlur99729-7" /></filter></defs><g
     inkscape:groupmode="layer"
     id="layer1"
     inkscape:label="Shoes"
     transform="translate(-4.0486853,30.321542)"
     sodipodi:insensitive="true"
     style="display:inline"><g
       inkscape:groupmode="layer"
       id="layer2"
       inkscape:label="Left"><path
         style="opacity:1;fill:#9f6732;fill-opacity:1;stroke:#000000;stroke-width:0.79375;stroke-dasharray:none;stroke-opacity:1"
         d="m 58.742087,239.54119 c 7.016964,1.74216 12.964313,3.30525 20.442246,5.06086 4.07629,-0.18769 8.801895,0.24281 12.613267,-0.50299 2.461157,-0.4816 4.888151,-1.0407 6.90627,-2.42818 0.303336,-0.59402 0.399197,-1.4016 0.615819,-1.98873 1.018071,-0.0196 1.460361,-0.0822 2.390381,0.13598 0.0553,1.26804 2.87682,1.07467 4.41656,0.83543 3.01353,-0.75034 5.98751,-1.62506 9.02593,-3.40784 -0.065,-2.19527 0.58191,-5.5011 -0.8495,-7.48284 -8.10395,-10.08914 -25.102431,-17.14797 -36.944252,-11.92916 -1.115132,0.49145 -0.949635,2.17271 -1.771299,3.07266 -1.70306,1.86532 -4.590658,2.70805 -6.579113,4.26558 -3.332777,3.41786 -10.590698,10.44026 -10.266309,14.36922 z"
         id="path634"
         sodipodi:nodetypes="cccccccccccccc" /><path
         style="opacity:1;fill:#885917;fill-opacity:1;stroke:#000000;stroke-width:0.79375;stroke-dasharray:none;stroke-opacity:1"
         d="m 99.228936,239.90641 c 0.476415,-2.27502 1.333704,-4.00591 2.132774,-5.81999 0.32641,1.8918 0.77925,3.78359 0.65068,5.67539 z"
         id="path8827"
         sodipodi:nodetypes="cccc" /></g><g
       inkscape:groupmode="layer"
       id="layer3"
       inkscape:label="Right"><path
         style="opacity:1;fill:#9f6732;fill-opacity:1;stroke:#000000;stroke-width:0.79375;stroke-dasharray:none;stroke-opacity:1"
         d="m 121.16002,226.16538 c -0.39479,3.23775 -1.07173,6.4755 -1.12469,9.71325 4.37314,2.09176 9.65937,2.90519 14.97628,3.67567 l 2.60982,-3.36894 c 0.51725,1.49994 0.8827,2.99989 2.70071,4.49983 l 28.08222,-0.12191 c 2.29733,-0.949 4.41204,-1.94039 6.07266,-3.25323 0.71581,-1.5819 0.006,-2.2564 -0.25304,-3.21813 -4.52455,-8.81391 -11.98666,-16.29819 -18.60447,-22.44743 z"
         id="path7923"
         sodipodi:nodetypes="cccccccccc" /><path
         style="opacity:1;fill:#885917;fill-opacity:1;stroke:#000000;stroke-width:0.79375;stroke-dasharray:none;stroke-opacity:1"
         d="m 135.05407,238.80758 -0.091,-6.4564 c 1.25249,0.51124 2.09602,1.81483 2.6328,3.80862 -0.5246,0.6169 -1.83575,2.70792 -2.54179,2.64778 z"
         id="path11091"
         sodipodi:nodetypes="cccc" /></g></g><path
     style="display:inline;fill:#04043a;fill-opacity:1;stroke:#000000;stroke-width:0.79375"
     d="m 121.67738,238.49885 1.63592,-16.97263 -13.03621,-3.93642 -1.48254,22.8517 7.25937,-0.3323 c 1.21921,-1.73767 2.1174,-4.17735 5.62346,-1.61035 z"
     id="path2497-3"
     sodipodi:nodetypes="cccccc"
     inkscape:label="Jacket_Back" /><g
     inkscape:groupmode="layer"
     id="layer5"
     inkscape:label="Pants"
     style="display:inline"
     sodipodi:insensitive="true"><path
       style="display:inline;opacity:1;fill:#000889;fill-opacity:1;stroke:#000000;stroke-width:0.79375;stroke-dasharray:none;stroke-opacity:1"
       d="m 70.191018,249.63054 c 5.711464,1.43143 10.585116,2.86285 13.445183,4.29428 l 3.297392,0.30673 c 7.613124,2.4555 15.273457,6.75216 22.826137,6.85041 2.29563,-4.77984 0.50592,-23.51629 1.22694,-35.27444 1.32491,11.68499 3.36879,23.36998 3.47526,35.05497 3.94671,-0.33546 7.85565,-0.67416 10.63452,-1.10972 5.5705,-1.8839 19.03415,-12.03237 27.40159,-15.69456 -1.58094,-2.66494 -2.77501,-3.13758 -4.08979,-4.29428 -1.66038,-0.56434 -3.24041,-0.73568 -4.75899,-0.63828 -1.77624,-5.87697 -1.08288,-13.86867 -2.19366,-19.09496 l -71.622439,-19.4265 -2.300507,5.67458 c -0.963032,6.81862 -1.353764,13.20801 -1.789282,19.63099 0.371547,1.68704 0.991735,3.37408 1.840405,5.06112 1.835245,3.32613 4.170041,6.06946 6.390296,8.94641 -0.795515,3.43 -4.774976,6.64821 -3.783055,9.71325 z"
       id="path41549"
       sodipodi:nodetypes="ccccccccccccccccc" /><path
       style="display:inline;opacity:1;fill:#00021c;fill-opacity:1;stroke:#000000;stroke-width:0.79375;stroke-dasharray:none;stroke-opacity:1"
       d="m 73.539532,241.93663 c 2.904174,0.3255 5.6304,2.07459 8.332948,4.0131"
       id="path48482"
       sodipodi:nodetypes="cc" /></g><path
     style="display:inline;opacity:1;fill:#04043a;fill-opacity:1;stroke:#000000;stroke-width:0.79375"
     d="m 66.305718,219.51947 1.635916,-16.97263 -13.036206,-3.93642 -1.482548,22.8517 6.645907,-1.5848 c 1.219209,-1.73767 2.730865,-2.92485 6.236931,-0.35785 z"
     id="path2497"
     sodipodi:nodetypes="cccccc"
     inkscape:label="Left_Sleeve_Back" /><g
     inkscape:groupmode="layer"
     id="layer14"
     inkscape:label="Arms"
     style="display:inline;opacity:1;fill:#ffcb99;fill-opacity:1"
     sodipodi:insensitive="true"><g
       inkscape:groupmode="layer"
       id="layer15"
       inkscape:label="Left"
       style="opacity:1"><path
         style="opacity:1;fill:#ffcb99;fill-opacity:1;stroke:#000000;stroke-width:0.79375;stroke-dasharray:none"
         d="m 57.982958,253.76582 c 0,0 5.350049,-10.33861 5.350049,-10.8447 0,-0.50608 0.825572,-2.69709 1.234549,-2.74821 0.40898,-0.0511 2.645584,-0.0511 2.913975,-0.23005 0.268394,-0.17893 2.900527,-1.7211 2.900527,-2.51638 0,-0.79528 0.144594,-2.02434 -0.36149,-2.27739 -0.506087,-0.25304 -8.567309,-5.49464 -8.784201,-6.8683 -0.216895,-1.37366 -1.012171,-9.61563 -1.012171,-9.61563 0,0 2.602724,-8.13352 2.602724,-9.57948 0,-1.44596 -0.227573,-5.28634 -0.227573,-5.28634 0,0 -0.102246,-0.3323 0.255611,-0.61347 0.357857,-0.28117 1.278059,-0.66459 1.354744,-1.09913 0.07668,-0.43454 0.306734,-63.34062 0.306734,-63.34062 0,0 -1.278059,-2.30051 -4.29428,-2.30051 -3.016221,0 -5.776828,0.86908 -6.288053,1.5848 -0.511223,0.71571 -0.357857,3.22071 -0.357857,3.22071 l -11.246922,54.95655 c 0,0 -1.191789,7.74486 0.25417,16.13142 1.445961,8.38656 1.915895,11.42308 1.265213,12.03761 -0.650679,0.61453 -4.699365,4.88011 -5.964578,7.19364 -1.265217,2.31354 -3.28956,5.4585 -2.53043,6.72372 0.759129,1.26521 3.904091,3.28955 3.904091,3.28955 0,0 7.338242,5.09701 8.350411,5.3139 1.012171,0.21689 1.518259,0.36149 1.409811,0.86758 -0.108447,0.50608 -0.650682,3.14496 0.253042,3.65104 0.903724,0.50609 3.542602,2.27739 5.566945,2.27739 2.02434,0 3.144959,0.0723 3.144959,0.0723 z"
         id="path51796" /><path
         style="opacity:1;fill:none;fill-opacity:1;stroke:#000000;stroke-width:0.79375;stroke-dasharray:none"
         d="m 40.795654,240.8375 c 0,0 9.12149,5.47266 11.984342,5.11481"
         id="path59617"
         sodipodi:nodetypes="cc" /><path
         style="opacity:1;fill:none;fill-opacity:1;stroke:#000000;stroke-width:0.79375;stroke-dasharray:none"
         d="m 58.509555,243.72591 c 0,0 4.29428,-5.95575 5.367851,-6.058"
         id="path59619" /><path
         style="opacity:1;fill:none;fill-opacity:1;stroke:#000000;stroke-width:0.79375;stroke-dasharray:none"
         d="m 44.271975,224.12048 1.789284,-3.22071"
         id="path59623" /><path
         style="opacity:1;fill:none;fill-opacity:1;stroke:#000000;stroke-width:0.79375;stroke-dasharray:none"
         d="m 50.247078,197.6626 c 0,0 -4.120983,14.3873 -2.313535,20.96641"
         id="path59621" /><path
         style="opacity:1;fill:none;fill-opacity:1;stroke:#000000;stroke-width:0.79375;stroke-dasharray:none"
         d="m 41.664733,235.49521 c 0,0 4.192035,-7.97509 4.728821,-8.05177"
         id="path59625" /><g
         inkscape:groupmode="layer"
         id="layer16"
         inkscape:label="Scuffs"
         style="opacity:1;fill:#ffcb99;fill-opacity:1"><path
           style="opacity:1;fill:none;fill-opacity:1;stroke:#000000;stroke-width:0.79375;stroke-dasharray:none"
           d="m 50.61115,231.83996 c 0,0 -4.038668,-5.08668 -3.859739,-9.66213"
           id="path59627" /><path
           style="opacity:1;fill:none;fill-opacity:1;stroke:#000000;stroke-width:0.79375;stroke-dasharray:none"
           d="m 52.400433,227.08558 c 0,0 -4.294281,-6.54366 -4.038667,-7.69392"
           id="path59629"
           sodipodi:nodetypes="cc" /><path
           style="opacity:1;fill:none;fill-opacity:1;stroke:#000000;stroke-width:0.79375;stroke-dasharray:none"
           d="m 53.908541,225.19405 c 0,0 -4.089789,-6.058 -3.834177,-8.20514"
           id="path59631" /><path
           style="opacity:1;fill:none;fill-opacity:1;stroke:#000000;stroke-width:0.79375;stroke-dasharray:none"
           d="m 46.674727,222.53569 c 0,0 4.652134,-6.9782 5.62346,-7.33606"
           id="path59633" /><path
           style="opacity:1;fill:none;fill-opacity:1;stroke:#000000;stroke-width:0.79375;stroke-dasharray:none"
           d="m 47.927225,227.16226 c 0,0 4.575453,-7.8984 6.978203,-8.94641"
           id="path59635" /><path
           style="opacity:1;fill:none;fill-opacity:1;stroke:#000000;stroke-width:0.79375;stroke-dasharray:none"
           d="m 49.716507,230.84308 c 0,0 3.118465,-6.44143 3.834178,-6.54368"
           id="path59637"
           sodipodi:nodetypes="cc" /><path
           style="opacity:1;fill:none;fill-opacity:1;stroke:#000000;stroke-width:0.79375;stroke-dasharray:none"
           d="m 53.066698,202.83191 c 0,0 3.940238,-5.60309 4.807812,-5.71154"
           id="path59691" /><path
           style="opacity:1;fill:none;fill-opacity:1;stroke:#000000;stroke-width:0.79375;stroke-dasharray:none"
           d="m 55.000667,204.0429 4.428249,-5.18738"
           id="path59712" /><path
           style="opacity:1;fill:none;fill-opacity:1;stroke:#000000;stroke-width:0.79375;stroke-dasharray:none"
           d="m 57.151531,206.06724 c 0.126521,0.0542 4.807815,-5.81998 4.807815,-5.81998"
           id="path59714" /><path
           style="opacity:1;fill:none;fill-opacity:1;stroke:#000000;stroke-width:0.79375;stroke-dasharray:none"
           d="m 56.13936,198.98204 5.133154,5.81999"
           id="path59716" /></g></g><g
       inkscape:groupmode="layer"
       id="layer17"
       inkscape:label="Right"><path
         style="opacity:1;fill:#ffcb99;fill-opacity:1;stroke:#000000;stroke-width:0.79375;stroke-dasharray:none"
         d="m 149.90981,242.63193 c 0,0 0.14459,5.06086 2.53042,5.16931 2.38584,0.10844 9.72408,0.39763 10.23017,-0.10845 0.50608,-0.50609 3.03651,-3.32571 4.30172,-3.43416 1.26522,-0.10844 3.25341,-2.53042 4.15714,-2.27738 0.90372,0.25304 2.67502,0.32534 3.68719,-0.1446 1.01217,-0.46993 4.69937,-1.33751 4.80782,-2.24123 0.10844,-0.90373 -0.43379,-8.89265 -1.55441,-12.5437 -1.12062,-3.65104 -2.89192,-7.44669 -2.89192,-7.44669 L 160.8268,176.6962 c 0,0 -0.50609,-7.95278 0.25304,-8.20582 0.75913,-0.25304 1.6267,0.10845 1.51826,-0.39764 -0.10845,-0.50608 0.10844,-8.89265 -0.50609,-10.01326 -0.61453,-1.12062 -4.15713,-8.31427 -4.80781,-8.96495 -0.65068,-0.65068 -0.65068,-0.25304 -0.65068,-1.01217 0,-0.75913 0,-6.72371 -1.51826,-8.24197 -1.51826,-1.51826 -3.7595,-2.16894 -4.15713,-2.53043 -0.39764,-0.36149 -0.50609,-1.4821 -1.66286,-1.4821 -1.15676,0 -4.33787,-0.39764 -5.45849,0.86757 -1.12062,1.26521 -2.60273,2.38583 -3.00037,2.27738 -0.39764,-0.10844 -4.12098,1.59056 -4.33788,2.13279 -0.21689,0.54224 -4.41017,0.39764 -4.41017,0.39764 l -0.79528,0.97603 4.88012,28.99148 14.96567,51.98222 c 0,0 -7.73588,6.61527 -7.73588,8.24197 0,1.62671 0.32534,5.02471 1.37366,5.42235 1.04832,0.39764 2.78347,1.40981 3.6872,0.90372 0.90372,-0.50608 1.7808,0.0598 1.51825,1.01217 -0.1345,0.48789 -0.0723,3.57875 -0.0723,3.57875 z"
         id="path61185"
         sodipodi:nodetypes="csssssssccsssssssssssccccsssscc" /><path
         style="opacity:1;fill:none;fill-opacity:1;stroke:#000000;stroke-width:0.79375;stroke-dasharray:none"
         d="m 149.10682,237.94375 c 0.01,0.0116 1.57382,-0.28316 0.74453,-1.57119 -0.76713,-1.19149 -1.74593,-3.85929 -1.13446,-3.24781 0.86757,0.86758 4.19328,7.80818 3.6872,7.44669 -0.34642,-0.24744 -1.74973,-2.04925 -1.83595,-2.88495 -0.0956,-0.92614 -0.79216,0.76925 -0.92218,0.72275"
         id="path63811"
         sodipodi:nodetypes="cssssc" /><path
         style="opacity:1;fill:none;fill-opacity:1;stroke:#000000;stroke-width:0.79375;stroke-dasharray:none"
         d="m 159.38084,245.45155 14.53189,-5.81998"
         id="path63813" /><path
         style="opacity:1;fill:none;fill-opacity:1;stroke:#000000;stroke-width:0.79375;stroke-dasharray:none"
         d="m 172.10347,225.89698 c 0.0383,0.0767 0.35786,1.11192 0.35786,1.11192"
         id="path63815" /><path
         style="opacity:1;fill:none;fill-opacity:1;stroke:#000000;stroke-width:0.79375;stroke-dasharray:none"
         d="m 156.33222,176.37219 c -0.20449,-0.15337 -0.35786,-6.23693 0.15336,-7.3105 0.51123,-1.07357 -0.15336,-6.64591 -0.15336,-6.64591"
         id="path63817" /><path
         style="opacity:1;fill:none;fill-opacity:1;stroke:#000000;stroke-width:0.79375;stroke-dasharray:none"
         d="m 135.16755,148.306 c 0,0 2.505,-0.86908 5.16336,0.71572 2.65837,1.58479 3.4252,2.50499 5.01,2.50499 1.58479,0 7.15713,-2.14714 7.15713,-2.14714"
         id="path63819" /><g
         inkscape:groupmode="layer"
         id="layer18"
         inkscape:label="Scuffs"
         style="fill:#ffcb99;fill-opacity:1"><path
           style="opacity:1;fill:none;fill-opacity:1;stroke:#000000;stroke-width:0.79375;stroke-dasharray:none"
           d="m 145.64423,147.16248 c 0,-0.25304 4.30173,-6.796 5.56694,-7.69973"
           id="path63826" /><path
           style="opacity:1;fill:none;fill-opacity:1;stroke:#000000;stroke-width:0.79375;stroke-dasharray:none"
           d="m 148.08428,148.03006 c 0,0 3.27148,-5.33198 4.98856,-6.19955"
           id="path63828" /><path
           style="opacity:1;fill:none;fill-opacity:1;stroke:#000000;stroke-width:0.79375;stroke-dasharray:none"
           d="m 150.18092,149.24105 c 0,0 3.09074,-5.00663 4.22943,-5.44042"
           id="path63830" /><path
           style="opacity:1;fill:none;fill-opacity:1;stroke:#000000;stroke-width:0.79375;stroke-dasharray:none"
           d="m 145.24659,142.60771 5.62116,6.70564"
           id="path63832" /><path
           style="opacity:1;fill:none;fill-opacity:1;stroke:#000000;stroke-width:0.79375;stroke-dasharray:none"
           d="m 148.13851,142.02933 4.04868,5.3139"
           id="path63834" /><path
           style="opacity:1;fill:none;fill-opacity:1;stroke:#000000;stroke-width:0.79375;stroke-dasharray:none"
           d="m 149.80136,140.38455 3.72334,6.0188"
           id="path63836" /><path
           style="opacity:1;fill:none;fill-opacity:1;stroke:#000000;stroke-width:0.79375;stroke-dasharray:none"
           d="m 149.80136,231.71494 c 0,0 4.04868,-7.44669 8.82035,-8.89265"
           id="path63838" /><path
           style="opacity:1;fill:none;fill-opacity:1;stroke:#000000;stroke-width:0.79375;stroke-dasharray:none"
           d="m 153.16322,231.10041 c 0,0 3.2534,-6.28992 5.92843,-6.68756"
           id="path63840" /><path
           style="opacity:1;fill:none;fill-opacity:1;stroke:#000000;stroke-width:0.79375;stroke-dasharray:none"
           d="m 156.59737,231.20885 c 0,0 1.7713,-5.81998 3.90408,-6.68756"
           id="path63842" /><path
           style="opacity:1;fill:none;fill-opacity:1;stroke:#000000;stroke-width:0.79375;stroke-dasharray:none"
           d="m 152.0426,225.28042 5.1693,4.80782"
           id="path63844" /><path
           style="opacity:1;fill:none;fill-opacity:1;stroke:#000000;stroke-width:0.79375;stroke-dasharray:none"
           d="m 154.35613,223.50912 c 0.21689,0.10845 4.30173,4.04869 4.30173,4.04869"
           id="path63846" /></g></g><path
       style="opacity:1;fill:none;fill-opacity:1;stroke:#000000;stroke-width:0.79375;stroke-dasharray:none"
       d="m 63.596231,142.1202 c 0,0 -2.81173,1.94265 -3.731932,1.58479 -0.920202,-0.35786 -3.271832,-0.15337 -3.271832,-0.15337"
       id="path68095" /></g><g
     inkscape:groupmode="layer"
     id="layer19"
     inkscape:label="Shirt"
     style="display:inline"
     sodipodi:insensitive="true"><path
       style="opacity:1;fill:#adf1f4;fill-opacity:1;stroke:#000000;stroke-width:0.79375;stroke-dasharray:none"
       d="m 39.836172,182.94997 0.650681,8.35041 c 0,0 -1.301363,-0.50608 -1.807448,0.50609 -0.506087,1.01217 -0.216895,2.31354 0.144595,2.42198 0.36149,0.10845 1.265216,0.10845 1.265216,0.61453 0,0.50609 1.554406,0.2892 1.662851,-0.10844 0.108447,-0.39764 1.120619,-2.78347 1.120619,-2.78347 0,0 0.108447,3.28955 0.867577,3.65104 0.759126,0.36149 1.156766,-0.14459 1.156766,-0.14459 0,0 1.915895,-5.42235 2.277385,-4.41018 0.36149,1.01217 0.144597,4.26558 0.759129,3.65105 0.614532,-0.61453 2.783472,-4.01254 2.783472,-4.01254 l 5.3139,-2.16894 1.265214,-4.55477 c 0,0 -12.43525,-2.89192 -12.290653,-2.78347 0.144595,0.10845 -5.169304,1.7713 -5.169304,1.7713 z"
       id="path64575" /><path
       style="opacity:1;fill:#adf1f4;fill-opacity:1;stroke:#000000;stroke-width:0.79375;stroke-dasharray:none"
       d="m 136.35394,173.18975 c 0,0 5.74769,-3.28956 5.53079,-2.42199 -0.21689,0.86758 -0.83142,6.68757 -0.21689,6.32608 0.61453,-0.36149 3.86794,-3.5426 4.26558,-3.28956 0.39764,0.25304 0.86757,0.75913 0.75913,1.26522 -0.10845,0.50608 -0.25305,1.4821 0.25304,1.6267 0.50609,0.14459 2.31353,1.699 2.67502,1.5544 0.36149,-0.14459 2.49428,-1.40981 3.90409,-0.39764 1.40981,1.01218 3.43416,2.78348 3.6872,3.5426 0.25304,0.75913 -4.66322,6.32607 -4.66322,6.32607 0,0 -15.29102,1.01218 -15.43561,1.01218 -0.1446,0 -6.10918,-5.78384 -6.21762,-5.92844 -0.10845,-0.14459 1.77129,-7.73587 1.77129,-7.73587 z"
       id="path68089" /><path
       style="opacity:1;fill:#adf1f4;fill-opacity:1;stroke:#000000;stroke-width:0.79375;stroke-dasharray:none"
       d="m 159.88522,173.35597 c 0,0 3.24627,-0.63903 3.50188,2.58168 0.25562,3.22071 -1.53367,3.14402 -1.53367,3.14402 -0.2811,-1.72105 -1.21433,-3.53188 -1.96821,-5.7257 z"
       id="path68091"
       sodipodi:nodetypes="cscc" /></g><g
     inkscape:groupmode="layer"
     id="layer20"
     inkscape:label="Tie"
     style="display:inline;fill:#000000;fill-opacity:0"
     sodipodi:insensitive="true"><rect
       style="opacity:1;fill:#d5130d;fill-opacity:1;stroke:#000000;stroke-width:1.32292;stroke-dasharray:none"
       id="rect75396"
       width="10.996171"
       height="6.7960072"
       x="99.337402"
       y="185.58885"
       ry="3.3980036" /></g><g
     inkscape:groupmode="layer"
     id="layer6"
     inkscape:label="Jacket"
     style="display:inline"
     sodipodi:insensitive="true"><g
       inkscape:groupmode="layer"
       id="layer7"
       inkscape:label="Left"
       style="display:inline;opacity:1"><path
         style="display:inline;opacity:1;fill:#000a9f;fill-opacity:1;stroke:#000000;stroke-width:0.79375;stroke-dasharray:none;stroke-opacity:1"
         d="m 70.492632,216.90803 4.787703,5.93206 7.067033,1.50046 5.566942,-1.51826 -3.253407,3.75949 h 2.241235 l -2.241235,2.74732 4.048683,2.81962 2.241238,2.02435 5.060857,-2.74733 0.72298,2.45814 3.108811,0.0723 2.241238,-1.51825 3.79564,2.96421 4.15713,-6.9406 -5.20545,-36.07668 -2.24124,-2.81962 -15.327162,-48.07814 -1.301364,-5.35004 -9.398733,0.72297 -3.253406,-4.26558 h -3.542602 l -1.012171,2.53043 h -3.542599 l -1.735151,-1.51825 -2.602727,-0.2169 0.289192,2.24124 3.831791,4.33788 -1.807448,1.01217 -1.445958,1.8436 1.229066,0.75912 -1.120619,2.38583 0.650682,1.40982 -4.631055,-0.901 -0.89974,-2.8585 -1.120618,-1.06639 -0.198819,-1.97012 -2.277385,-0.63261 -0.433787,0.88565 -1.210993,0.18074 -1.771298,-1.33751 -1.897822,0.12652 -1.970119,3.07267 1.084469,3.92216 -2.403906,6.12725 -1.72547,0.43888 -0.153368,2.50499 -1.789282,1.5848 0.511223,12.72947 -4.243158,9.25315 -0.204488,3.57856 1.911077,-1.36948 0.307269,3.97638 1.518256,-1.91589 1.120023,0.17807 0.715714,4.19204 3.399637,0.0256 2.428314,-6.18581 3.144856,5.04354 2.078566,-0.32534 2.138199,-2.03428 0.920202,1.07357 -0.86908,2.14714 -4.140911,1.99377 -0.715714,0.86909 h 3.016218 l 0.05112,2.3005 4.805503,-1.78928 1.445871,8.05548 2.205088,-0.54223 1.554405,1.19292 -0.506084,2.81962 1.482109,0.6145 5.826537,3.73627 z"
         id="path49214"
         sodipodi:nodetypes="ccccccccccccccccccccccccccccccccccccccccccccccccccccccccccccccccccccccccccc" /><circle
         style="opacity:1;fill:#9e6731;fill-opacity:1;stroke:#000000;stroke-width:0.950516;stroke-dasharray:none"
         id="path70756"
         cx="104.19542"
         cy="228.339"
         r="2.7271721" /><path
         style="opacity:1;fill:none;fill-opacity:1;stroke:#000000;stroke-width:1.32292;stroke-dasharray:none"
         d="m 63.596231,199.32613 4.601014,-7.51499 4.616428,-24.90687"
         id="path74270"
         sodipodi:nodetypes="ccc" /><path
         style="opacity:1;fill:none;fill-opacity:1;stroke:#000000;stroke-width:0.79375;stroke-dasharray:none"
         d="m 72.261803,217.0746 4.157133,-0.10844 -1.120617,2.63888"
         id="path81264"
         sodipodi:nodetypes="ccc" /><path
         style="opacity:1;fill:none;fill-opacity:1;stroke:#000000;stroke-width:0.79375;stroke-dasharray:none"
         d="m 81.226752,221.73782 0.867574,-6.43452"
         id="path81266" /><path
         style="opacity:1;fill:none;fill-opacity:1;stroke:#000000;stroke-width:1.32292;stroke-dasharray:none"
         d="m 72.623293,207.20593 5.675392,0.10845 c 0,0 10.266309,-1.12062 11.531523,-0.10845 1.265213,1.01218 -1.265214,10.6278 -1.265214,10.6278"
         id="path81268" /><path
         style="opacity:1;fill:none;fill-opacity:1;stroke:#000000;stroke-width:1.32292;stroke-dasharray:none"
         d="m 72.117208,211.00158 c 0,0 16.809276,1.7713 17.31536,1.26521"
         id="path81270" /><path
         style="opacity:1;fill:none;fill-opacity:1;stroke:#000000;stroke-width:0.79375;stroke-dasharray:none"
         d="m 52.656043,176.98566 c 0,0 11.451413,10.37784 11.80927,10.73569"
         id="path81272" /><path
         style="opacity:1;fill:none;fill-opacity:1;stroke:#000000;stroke-width:0.79375;stroke-dasharray:none"
         d="m 54.803185,173.40709 c 0.511222,0.15337 10.735696,10.01998 10.735696,10.01998"
         id="path81274" /><path
         style="opacity:1;fill:none;fill-opacity:1;stroke:#000000;stroke-width:0.79375;stroke-dasharray:none"
         d="m 56.439101,169.67516 10.889064,11.60478"
         id="path81276" /><path
         style="opacity:1;fill:none;fill-opacity:1;stroke:#000000;stroke-width:0.79375;stroke-dasharray:none"
         d="m 60.886747,170.18638 6.799275,7.00376"
         id="path81278" /><path
         style="opacity:1;fill:none;fill-opacity:1;stroke:#000000;stroke-width:0.79375;stroke-dasharray:none"
         d="m 53.371757,181.63779 8.58856,-10.01998"
         id="path81280" /><path
         style="opacity:1;fill:none;fill-opacity:1;stroke:#000000;stroke-width:0.79375;stroke-dasharray:none"
         d="M 57.666037,182.50687 68.043879,171.61781"
         id="path81282" /><path
         style="opacity:1;fill:none;fill-opacity:1;stroke:#000000;stroke-width:0.79375;stroke-dasharray:none"
         d="m 60.171033,185.93207 6.083562,-7.71948"
         id="path81284" /><path
         style="opacity:1;fill:none;fill-opacity:1;stroke:#000000;stroke-width:0.79375;stroke-dasharray:none"
         d="m 105.5677,196.36103 c 0,0 -6.390298,-1.99377 -7.668357,-3.57856 -1.278059,-1.5848 -13.751917,-23.72078 -13.751917,-23.72078 l 10.173353,-5.36785"
         id="path84781" /></g><g
       inkscape:groupmode="layer"
       id="layer21"
       inkscape:label="Right"
       style="opacity:1"><path
         style="opacity:1;fill:#000a9f;fill-opacity:1;stroke:#000000;stroke-width:0.79375;stroke-dasharray:none"
         d="m 117.91796,233.52239 c 0,0 -2.09664,1.73515 -3.61489,0.10844 -1.51826,-1.6267 -2.42199,-4.26557 -4.19329,-5.0247 -1.7713,-0.75913 -7.73588,-10.26631 -7.73588,-10.26631 0,0 -1.04832,-3.43415 -0.90372,-5.71154 0.14459,-2.27739 1.66285,-13.66431 1.66285,-13.66431 0,0 2.53406,-7.54893 3.04014,-8.30806 0.50609,-0.75913 17.09484,-25.0936 17.09484,-25.0936 -10.82435,-11.30313 -3.55565,-17.72621 1.51826,-26.53335 0,0 0.0723,-0.21689 1.80744,0.79528 1.73516,1.01217 1.51826,-1.22906 2.74733,-1.51825 1.22906,-0.2892 3.3257,-0.2892 3.83179,1.22906 0.50609,1.51826 -0.0361,2.49428 -0.0361,2.49428 0,0 -1.66285,1.51825 -1.26521,3.79564 0.39764,2.27739 3.85843,25.99733 4.57414,26.91753 0.71572,0.9202 0.37827,2.327 0.37827,2.327 0,0 -3.50645,2.53042 -3.14496,4.80781 0.36148,2.27738 0.86757,3.07266 1.87974,3.07266 1.01217,0 1.95205,-0.65068 2.42198,-0.39764 0.46994,0.25304 0.46994,2.42198 0.97603,2.53043 0.50608,0.10845 2.31353,0.61453 2.92806,0 0.61454,-0.61453 6.25453,-7.14404 7.01366,-7.25248 0.75913,-0.10845 -0.28995,2.48081 0.0715,2.58926 0.36149,0.10845 1.26522,-1.12062 1.51826,-0.75913 0.25304,0.36149 1.22906,3.86794 1.87975,4.01254 0.65068,0.1446 0.54223,0.75913 1.15676,0.39764 0.61454,-0.36149 1.51826,-2.49428 2.27739,-2.38583 0.75913,0.10844 5.20545,-3.18111 5.3139,-3.94024 0.10845,-0.75913 0.32534,0.72298 0.72298,0.61453 0.39764,-0.10845 2.27738,-2.34968 3.03651,-2.24124 0.75913,0.10845 1.66286,-1.15676 2.42198,0.10845 0.75913,1.26522 2.24124,1.7713 2.38584,2.27739 0.14459,0.50608 0.28919,3.14496 -0.2169,3.14496 -0.50608,0 -1.15677,-0.18075 -1.40981,0.28919 -0.25304,0.46993 -2.63887,4.15713 -1.7713,4.15713 0.86758,0 2.24124,-0.50608 2.38583,0 0.1446,0.50609 -1.12061,2.92807 -0.61453,3.28956 0.50609,0.36149 0.65068,0.90372 1.7713,0.90372 1.12062,0 1.51826,0 1.51826,0.86758 0,0.86757 0.61453,6.32607 2.02434,6.57911 1.40981,0.25304 3.28956,1.48211 3.79565,2.38583 0.50608,0.90373 0.79527,2.38584 -0.10845,3.03652 -0.90373,0.65068 -6.86831,4.48247 -6.10918,5.60309 0.75913,1.12062 1.30136,2.38583 2.42198,2.13279 1.12062,-0.25304 5.02471,-1.33751 5.02471,-0.61453 0,0.72298 -1.08447,7.91662 -2.74732,9.57948 -1.66286,1.66285 -10.26631,6.57911 -11.02544,6.57911 -0.75913,0 -6.32607,-2.89192 -7.19365,-2.53043 -0.86757,0.36149 -1.15676,1.15677 -1.7713,0.75913 -0.61453,-0.39764 -0.93987,-2.16894 -1.66285,-2.42198 -0.72298,-0.25305 -1.37366,-0.46994 -1.87975,0.14459 -0.50608,0.61454 -1.87974,0.65069 -2.13279,0.50609 -0.25304,-0.1446 -2.81962,-2.13279 -3.43415,-1.7713 -0.61453,0.36149 -2.02434,2.02434 -4.04868,1.7713 -2.02435,-0.25304 -8.31427,0.72298 -9.21799,1.22906 -0.90373,0.50609 -15.36332,9.39874 -15.36332,9.39874 z"
         id="path82013"
         sodipodi:nodetypes="csscscsccssscsscssssssssssssssssssssssssssssssssssssssscc" /><circle
         style="display:inline;opacity:1;fill:#9f6730;fill-opacity:1;stroke:#000000;stroke-width:1.03099;stroke-dasharray:none"
         id="path70756-3"
         cx="109.3828"
         cy="219.86208"
         r="2.9580541" /><ellipse
         style="display:inline;opacity:1;fill:#9e6732;fill-opacity:1;stroke:#000000;stroke-width:1.01475;stroke-dasharray:none"
         id="path70756-3-6"
         cx="106.89252"
         cy="211.36307"
         rx="2.8577292"
         ry="2.966176" /><path
         style="opacity:1;fill:none;fill-opacity:1;stroke:#000000;stroke-width:0.79375;stroke-dasharray:none"
         d="m 102.59079,201.4944 c 0,0 3.6872,-3.6872 4.30174,-4.80782 0.61453,-1.12062 4.80781,-7.44669 7.33824,-8.20582 2.53043,-0.75913 10.66119,-13.13102 10.66119,-13.13102 l -5.31673,-4.14091"
         id="path84783" /><path
         style="opacity:1;fill:none;fill-opacity:1;stroke:#000000;stroke-width:1.32292;stroke-dasharray:none"
         d="m 146.15886,222.17783 c 0,0 0.0511,-4.65213 -1.22693,-4.8055 -1.27806,-0.15337 -6.08356,0.9202 -6.79928,-0.51122 -0.71571,-1.43143 -3.83418,-7.10601 -2.91397,-8.74193 0.9202,-1.63592 4.49876,-8.38407 3.06734,-9.66213 -1.43143,-1.27806 -3.52744,-2.55612 -3.73193,-3.78305 -0.20449,-1.22694 -0.20449,-8.23071 -0.20449,-8.23071 l -0.35786,-1.07357"
         id="path84785" /><path
         style="opacity:1;fill:none;fill-opacity:1;stroke:#000000;stroke-width:1.32292;stroke-dasharray:none"
         d="m 126.27226,224.01824 c -0.15337,-0.51123 -7.15713,-16.6659 -4.44764,-18.9664 2.70948,-2.30051 14.67212,-7.15714 14.67212,-7.15714"
         id="path84787" /><path
         style="opacity:1;fill:none;fill-opacity:1;stroke:#000000;stroke-width:1.32292;stroke-dasharray:none"
         d="m 121.62013,210.41969 c 0,0 7.20825,-3.8853 13.44518,-6.23693"
         id="path84789" /></g></g><g
     inkscape:groupmode="layer"
     id="layer8"
     inkscape:label="Face"
     style="display:inline"><path
       style="display:inline;opacity:1;fill:#ffcb99;fill-opacity:1;stroke:#000000;stroke-width:1.32292;stroke-dasharray:none"
       d="m 102.96046,120.39319 c 0,0 -2.45388,-0.35786 -4.089792,2.35163 -1.635913,2.70948 -11.144676,17.17712 -11.144676,17.17712 0,0 -1.584793,1.73816 -1.584793,2.81173 0,1.07357 0.204489,2.55611 0.204489,2.55611 0,0 0.357856,1.17582 -0.920203,0.6646 -1.278059,-0.51123 -3.220709,-1.27806 -4.29428,-0.35786 -1.073568,0.9202 -1.789282,2.19826 -1.789282,2.19826 0,0 -0.613468,1.78928 0.153366,2.86285 0.766837,1.07357 3.578566,2.60724 3.936423,3.16959 0.357857,0.56235 -1.022448,6.28805 -1.022448,6.28805 0,0 -3.118463,11.09356 -2.351627,17.17712 0.766834,6.08356 2.556119,7.71948 2.556119,7.71948 0,0 2.198261,2.35163 5.009991,2.50499 2.811732,0.15337 17.688343,-0.0511 17.688343,-0.0511 0,0 1.94265,0.20449 3.93642,0.92021 1.99377,0.71571 9.15091,3.01621 9.15091,3.01621 0,0 4.08978,1.1247 5.00999,-0.66459 0.9202,-1.78928 3.22071,-7.71948 3.06734,-10.01998 -0.15337,-2.30051 -1.02245,-10.32672 -1.3803,-10.88907 -0.35786,-0.56234 -2.81173,-7.56611 -3.73194,-8.63968 -0.9202,-1.07357 2.14714,-8.74192 3.37408,-8.58856 1.22694,0.15337 3.22879,-3.3773 3.22879,-3.3773 0,0 0.70763,-1.47932 -0.57043,-2.39953 -1.27806,-0.9202 -4.08979,-0.71571 -4.08979,-0.71571 0,0 -1.36435,0.4136 -1.63591,-1.78928 -0.4701,-3.81342 -15.55397,-23.97259 -15.89906,-22.90282 z"
       id="path310"
       sodipodi:nodetypes="cscscsscsscscscscssssscscscc"
       inkscape:label="Base" /><g
       inkscape:groupmode="layer"
       id="layer12"
       inkscape:label="Mouth"
       style="display:inline"><path
         style="opacity:1;fill:#ffffff;fill-opacity:1;stroke:#000000;stroke-width:0.79375;stroke-dasharray:none"
         d="m 88.526274,163.07091 c -0.819156,0.105 -4.190711,-9.00397 -0.901154,-12.58272 3.289557,-3.57875 5.711537,-4.55477 5.711537,-4.55477 0,0 3.235332,0.0723 4.699367,0.65068 -1.066029,2.27981 -6.000729,4.51862 -6.796008,7.84433 -0.795276,3.3257 -1.631185,8.50372 -2.713742,8.64248 z"
         id="path47551"
         sodipodi:nodetypes="ssccss" /><path
         style="opacity:1;fill:#ffffff;fill-opacity:1;stroke:#000000;stroke-width:0.79375;stroke-dasharray:none"
         d="m 86.640926,158.3908 c 0,0 1.085066,-3.64338 2.056391,-4.35909"
         id="path50306"
         sodipodi:nodetypes="cc" /><path
         style="opacity:1;fill:none;fill-opacity:1;stroke:#000000;stroke-width:0.79375;stroke-dasharray:none"
         d="m 97.726942,146.50559 c 9.700598,-0.0169 16.390958,0.55218 24.231898,1.19945"
         id="path50308"
         sodipodi:nodetypes="cc" /></g><g
       inkscape:groupmode="layer"
       id="layer9"
       inkscape:label="Brows"><path
         style="display:inline;opacity:1;fill:#737073;fill-opacity:1;stroke:#000000;stroke-width:1.32292;stroke-dasharray:none"
         d="m 97.799667,125.0479 c -0.921414,0.82598 -2.660931,0.91763 -3.172153,-0.15594 -0.511226,-1.07357 -2.35163,-4.19204 -2.504999,-5.9302 -0.153365,-1.73816 -2.044895,-9.40652 -2.556117,-9.96886 -0.511223,-0.56235 -1.431426,-1.48255 -2.300508,-1.99377 -0.86908,-0.51123 -0.817959,-2.45388 -0.306734,-2.30051 0.511223,0.15337 2.873928,-0.0652 4.089791,1.73816 1.13504,1.68348 3.753074,7.66073 4.652135,9.50876 0.824769,1.69532 5.009998,4.44765 5.009998,4.44765 0,0 0.9202,0.46011 -0.51122,2.0449 -1.431436,1.58479 -1.543449,1.84179 -2.400193,2.60981 z"
         id="path3923"
         sodipodi:nodetypes="sssssssscss" /><path
         style="opacity:1;fill:#737073;fill-opacity:1;stroke:#000000;stroke-width:1.32292;stroke-dasharray:none"
         d="m 112.16249,122.64257 0.66459,4.85663 c 0,0 0.51122,0.30673 0.71571,0.15336 0.20449,-0.15336 0.40898,-0.81795 1.63592,-1.22693 1.22693,-0.40898 5.77682,-1.78928 6.28805,-2.505 0.51122,-0.71571 3.68081,-7.56611 4.60101,-8.07733 0.92021,-0.51123 2.505,-1.27806 3.06734,-1.78928 0.56235,-0.51123 1.89153,-1.43143 1.38031,-1.78929 -0.51122,-0.35786 -4.75438,-0.76684 -5.47009,0.15337 -0.71572,0.9202 -7.31051,8.63968 -8.94642,9.1509 -1.63592,0.51123 -3.93642,1.07357 -3.93642,1.07357 z"
         id="path7683"
         sodipodi:nodetypes="ccssssssssc" /></g><g
       inkscape:groupmode="layer"
       id="layer10"
       inkscape:label="Glasses"
       style="display:inline;opacity:1"><path
         style="display:inline;opacity:1;fill:#01066b;fill-opacity:1;stroke:#000000;stroke-width:1.32292;stroke-dasharray:none"
         d="m 83.070347,126.81061 h 3.904091 c 0,0 1.662853,-2.16894 5.964582,-1.7713 4.301728,0.39764 8.49501,3.83179 8.60346,3.6872 0.10844,-0.1446 2.27738,1.80745 2.27738,2.53043 0,0.72297 0.50609,0.50608 0.50609,0.50608 l 2.78347,-0.1446 c 0,0 0.83142,0.0362 0.86757,-0.61453 0.0362,-0.65068 0.65069,-3.07266 0.65069,-3.07266 0,0 -0.0723,-0.36149 1.30136,-0.36149 1.37366,0 6.90445,-2.85577 9.57948,-2.45813 2.67502,0.39764 3.68719,1.51825 3.68719,1.51825 0,0 0.36149,0.25305 0.36149,1.51826 0,1.26522 1.01217,0.25305 1.01217,0.25305 0,0 2.31354,-0.2169 2.67503,0.14459 0.36149,0.36149 1.30136,4.26558 0.90372,4.51862 -0.39764,0.25305 -1.7713,0.39764 -1.7713,0.39764 0,0 -1.66285,-0.25304 -1.66285,0.50609 0,0.75913 0,4.04868 0,4.04868 0,0 0.0361,4.30173 -0.86758,5.3139 -0.90372,1.01217 -5.81998,1.26522 -5.81998,1.26522 0,0 -1.73515,0.28919 -2.38583,-0.10845 -0.65069,-0.39764 -3.72335,-2.74732 -3.97639,-3.39801 -0.25304,-0.65068 -2.16894,-3.68719 -2.16894,-3.68719 0,0 -1.98819,-0.50609 -3.14496,-0.50609 -1.15677,0 -2.02434,0 -2.02434,0 l -0.36149,1.01218 c 0,0 -2.13279,3.43415 -3.03652,4.30172 -0.90372,0.86758 -2.566574,2.27739 -5.603088,2.13279 -3.036514,-0.14459 -4.807815,-0.25304 -4.807815,-0.25304 l -2.277385,-1.6267 c 0,0 -3.651046,-3.83179 -3.542599,-6.72371 0.108447,-2.89192 -0.144597,-3.65105 -0.144597,-3.65105 l -1.012172,-0.1446 c 0,0 -0.759127,-0.14459 -0.759127,-1.01217 0,-0.86757 -0.433789,-4.08483 0.28919,-4.12098 z"
         id="path7685" /><path
         style="display:inline;opacity:1;fill:#cbf5d4;fill-opacity:1;stroke:#000000;stroke-width:0.79375;stroke-dasharray:none"
         d="m 95.577894,142.53542 c 0,0 -4.012536,-0.86758 -5.530794,-3.28956 -1.518256,-2.42198 -1.952043,-3.18111 -2.06049,-4.19328 -0.108448,-1.01218 0,-5.20546 1.012171,-5.81999 1.012172,-0.61453 1.301364,-1.01217 2.168938,-1.01217 0.867576,0 3.994462,-0.12652 5.006634,0.37956 1.012171,0.50609 2.693098,1.53634 3.30763,1.78938 0.614537,0.25305 1.879747,1.59055 1.915897,1.98819 0.0362,0.39764 -0.10845,5.4585 -0.10845,5.4585 0,0 -2.313532,4.22943 -5.711536,4.69937 z"
         id="path16474"
         sodipodi:nodetypes="cssssssccc" /><path
         style="display:inline;opacity:1;fill:#cbf5d4;fill-opacity:1;stroke:#000000;stroke-width:0.79375;stroke-dasharray:none"
         d="m 113.28718,128.95618 c 0,0 -3.47632,0.58791 -3.47632,2.47944 0,1.89153 0.78982,4.39652 0.78982,4.39652 0,0 1.32918,4.47321 3.83418,4.65214 2.505,0.17893 4.68027,0.43454 5.65159,-0.17893 0.97133,-0.61347 2.0449,-2.40275 2.0449,-2.40275 l -0.0767,-5.57234 c 0,0 -0.10225,-2.14714 -1.07357,-2.93953 -0.97133,-0.7924 -2.58168,-1.07357 -2.58168,-1.07357 -1.70407,-0.20431 -3.40815,0.17012 -5.11222,0.63902 z"
         id="path18669"
         sodipodi:nodetypes="cscssccscc" /><ellipse
         style="opacity:1;fill:#000000;fill-opacity:1;stroke:#000000;stroke-width:0.79375;stroke-dasharray:none"
         id="path18723"
         cx="119.382"
         cy="136.33586"
         rx="1.3917357"
         ry="1.8262758" /><circle
         style="opacity:1;fill:#000000;fill-opacity:1;stroke:#000000;stroke-width:0.79375;stroke-dasharray:none"
         id="path18878"
         cx="90.191696"
         cy="132.19681"
         r="1.3375121" /></g><g
       inkscape:groupmode="layer"
       id="layer11"
       inkscape:label="Nose"><path
         style="display:inline;opacity:1;fill:#ffcb99;fill-opacity:1;stroke:#000000;stroke-width:0.79375;stroke-dasharray:none"
         d="m 103.72366,139.40451 c 0,0 3.1221,-5.10604 7.10964,-3.11226 3.98755,1.99377 2.86286,5.7257 2.86286,5.7257 -0.28912,1.94294 -2.41013,2.96993 -3.93642,4.29428"
         id="path19609"
         sodipodi:nodetypes="cscc" /><ellipse
         style="display:inline;opacity:1;fill:#000000;fill-opacity:1;stroke:#000000;stroke-width:0.79375;stroke-dasharray:none"
         id="path26564"
         cx="34.385796"
         cy="174.30363"
         rx="0.86273152"
         ry="0.5331974"
         transform="rotate(-24.956361)" /></g><g
       inkscape:groupmode="layer"
       id="layer13"
       inkscape:label="Scuffs"><path
         style="display:inline;opacity:1;fill:none;fill-opacity:1;stroke:#000000;stroke-width:0.79375;stroke-dasharray:none"
         d="m 85.067628,172.07791 6.236931,-7.10601"
         id="path51038" /><path
         style="display:inline;opacity:1;fill:none;fill-opacity:1;stroke:#000000;stroke-width:0.79375;stroke-dasharray:none"
         d="m 86.703544,173.71382 4.243158,-4.65213"
         id="path51040" /><path
         style="display:inline;opacity:1;fill:none;fill-opacity:1;stroke:#000000;stroke-width:0.79375;stroke-dasharray:none"
         d="m 87.368135,166.04547 c 0.357857,0.30673 3.783055,3.37407 3.783055,3.37407"
         id="path51042" /><path
         style="display:inline;opacity:1;fill:none;fill-opacity:1;stroke:#000000;stroke-width:0.79375;stroke-dasharray:none"
         d="m 86.856913,167.83475 c -0.153369,-0.20449 2.504995,3.01622 2.504995,3.01622"
         id="path51044" /><path
         style="display:inline;opacity:1;fill:none;fill-opacity:1;stroke:#000000;stroke-width:0.79375;stroke-dasharray:none"
         d="m 101.2223,125.19869 4.85662,-4.29428"
         id="path51046" /><path
         style="display:inline;opacity:1;fill:none;fill-opacity:1;stroke:#000000;stroke-width:0.79375;stroke-dasharray:none"
         d="m 102.50036,127.19246 5.31673,-4.65213"
         id="path51048" /><path
         style="display:inline;opacity:1;fill:none;fill-opacity:1;stroke:#000000;stroke-width:0.79375;stroke-dasharray:none"
         d="m 105.87444,128.21491 3.73193,-3.16958"
         id="path51050" /><path
         style="display:inline;opacity:1;fill:none;fill-opacity:1;stroke:#000000;stroke-width:0.79375;stroke-dasharray:none"
         d="m 103.93178,126.47675 -3.4252,-5.00999"
         id="path51052" /><path
         style="display:inline;opacity:1;fill:none;fill-opacity:1;stroke:#000000;stroke-width:0.79375;stroke-dasharray:none"
         d="m 106.0278,126.27226 -3.73193,-5.52121"
         id="path51054" /><path
         style="display:inline;opacity:1;fill:none;fill-opacity:1;stroke:#000000;stroke-width:0.79375;stroke-dasharray:none"
         d="m 106.74351,124.68747 c -0.15336,-0.20449 -2.3005,-3.57857 -2.3005,-3.57857"
         id="path51056" /></g></g><g
     inkscape:groupmode="layer"
     id="layer4"
     inkscape:label="Smoke"
     style="display:inline;opacity:0.848635"
     sodipodi:insensitive="true"><path
       style="opacity:1;fill:#6a6a6a;fill-opacity:1;stroke:none;stroke-width:0.79375;stroke-dasharray:none;stroke-opacity:1"
       d="m 107.50705,107.57935 c -0.63571,-0.35595 -0.64803,-1.36787 -1.22906,-1.80745 -0.42543,-0.32186 -0.98624,-0.46689 -1.51826,-0.50608 -0.41489,-0.0306 -0.837,0.35603 -1.22906,0.21689 -1.35243,-0.47996 -1.87718,-2.17117 -2.81962,-3.25341 -0.50471,-0.57958 -1.150771,-1.06017 -1.51826,-1.73515 -0.419461,-0.770442 -0.722979,-2.241234 -0.722979,-2.530426 0,-0.289189 0.144595,-2.02434 0.433787,-2.02434 0.289192,0 -1.031857,-0.994835 -1.694407,-1.184066 -0.459453,-0.131225 -1.329182,0.07668 -1.431425,0.07668 -0.102246,0 -0.851985,-0.170547 -1.252501,-0.332295 -0.633072,-0.255666 -1.508109,-0.920205 -1.789281,-0.996887 -0.281173,-0.07668 -1.854848,-0.959376 -2.786169,-1.431427 -0.356872,-0.180884 -0.684048,-0.445411 -1.07357,-0.536784 -2.936521,-0.68884 -6.151527,0.864771 -9.04866,0.02556 -0.53353,-0.154547 -1.303621,-0.894643 -1.405867,-0.894643 -0.102242,0 -1.507212,-0.139197 -2.249384,-0.281173 -0.933695,-0.178614 -1.823132,-0.558141 -2.760607,-0.715714 -0.741758,-0.124677 -1.497411,-0.162039 -2.249384,-0.178927 -0.741528,-0.01665 -1.486867,0.160563 -2.223823,0.07668 -1.016488,-0.1157 -1.942148,-0.777994 -2.965098,-0.792398 -0.516612,-0.0073 -1.014031,0.508934 -1.508112,0.357857 -0.420945,-0.128714 -0.48078,-0.821389 -0.894641,-0.971325 -0.428264,-0.155154 -0.906544,0.260174 -1.354743,0.17893 -0.427572,-0.0775 -0.79037,-0.369934 -1.150252,-0.613471 -0.35056,-0.237229 -0.86908,-0.741272 -0.971325,-0.817957 -0.102246,-0.07668 -0.210362,-0.616565 -0.460103,-0.792398 -0.269195,-0.18953 -0.642282,-0.16806 -0.971325,-0.178927 -0.51441,-0.01699 -1.023262,0.245187 -1.53367,0.178927 -0.254188,-0.033 -0.676148,-0.02792 -0.715714,-0.281172 -0.0645,-0.412839 0.869082,-0.690153 0.971325,-0.792396 0.102246,-0.102245 1.23368,-0.620183 1.89153,-0.817959 2.61058,-0.784846 5.336307,-1.191928 8.051773,-1.431425 0.738408,-0.06513 1.482549,0 2.223823,0 0.102243,0 3.118013,-0.986071 4.575453,-1.7126 0.695966,-0.346936 1.452964,-0.670041 1.968209,-1.252498 0.131308,-0.148436 0.217348,-0.342334 0.255614,-0.536784 0.294946,-1.498784 -0.582842,-3.083385 -0.255614,-4.575453 0.136357,-0.621749 0.715714,-1.687039 0.894644,-1.687039 0.178927,0 1.687038,-0.511222 1.865966,-0.613468 0.178927,-0.102245 0.80018,-0.325763 1.175813,-0.536784 0.278147,-0.156256 0.636541,-0.258416 0.792398,-0.536787 0.275006,-0.49118 -0.204491,-1.226936 0.07668,-1.687038 0.281173,-0.4601 0.91905,-1.354272 1.456987,-1.968209 0.484464,-0.552909 1.48255,-1.456989 1.584793,-1.533673 0.102246,-0.07668 2.223823,-1.584794 2.326068,-1.687039 0.102246,-0.102243 2.601759,-1.291693 3.578567,-2.326066 0.660298,-0.69921 1.144518,-1.58708 1.431425,-2.504998 0.117368,-0.375502 0.110586,-0.782485 0.102245,-1.175814 -0.01403,-0.661431 -0.298644,-1.308033 -0.255611,-1.968212 0.0281,-0.431028 0.23005,-1.175813 0.332295,-1.252497 0.102246,-0.07668 0.255612,-0.613469 0.357857,-0.613469 0.102246,0 -0.843521,-1.431427 -0.945763,-1.431427 -0.102246,0 -0.792411,-0.340236 -1.175817,-0.536784 -0.427905,-0.21936 -0.830219,-0.485708 -1.252497,-0.715714 -0.682709,-0.371858 -1.467148,-0.583271 -2.070455,-1.073568 -0.324268,-0.263527 -0.792398,-0.792398 -0.792398,-0.971325 0,-0.17893 0.05391,-1.152115 0.357857,-1.610355 0.260056,-0.392071 0.971325,-0.817959 1.150252,-0.817959 0.17893,0 1.77535,-0.915444 2.683925,-1.329182 0.705639,-0.321327 1.469662,-0.517548 2.147142,-0.894641 1.125942,-0.626711 2.278858,-1.294397 3.144025,-2.249384 0.435665,-0.480895 0.792395,-1.687039 0.971325,-1.687039 0.178927,0 1.186251,-1.786533 1.968212,-2.504996 0.525535,-0.48286 1.217404,-0.748852 1.789282,-1.175813 0.402123,-0.300226 1.150263,-0.869083 1.150263,-0.971325 0,-0.102246 -0.42248,-0.808546 -0.69016,-1.175817 -0.18838,-0.258464 -0.436393,-0.468272 -0.639031,-0.715714 -0.188944,-0.23072 -0.450672,-0.430202 -0.536786,-0.715711 -0.128154,-0.424891 -0.02556,-1.226939 0.07668,-1.329182 0.102245,-0.102245 0.632506,-0.382922 0.894637,-0.639029 0.18283,-0.178631 0.35954,-0.378467 0.4601,-0.613468 0.20389,-0.476487 0.23499,-1.015808 0.25562,-1.533674 0.0119,-0.29907 -0.10551,-0.596722 -0.0767,-0.89464 0.0298,-0.308708 0.15337,-0.894641 0.25562,-0.894641 0.10224,0 0.36013,-0.191254 0.4601,-0.357857 0.36036,-0.600564 -0.0675,-1.51402 0.35785,-2.070456 0.25696,-0.336153 0.92297,-0.1799 1.15026,-0.536785 0.33412,-0.524629 0,-1.243978 0,-1.865967 0,-0.102244 0.67639,-0.645282 0.71571,-1.07357 0.0356,-0.387705 -0.56235,-1.073569 -0.4601,-1.073569 0.10224,0 1.29238,-0.586872 1.78928,-1.07357 0.25164,-0.24647 0.46154,-0.557142 0.56235,-0.894642 0.37805,-1.265654 -0.46686,-2.758097 0.0767,-3.961984 0.28538,-0.63207 0.99925,-0.963876 1.53367,-1.405865 0.76952,-0.636427 2.14714,-1.789283 2.40275,-1.789283 0.25561,0 1.94265,-0.63903 2.0449,-0.63903 0.45158,0 0.93807,-0.174107 1.35474,0 0.89502,0.37399 1.57955,1.219352 2.0449,2.070456 0.46508,0.85061 0.26468,1.943025 0.63902,2.837292 0.27378,0.654049 0.79699,1.174515 1.15026,1.789283 0.23352,0.406383 0.63903,1.150253 0.63903,1.252498 0,0.102245 -0.64889,0.882118 -0.53679,1.354743 0.14485,0.610682 1.30362,1.175815 1.40587,1.252498 0.10224,0.07668 1.22564,1.618443 1.7126,2.504997 0.24992,0.454996 0.50909,0.922912 0.61347,1.431426 0.25869,1.260305 -0.51751,2.681831 0,3.859739 0.22801,0.518966 0.82676,0.776 1.25249,1.150253 0.52685,0.463141 0.95574,1.102682 1.61036,1.354743 0.66834,0.257341 1.44934,-0.08447 2.14714,0.07668 0.57235,0.132178 1.19499,0.300352 1.61035,0.715714 0.41536,0.415364 0.64701,1.026973 0.71572,1.610355 0.11455,0.972567 -0.63903,2.811729 -0.53679,2.888413 0.10225,0.07668 -1.10917,1.452207 -1.40586,2.300508 -0.3175,0.907789 -0.13318,1.927754 -0.35786,2.862852 -0.22227,0.9251 -0.54246,1.83464 -0.97133,2.683925 -0.19387,0.383916 -0.53305,0.684195 -0.71571,1.073568 -0.31714,0.676047 -0.50512,1.412507 -0.63903,2.147142 -0.0643,0.352953 -0.2149,0.742485 -0.0767,1.073568 0.30259,0.724923 1.23625,0.975789 1.78928,1.53367 0.298,0.300612 0.43777,0.785239 0.81796,0.971325 0.58207,0.2849 1.84041,0.07669 1.94265,0.07669 0.10224,0 1.22899,1.17409 1.81484,1.789284 0.52017,0.546226 1.04396,1.092469 1.50811,1.687036 0.35483,0.454527 0.77404,0.889604 0.97133,1.431428 0.11429,0.313878 -0.16945,0.802554 0.10224,0.996886 0.64722,0.462931 1.54897,-0.365589 2.32607,-0.536784 0.68868,-0.151715 1.36748,-0.378704 2.07046,-0.434541 0.52722,-0.04188 1.45498,-0.436025 1.58479,0.07668 0.18577,0.733774 -1.2476,0.876074 -1.94265,1.175814 -0.90922,0.392102 -2.76061,0.715714 -2.86285,0.792398 -0.10225,0.07668 -1.27162,1.061362 -1.89153,1.610355 -0.32953,0.291836 -0.72233,0.531645 -0.97132,0.894641 -0.19689,0.28705 -0.52697,0.654217 -0.38342,0.971325 0.1456,0.321634 0.67907,0.204092 0.99688,0.357857 0.4065,0.196676 0.70432,0.644565 1.15026,0.715713 0.84894,0.135444 1.65336,-0.496161 2.50499,-0.613471 1.00501,-0.138438 2.02756,-0.07873 3.04179,-0.102242 2.00192,-0.04642 4.04833,-0.49376 6.00687,-0.07668 0.47727,0.101638 0.89749,0.385972 1.32919,0.613469 0.45633,0.240477 1.22693,0.792398 1.32918,0.792398 0.10224,0 2.12417,-0.141467 3.14402,0.102242 0.5487,0.131121 1.08673,0.371456 1.53367,0.715714 0.57992,0.446691 1.04521,1.050043 1.40587,1.687039 0.19118,0.337662 0.5926,0.77231 0.38342,1.09913 -1.00137,1.564546 -3.69873,0.349067 -5.54678,0.536786 -0.80131,0.08139 -1.65209,-0.03633 -2.40275,0.255612 -0.41453,0.161216 -1.22216,0.373174 -1.07357,0.792397 0.18806,0.530584 1.50811,-0.07668 1.68704,-0.07668 0.17893,0 0.2483,0.859901 0.10224,1.252498 -0.25001,0.67198 -0.95535,1.084306 -1.53367,1.508109 -1.14368,0.838113 -2.42126,1.519534 -3.7575,1.993773 -0.9984,0.354336 -2.10038,0.320441 -3.11846,0.613468 -0.64018,0.18426 -1.26402,0.430337 -1.86597,0.715714 -0.80693,0.382552 -1.6508,0.744806 -2.32606,1.329182 -0.26163,0.226414 -0.59085,0.475332 -0.63903,0.817957 -0.0665,0.473171 0.0602,1.294747 0.53678,1.329182 0.47224,0.03412 0.30514,-0.991117 0.71571,-1.226937 0.51719,-0.297059 1.25764,-0.270318 1.78929,0 0.45119,0.229404 0.50117,0.908542 0.89464,1.226937 0.4062,0.328693 1.21125,0.165152 1.43142,0.639029 0.36247,0.780129 -0.32534,1.712892 -0.71571,2.479437 -0.39677,0.779113 -0.98203,1.462458 -1.61035,2.070455 -2.15679,2.087029 -4.69589,3.773193 -7.28494,5.291166 -3.36765,1.97447 -8.86374,1.428133 -10.63345,4.907749 -0.47268,0.929399 0.89085,2.062219 0.61346,3.067341 -0.32416,1.174597 -1.60362,1.836654 -2.45387,2.709486 -0.36164,0.37125 -0.85497,0.63101 -1.12469,1.07357 -0.3143,0.5157 -0.11029,1.28651 -0.51122,1.73816 -0.43078,0.48528 -1.41102,0.2396 -1.78929,0.76684 -0.37866,0.52778 0.10649,1.34732 -0.15336,1.94265 -0.35218,0.80686 -0.9749,1.60826 -1.78929,1.94265 -0.88476,0.36329 -2.0316,0.33178 -2.86613,-0.13549 z"
       id="path36072"
       sodipodi:nodetypes="sssssssssssssssssssssssssssssssssssssssssssssssssssssssssssssssssssssssssssssssssssssssssssssssssssssssssssssssssssssssssssssssssssssssssssssssssssssssssssssssssss" /><path
       style="display:inline;opacity:1;fill:#4f4f4f;fill-opacity:1;stroke:none;stroke-width:0.79375;stroke-dasharray:none;stroke-opacity:1"
       d="m 101.27342,94.934245 c 0.60862,0.809108 0.13699,2.028148 0.35786,3.016221 0.16458,0.736255 0.56234,1.94265 0.71571,2.147134 0.15337,0.2045 2.36577,1.83329 3.57857,2.70949 0.7548,0.54532 1.44725,1.21188 2.3005,1.58479 0.78416,0.34272 2.30051,0.71572 2.505,0.56235 0.20449,-0.15337 1.72441,-3.01821 2.70948,-4.44765 0.59959,-0.870075 1.56891,-1.516628 1.94265,-2.504991 0.38048,-1.006197 0.13754,-2.147064 0.20449,-3.22071 0.0521,-0.834941 -0.35695,-1.84212 0.15337,-2.504998 1.65351,-2.147798 5.12559,-1.769439 7.71948,-2.556118 1.47173,-0.446349 3.11861,-0.453072 4.44765,-1.226937 1.02048,-0.594196 2.3005,-2.35163 2.50499,-2.504995 0.20449,-0.153369 1.8684,-0.486524 2.35163,-1.226937 0.56006,-0.858125 0.71391,-2.178222 0.20449,-3.067343 -0.5304,-0.925741 -1.92,-0.932066 -2.86285,-1.431425 -0.43149,-0.228529 -0.99725,-0.316268 -1.27806,-0.715714 -0.41729,-0.593589 -0.72832,-1.523257 -0.35786,-2.147141 0.45126,-0.759944 1.99377,-0.511223 2.505,-0.86908 0.51122,-0.357857 3.9653,-3.072183 5.52122,-5.009991 0.43008,-0.535641 0.81795,-1.789285 1.02244,-1.789285 0.20449,0 3.01622,-1.07357 3.22071,-1.07357 0.20449,0 1.94265,-0.357854 2.14714,-0.357854 0.20449,0 1.27806,-1.584794 1.27806,-1.789285 0,-0.204488 -1.10847,-1.085173 -1.78928,-1.431425 -1.21228,-0.616557 -2.58239,-0.945583 -3.93642,-1.073571 -1.31028,-0.123853 -2.63656,0.100553 -3.93643,0.306735 -1.5063,0.238925 -2.94721,1.34686 -4.44765,1.07357 -0.50685,-0.09232 -0.85072,-0.581345 -1.27806,-0.869082 -0.71351,-0.480419 -1.88407,-0.612458 -2.14713,-1.431425 -0.25069,-0.780459 0.86908,-2.096018 0.86908,-2.300507 0,-0.204491 0.78347,-0.351974 0.9202,-0.715714 0.34807,-0.925988 -0.29,-1.962956 -0.56235,-2.913975 -0.26138,-0.912716 -0.50511,-1.862296 -1.02245,-2.658364 -0.64347,-0.990146 -2.3005,-2.504996 -2.50499,-2.504996 -0.20449,0 -1.18914,-0.598378 -1.63592,-1.07357 -0.56465,-0.600561 -0.94209,-1.373592 -1.22693,-2.147139 -0.31759,-0.862485 -0.54638,-1.791061 -0.51123,-2.709487 0.0351,-0.917003 0.31388,-1.833345 0.71572,-2.658361 0.55965,-1.149012 1.94265,-2.709487 2.3005,-3.067344 0.35786,-0.357857 0.79643,-1.74378 1.07357,-2.658364 0.2675,-0.882769 0.92561,-1.861615 0.56235,-2.709484 -0.35568,-0.830179 -1.52563,-0.967465 -2.30051,-1.431427 -1.11345,-0.666684 -2.34399,-1.153224 -3.37407,-1.94265 -0.59297,-0.454439 -1.05653,-1.056528 -1.5848,-1.584794 -0.23857,-0.238571 -0.5866,-0.404006 -0.71571,-0.715714 -0.66516,-1.605852 0.53045,-3.559239 0,-5.214481 -0.22368,-0.697987 -0.86961,-1.180686 -1.27806,-1.789283 -0.30299,-0.451458 -0.62753,-0.893199 -0.86908,-1.380304 -0.45278,-0.913079 -0.64042,-1.9403 -1.07357,-2.862853 -0.35034,-0.746173 -1.02245,-2.147139 -1.22694,-2.147139 -0.20449,0 -1.10314,-0.959555 -1.78928,-1.07357 -0.48137,-0.07999 -1.00443,0.07052 -1.43143,0.306734 -0.74869,0.414166 -1.38156,1.088187 -1.78928,1.840406 -0.25807,0.476122 -0.38958,1.044158 -0.35786,1.584793 0.018,0.306681 0.41286,0.580785 0.30674,0.869081 -0.21102,0.573255 -1.10838,0.537872 -1.5848,0.920202 -0.68661,0.55101 -1.3585,1.174879 -1.78928,1.94265 -0.42493,0.757345 -0.36753,1.709442 -0.71571,2.504997 -0.36793,0.840686 -0.84068,1.649385 -1.43143,2.351629 -0.34983,0.415863 -1.17407,0.532709 -1.22694,1.07357 -0.0733,0.7497 1.11008,1.08615 1.38031,1.789282 0.31883,0.82958 0.17038,1.77028 0.20449,2.658364 0.0209,0.544904 -0.10312,1.10045 0,1.635916 0.12148,0.630781 0.83401,1.157897 0.71571,1.789282 -0.25756,1.374671 -1.79146,2.168358 -2.86285,3.067344 -1.245557,1.045125 -3.10648,1.363451 -4.08979,2.658364 -0.378091,0.497906 -0.338855,1.205404 -0.562349,1.789282 -0.51525,1.34609 -1.319858,2.573675 -1.789281,3.936423 -0.496714,1.441973 -0.784957,2.950076 -1.073571,4.447645 -0.224835,1.166631 -0.425798,2.34242 -0.511223,3.527444 -0.08699,1.206765 0.341445,2.468972 0,3.629689 -0.337493,1.147285 -1.220311,2.063126 -1.94265,3.016221 -0.481241,0.634977 -1.038722,1.209114 -1.584793,1.789282 -0.644175,0.684398 -1.377966,1.283742 -1.993773,1.993773 -0.781561,0.901147 -1.331571,1.992362 -2.147139,2.862852 -0.429667,0.458601 -0.988098,0.781529 -1.431427,1.226937 -0.835814,0.839734 -1.522483,1.815944 -2.300507,2.709486 -0.840089,0.964822 -2.697636,1.591396 -2.556119,2.862853 0.03243,0.291381 0.64936,0.225649 0.715714,0.511222 0.170833,0.735227 -0.623,1.388192 -1.073571,1.993773 -1.265935,1.701454 -2.639715,3.478249 -4.498768,4.498769 -1.928109,1.058428 -4.465252,0.465697 -6.441419,1.431428 -0.913506,0.44642 -2.09712,0.958268 -2.35163,1.94265 -0.128323,0.496321 0.178322,1.091829 0.562348,1.431425 0.922652,0.815906 2.36279,0.723021 3.578564,0.920205 3.37243,0.546969 6.808594,0.650832 10.224476,0.715711 1.602361,0.03043 3.228234,-0.437461 4.805503,-0.153366 1.19592,0.215407 3.169586,1.380305 3.374075,1.380305 0.204491,0 3.374077,1.278059 3.578566,1.278059 0.204491,0 5.521216,1.584793 5.725708,1.584793 0.204488,0 3.320426,0.562588 4.243156,1.789282 z"
       id="path34083"
       sodipodi:nodetypes="ssssssssssssssssssssssssssssssssssssssssssssssssssssssssssssssssssssssssssssssssssssssssssss" /><path
       style="display:inline;opacity:1;fill:#333333;fill-opacity:1;stroke:none;stroke-width:0.79375;stroke-dasharray:none;stroke-opacity:1"
       d="m 79.393044,85.067628 c -0.204489,0 -1.665134,-0.217748 -1.789282,-0.869082 -0.259699,-1.36249 1.638153,-2.328056 2.811729,-3.067341 0.693286,-0.43673 1.667371,-0.264971 2.35163,-0.715714 0.838163,-0.552124 1.341294,-1.496935 1.942651,-2.300507 0.648482,-0.866543 0.92494,-2.058069 1.789281,-2.709484 0.499276,-0.376282 1.308786,-0.162367 1.789285,-0.562348 0.503848,-0.419418 0.530725,-1.210824 0.920202,-1.738159 0.300667,-0.40709 0.626277,-0.836819 1.073571,-1.07357 0.32197,-0.170418 0.814797,0.05192 1.073568,-0.204489 0.864117,-0.856225 0.263851,-2.449124 0.715714,-3.578566 0.651511,-1.628468 1.708759,-3.083889 2.811729,-4.447646 0.689583,-0.852628 2.24998,-1.208643 2.35163,-2.300507 0.134973,-1.449796 -2.430883,-2.124388 -2.504995,-3.578566 -0.09436,-1.851366 1.505562,-3.447006 2.709484,-4.856626 0.985219,-1.15355 2.304877,-1.987693 3.578569,-2.811732 0.33918,-0.21944 0.82919,-0.24067 1.07357,-0.562346 0.1476,-0.19428 -0.0511,-0.715713 0.15337,-0.715713 0.20448,0 0.63545,0.278336 0.9202,0.153368 0.91321,-0.400783 1.47036,-1.521547 1.63591,-2.504996 0.0816,-0.485003 -0.0609,-1.03939 -0.35785,-1.431427 -0.58072,-0.766584 -1.65708,-0.977634 -2.505,-1.431425 -0.47034,-0.251718 -1.24983,-0.214114 -1.43143,-0.715714 -0.20262,-0.559659 0.30873,-1.201599 0.71572,-1.635916 1.14132,-1.21794 3.09031,-1.329099 4.44764,-2.300507 0.48024,-0.343696 0.74718,-0.968234 1.27806,-1.226936 0.75824,-0.369498 1.72647,-0.0333 2.505,-0.357857 1.381,-0.575717 2.22135,-2.079731 3.57856,-2.709487 0.77628,-0.360203 1.683,-0.324262 2.505,-0.562345 0.48666,-0.140956 0.92477,-0.511634 1.43143,-0.511223 0.70611,5.73e-4 1.52689,0.185974 1.99377,0.715711 0.72715,0.825055 0.81959,2.125868 0.71571,3.220709 -0.14203,1.496928 -1.17665,2.767724 -1.78928,4.140915 -0.48152,1.07931 -1.20746,2.071319 -1.48255,3.220709 -0.1032,0.431209 -0.39454,1.048749 -0.0511,1.329179 0.30573,0.24964 0.83065,-0.512797 1.15025,-0.281172 0.35981,0.26077 -0.15643,0.967865 0.10225,1.329182 0.18887,0.263807 0.67612,0.1436 0.89464,0.383418 0.18693,0.205143 0.36738,0.538365 0.25561,0.792398 -0.0906,0.205897 -0.5064,0.08334 -0.61347,0.281173 -0.082,0.151545 -0.02,0.368599 0.0767,0.511222 0.13285,0.195944 0.45743,0.179812 0.61346,0.357857 0.26177,0.298714 0.68015,0.768473 0.46011,1.099132 -0.11329,0.17024 -0.47468,-0.15018 -0.61347,0 -0.22043,0.238524 0.0121,0.653034 0.0767,0.971325 0.15008,0.739348 0.21794,1.580228 0.71571,2.147139 0.41234,0.469622 1.5848,0.817957 1.68704,0.817957 0.10225,0 1.30464,0.939823 2.07046,1.07357 0.50806,0.08873 1.10226,-0.487118 1.53367,-0.204488 0.3632,0.237945 0.35786,1.150252 0.35786,1.252498 0,0.102245 0.43248,0.962489 0.35785,1.456986 -0.0519,0.34388 -0.33467,0.611629 -0.53678,0.894644 -0.246,0.344465 -0.53172,0.659499 -0.81796,0.971325 -0.34224,0.372824 -0.79061,0.653976 -1.07357,1.073568 -0.34154,0.506459 -0.61897,1.083889 -0.71571,1.687039 -0.11374,0.709129 -0.2102,1.543501 0.17893,2.147138 0.27487,0.426385 0.89242,0.483213 1.32918,0.741275 0.27681,0.163557 0.56922,0.307489 0.81795,0.511226 0.1632,0.133675 0.23923,0.380398 0.43455,0.4601 1.41319,0.57666 3.09453,-0.548396 4.57545,-0.178928 0.57424,0.143265 0.96234,0.740181 1.53367,0.894641 0.42771,0.11563 0.91832,-0.165825 1.32918,0 0.30733,0.124041 0.66369,0.362842 0.71571,0.690153 0.0485,0.304912 -0.30119,0.5395 -0.43454,0.817956 -0.16816,0.351149 -0.55476,0.695916 -0.4601,1.073571 0.0928,0.370441 0.68839,0.394299 0.89464,0.715714 0.26562,0.413932 0.40041,0.941442 0.35786,1.431425 -0.0508,0.58521 -0.32989,1.16741 -0.71571,1.610355 -0.43482,0.499202 -1.10361,0.735148 -1.68704,1.048009 -0.95764,0.513532 -2.01277,0.83142 -2.9651,1.354743 -0.53436,0.293643 -1.11273,0.555777 -1.53367,0.996887 -0.27945,0.292844 -0.56768,0.64582 -0.61347,1.048009 -0.0323,0.283822 0.005,0.681645 0.25561,0.817957 0.19439,0.105555 0.41883,-0.199979 0.63903,-0.178927 0.13276,0.01269 0.31136,0.05393 0.35786,0.178927 0.0773,0.207625 -0.22885,0.39356 -0.25561,0.613468 -0.0406,0.333743 -0.16431,0.886793 0.15336,0.996886 0.16519,0.05725 0.22077,-0.293748 0.38342,-0.357857 0.26951,-0.106232 0.57939,0 0.86908,0 0.10225,0 0.76145,0.36103 0.9202,0.715714 0.30702,0.685962 -0.0392,1.506567 -0.15336,2.249385 -0.11581,0.753718 -0.10769,1.593447 -0.53679,2.223822 -0.49216,0.723005 -1.37934,1.089262 -2.14714,1.50811 -1.86542,1.017612 -3.8025,2.092342 -5.90463,2.402752 -1.17674,0.173763 -2.38646,-0.564906 -3.553,-0.332295 -1.1251,0.22435 -2.01463,1.09934 -3.04179,1.610354 -1.0811,0.537851 -2.3175,0.805993 -3.28301,1.531152 -0.66573,0.500003 -1.00896,1.34223 -1.64478,1.879747 -0.77254,0.6531 -1.57576,1.516388 -2.58465,1.590555 -0.64064,0.0471 -1.37801,-0.251225 -1.7713,-0.759129 -0.3657,-0.472275 -10e-4,-1.23839 -0.27112,-1.7713 -0.254,-0.501715 -0.63925,-1.094441 -1.19291,-1.192916 -0.4379,-0.07789 -0.77181,0.630638 -1.21099,0.560309 -0.36619,-0.05864 -0.54223,-0.506086 -0.81335,-0.759128 -0.27112,-0.253044 -0.46834,-0.623134 -0.81336,-0.759129 -0.846373,-0.333607 -1.819596,0.01351 -2.729244,0 -0.608709,-0.009 -1.265198,0.183781 -1.825523,-0.05422 -0.33332,-0.141579 -0.554034,-0.473923 -0.777203,-0.759129 -0.198034,-0.253085 -0.415714,-0.831426 -0.488011,-0.831426 -0.0723,0 -0.46624,-0.121295 -0.704906,-0.126521 -0.316041,-0.0069 -0.625097,0.155606 -0.939873,0.126521 -0.517922,-0.04786 -1.086822,-0.149955 -1.482108,-0.488011 -0.200683,-0.171628 -0.154957,-0.540364 -0.36149,-0.704905 -0.325722,-0.259498 -0.795738,-0.275643 -1.21099,-0.307267 -0.187101,-0.01425 -0.382163,0.113155 -0.56031,0.05422 -0.323974,-0.107177 -0.505333,-0.458722 -0.759128,-0.686831 -0.168198,-0.151175 -0.308623,-0.341622 -0.506086,-0.451862 -0.515963,-0.288052 -1.157933,-0.26852 -1.699002,-0.506085 -0.764431,-0.335636 -1.346628,-1.059215 -2.150864,-1.283292 -1.575472,-0.438961 -4.243308,-0.02706 -4.906368,-0.02706 z"
       id="path17365"
       sodipodi:nodetypes="ssssssssssssssssssssssssssssssssssssssssssssssssssssssssssssssssssssssssssssssssssssssssssssssssssssssssssssss" /><path
       style="display:inline;opacity:1;fill:#333333;fill-opacity:1;stroke:none;stroke-width:0.79375;stroke-dasharray:none;stroke-opacity:1"
       d="m 106.67563,28.846883 c 0.70918,0.210822 1.46534,0.265469 2.20509,0.253042 0.5725,-0.0096 1.57248,-0.253042 1.699,-0.253042 0.12652,0 1.59055,-0.885651 1.71708,-0.885651 0.12652,0 1.38165,0.291852 1.82552,-0.126521 0.13704,-0.129166 0.19882,-0.48801 0.0723,-0.560308 -0.12653,-0.0723 -0.98348,-0.01865 -1.19292,-0.379566 -0.0866,-0.149219 -0.0181,-0.506084 0.10845,-0.506084 0.12652,0 0.85871,0.09118 1.08447,-0.19882 0.16691,-0.214411 0.002,-0.547563 -0.0542,-0.813352 -0.0653,-0.307642 -0.12706,-0.641519 -0.32534,-0.88565 -0.25083,-0.308839 -0.74914,-0.334093 -1.01217,-0.632607 -0.17109,-0.194164 -0.23785,-0.461355 -0.32534,-0.704905 -0.08,-0.222799 -0.0195,-0.513464 -0.18074,-0.68683 -0.31657,-0.340445 -0.85716,-0.501042 -1.31944,-0.451862 -0.68531,0.07291 -1.20937,0.667398 -1.7713,1.066394 -1.05353,0.748052 -2.19391,1.452503 -2.98229,2.476205 -0.34045,0.44207 -0.58459,0.97341 -0.70491,1.518256 -0.0857,0.388284 -0.20905,0.854663 0,1.192916 0.22664,0.366711 0.74352,0.455544 1.15674,0.578385 z"
       id="path32784"
       sodipodi:nodetypes="ssssssssssssssssssss" /><path
       style="display:inline;opacity:1;fill:#0f0f0f;fill-opacity:1;stroke:none;stroke-width:0.79375;stroke-dasharray:none;stroke-opacity:1"
       d="m 105.51658,88.850683 c 1.11031,0.436009 2.4103,0.240988 3.57856,0 2.23526,-0.461089 4.54553,-1.235507 6.28805,-2.709487 0.74342,-0.628849 1.5848,-2.249384 1.5848,-2.453872 0,-0.204489 -1.64383,-1.708608 -2.70949,-2.147139 -0.99891,-0.411059 -2.31009,0.22313 -3.22071,-0.357857 -0.47058,-0.300235 -0.97344,-0.883071 -0.86908,-1.431428 0.4639,-2.437425 4.30663,-2.622536 5.9302,-4.498768 0.48413,-0.559467 1.37541,-1.26717 1.07357,-1.94265 -0.77747,-1.739866 -3.66728,-1.229673 -5.57234,-1.278059 -2.05852,-0.05228 -4.09297,0.546486 -6.08356,1.07357 -3.42846,0.907817 -8.546539,0.352512 -10.01999,3.578566 -0.136731,0.299366 0.554581,0.656357 0.357857,0.920203 -0.500772,0.671637 -1.692313,-0.408 -2.504995,-0.204491 -1.160075,0.290502 -2.780082,0.770301 -3.016221,1.94265 -0.142798,0.708943 0.609293,1.413114 1.226939,1.789284 0.821367,0.500244 1.907377,0.248517 2.862852,0.357857 1.31065,0.149985 2.74539,-0.15824 3.936424,0.40898 0.826801,0.393757 1.027944,1.986809 1.942654,1.94265 0.37485,-0.0181 0.36852,-0.726613 0.71571,-0.869082 0.45963,-0.188608 1.34993,-0.325426 1.48255,0.153368 0.15921,0.574787 -1.00316,0.658468 -1.43143,1.073568 -0.1567,0.151882 -0.44671,0.296283 -0.40898,0.511226 0.0622,0.354062 0.63116,0.348619 0.9202,0.562345 0.64062,0.473701 1.19911,1.049553 1.78929,1.584793 0.72348,0.656131 1.23803,1.636775 2.14714,1.993773 z"
       id="path13092"
       sodipodi:nodetypes="ssssssssssssssssssssssssss" /></g><g
     inkscape:groupmode="layer"
     id="layer22"
     inkscape:label="BurnMarks"
     style="display:inline"><g
       id="g89920"
       clip-path="url(#clipPath89922)"><g
         inkscape:label="Clip"
         id="g89918"
         style="fill:#000000"><path
           id="path89914"
           style="display:inline;opacity:0.362283;fill:#000000;fill-opacity:1;stroke:#000000;stroke-width:0.79375;stroke-dasharray:none"
           inkscape:label="Clipping Mask"
           d="m 86.70375,104.62204 v 1.78903 c 0,0.71571 2.760502,2.32626 3.041675,2.40296 0.281173,0.0767 2.939356,11.63023 2.939356,12.2437 0,0.61346 1.687107,3.75745 1.866036,4.19199 0.178927,0.43454 -2.147302,-0.332 -4.115511,-0.3576 -1.968211,-0.0256 -3.425098,1.78898 -3.757394,2.07015 -0.332294,0.28118 -3.604101,0.0766 -3.859712,0.1788 -0.255612,0.10225 -1.28e-4,4.0134 0.1788,4.65243 0.178929,0.63907 1.176215,0.43447 1.610754,0.6134 0.43454,0.17892 0.178801,3.3998 0.178801,3.3998 l -0.536918,0.5364 c 0,0 -7.514899,0.53692 -7.668266,0.53692 -0.153367,0 -3.067183,-4.0387 -3.322795,-4.29432 -0.25561,-0.25561 -3.220736,0 -3.578592,0 -0.357856,0 -0.818226,2.14742 -1.073837,2.50528 -0.255611,0.35786 -3.041622,0.0767 -3.322794,0 -0.281173,-0.0767 -1.610222,-1.53354 -1.942517,-1.61024 -0.332295,-0.0767 -2.505274,0 -2.505274,0 0,0 0.178801,1.35463 0.178801,1.61024 0,0.25561 0.792716,1.43143 0.792716,1.43143 0,0 -3.144059,-2.1e-4 -4.294311,0.0765 -1.150253,0.0767 -3.425114,0.99683 -3.425114,0.99683 l -0.613916,2.42828 -0.715202,0.79272 -0.997355,0.3576 -1.789038,-1.50792 -1.968355,0.1788 -1.866036,2.86287 1.150317,3.91088 -2.402437,6.08334 -2.044837,0.71572 v 2.32648 l -1.789555,1.53324 0.6134,12.78061 -4.473112,9.48366 0.1788,3.32279 1.763717,-1.07383 1.406116,8.5633 -0.894519,0.74104 c 0,0 -0.715778,0.43461 -1.150318,1.15032 -0.434539,0.71572 0.178801,1.78911 0.178801,1.89135 0,0.10223 0.63872,0.17932 0.63872,0.17932 l 0.971517,0.7922 2.147156,0.10232 -0.536918,4.54959 -0.02532,4.47363 0.28112,5.01003 1.175639,8.40931 c 0,0 0.715719,5.82792 0.715719,6.33915 0,0.51122 -4.217522,4.85668 -4.856551,5.39347 -0.63903,0.53677 -3.39974,6.23716 -3.680913,6.69726 -0.281168,0.4601 -0.332092,1.5078 -0.07648,2.40244 0.255612,0.89464 11.272697,7.9499 11.272697,7.9499 0,0 1.17551,0.45992 1.354439,0.45992 0.178928,0 0.613586,0.5368 0.869198,0.71572 0.255616,0.17893 -0.178725,3.04173 -0.07648,3.47627 0.102245,0.43454 5.392952,2.65824 5.392952,2.65824 0,0 3.476535,-0.15296 3.834391,-0.15296 0.357856,0 5.086511,-10.02006 5.086511,-10.02006 0,0 1.175826,-2.9141 1.431438,-3.34864 0.255611,-0.43454 2.863135,-0.35782 3.220992,-0.28112 0.357855,0.0767 2.146772,-1.61029 2.683557,-2.04483 0.536784,-0.43454 -0.07668,-1.5341 0,-1.9942 0.07668,-0.4601 -0.817506,-0.97108 -1.149801,-1.07332 -0.332296,-0.10224 -4.856872,-3.83393 -5.649267,-4.26847 -0.792397,-0.43454 -2.300635,-2.24947 -2.300635,-2.24947 l -1.099158,-7.94991 c 0,0 0.204825,-0.53641 0.460437,-1.25212 0.255612,-0.71571 1.789119,-0.89481 2.607076,-0.97151 0.817957,-0.0767 2.402699,1.15026 2.760555,1.43143 0.357857,0.28117 -0.434599,6.08348 -0.434599,6.62027 0,0.53678 1.68737,4.21745 2.224154,5.46995 0.536784,1.2525 4.294311,6.08387 4.294311,6.08387 0,0 1.43098,1.78917 1.86552,2.32595 0.43454,0.53679 -3.015769,5.54664 -3.629236,6.18567 -0.613465,0.63903 -0.536918,2.86314 -0.536918,3.221 0,0.35785 1.431166,0.43434 2.121317,0.79219 0.690152,0.35785 -0.53679,1.07359 -0.715718,1.43144 -0.178928,0.35786 -5.62351,3.50179 -6.441468,3.7574 -0.817957,0.25561 -3.476279,4.2945 -4.191992,4.55011 -0.715713,0.2556 -5.18883,6.8249 -5.18883,6.8249 -0.536786,0.43456 -0.89432,2.50481 -0.971,2.93936 -0.07668,0.43455 17.202567,4.21783 17.202567,4.21783 0,0 3.220608,0.9713 3.757393,1.048 0.536784,0.0767 9.125158,-0.5367 11.425659,-0.6134 2.300505,-0.0767 6.620665,-1.61081 7.515304,-2.04536 0.894639,-0.43452 0.818038,-2.22363 0.818038,-2.22363 0,0 2.760629,0.077 2.862874,0.077 4.89e-4,10e-4 0.25593,0.71577 0.7922,0.89452 0.536784,0.17893 4.370988,-0.28118 6.058028,-0.71572 1.68703,-0.43454 5.72557,-2.50493 6.18566,-2.76055 0.46012,-0.25561 0.077,-4.57588 0.077,-5.18935 0,-0.61347 -0.35805,-1.25213 -0.97151,-1.96784 -0.61347,-0.71571 0.17875,-1.61042 0.45992,-2.58175 0.28117,-0.97132 0.33234,-6.82498 0.43459,-9.40666 0.10224,-2.58167 -0.45992,-8.58862 -0.45992,-8.58862 l 2.22364,-0.0253 1.45728,17.20257 c 0,0 0.25515,3.04161 0.43408,3.65508 0.17893,0.61346 1.71274,-0.25529 1.96835,-0.25529 0.25561,0 -0.74111,4.19169 -0.84336,4.83072 -0.10224,0.63903 -0.0769,0.61352 0.45992,1.15031 0.53679,0.53678 4.47352,1.6105 6.08387,1.96836 1.61036,0.35786 7.9978,1.33635 8.50387,1.33635 0.50609,0 1.44625,-1.97042 1.95234,-2.72955 0.50608,-0.75912 1.13849,0.50625 1.19269,1.01234 0.0542,0.50608 1.51817,2.65695 2.15078,3.03651 0.63259,0.37956 26.64207,-0.10858 27.83499,-0.16278 1.19292,-0.0542 4.50054,-2.02446 5.31389,-2.45825 0.81335,-0.43379 1.39178,-1.13839 1.5906,-1.8433 0.19882,-0.7049 -1.91589,-4.17511 -2.27738,-5.18728 -0.36149,-1.01217 -5.89267,-7.84448 -5.89267,-7.84448 0,0 -4.78958,-5.25988 -5.11493,-5.63945 -0.32534,-0.37954 4.17523,-6e-5 4.60902,-0.0543 0.43379,-0.0542 2.90981,-2.60225 3.54242,-3.10834 0.63261,-0.5061 1.06677,-0.48834 1.31982,-0.48834 0.25304,0 2.98194,-1.91586 3.2892,-2.22312 0.30727,-0.30726 2.85611,5e-5 3.54294,0.0724 0.68683,0.0723 4.55449,-1.66304 4.93406,-1.78956 0.37956,-0.12652 0.68683,-0.37951 0.75913,-0.68678 0.0723,-0.30726 -0.39746,-4.98841 -0.50591,-5.87406 -0.10845,-0.88564 -0.27143,-4.4285 -0.45217,-4.93458 -0.18075,-0.50609 -1.51783,-4.19281 -1.64435,-4.62659 -0.12652,-0.43379 -1.80764,-3.92224 -1.80764,-3.92224 0,0 -0.0724,-0.18074 0.63252,-0.75913 0.7049,-0.57838 1.64486,-4.86223 1.64486,-4.86223 0,0 0.6687,-4.3018 0.6687,-4.68137 0,-0.37956 -5.00688,0.81331 -5.69371,0.68678 -0.68683,-0.12652 -1.64441,-1.95182 -1.69861,-2.71095 -0.0542,-0.75912 4.03047,-3.65124 5.11494,-4.1031 1.08446,-0.45186 1.26537,-1.06613 1.77146,-1.89756 0.50608,-0.83143 -1.21134,-2.40421 -1.28364,-2.71147 -0.0723,-0.30726 -3.09063,-1.64446 -3.65094,-1.82521 -0.56031,-0.18074 -0.77687,-2.34999 -1.02991,-2.72955 -0.25306,-0.37957 -0.28996,-3.31924 -0.34106,-3.94549 -0.0511,-0.62625 -1.52097,-0.30696 -2.05776,-0.30696 -0.53678,0 -1.03528,-0.89442 -1.4826,-0.98392 -0.44732,-0.0895 0.72858,-3.08053 0.67748,-3.56619 -0.0511,-0.4857 -1.96849,0.0767 -2.50527,-0.0894 -0.53679,-0.16615 2.05765,-4 2.14715,-4.16615 0.0895,-0.16614 1.61014,-0.28112 1.69964,-0.28112 0.0894,0 -0.0894,-2.81172 -0.0894,-2.81172 0,0 -1.9679,-1.64899 -2.019,-1.64899 -0.0511,0 -1.02245,-0.98414 -1.43143,-1.29088 -0.40898,-0.30673 -1.11228,0.66466 -1.5596,0.57516 -0.44732,-0.0895 -0.94542,0.31971 -1.30328,0.44752 -0.35786,0.12781 -0.66491,-2.1473 -0.79271,-2.68408 -0.1278,-0.53679 -1.71227,-0.63902 -2.019,-0.71572 -0.30673,-0.0767 0.3576,-4.48622 0.3576,-4.74183 0,-0.2556 0.92041,-0.1018 1.35495,-0.1018 0.43454,0 -0.20463,-9.94376 -0.20463,-10.19938 0,-0.2556 -5.00991,-9.09978 -5.18884,-9.20202 -0.17893,-0.10225 -0.53684,-0.35753 -0.43459,-0.971 0.10224,-0.61347 -0.28112,-2.78613 -0.28112,-4.90771 0,-2.12157 -0.89479,-2.70951 -1.25264,-3.57859 -0.35786,-0.86908 -3.75739,-2.04484 -3.75739,-2.04484 0,0 -1.07346,-1.25244 -1.61024,-1.71255 -0.53679,-0.4601 -5.08659,0.28112 -5.18883,0.28112 -0.10225,0 -3.22074,2.60707 -3.57859,2.60707 -0.35786,0 -4.47331,1.96818 -4.72892,2.42828 -0.2556,0.4601 -2.24953,0.30666 -2.68407,0.22996 -0.43454,-0.0767 0.0766,-0.10194 -0.10232,-1.35444 -0.17893,-1.2525 -0.89453,-1.15046 -1.61024,-1.68724 -0.71572,-0.53678 -2.76062,0.1788 -2.86287,0.1788 -0.10224,0 -1.07351,1.43183 -1.32912,1.61076 -0.25561,0.17893 -2.14716,-0.81822 -2.86287,-1.07384 -0.71571,-0.25561 0.28104,-5.08657 0.1788,-5.52111 -0.10225,-0.43454 2.86288,-0.10214 3.57859,-0.56224 0.71572,-0.4601 -0.99662,-4.11557 -1.07332,-4.55011 -0.0767,-0.4345 -2.50515,-0.0764 -3.39979,0.0258 -0.89464,0.10225 -0.71585,-1.09909 -0.53692,-1.71256 0.17893,-0.61347 -2.42828,-1.25297 -3.14399,-1.71307 -0.71572,-0.4601 0.81821,-0.6134 1.07383,-0.6134 0.25561,0 4.31952,-7.87245 4.49844,-8.30699 0.17893,-0.43454 3.29747,-1.86603 3.29747,-1.86603 0,0 1.35496,-1.35465 1.35496,-1.99368 0,-0.63903 -4.39676,-0.15348 -4.93355,-0.15348 -0.53678,0 -8.2307,8.48644 -8.48631,9.02322 -0.25561,0.53679 -4.93303,1.71256 -4.93303,1.71256 0,0 0.53632,3.93619 0.43408,3.93619 -0.10225,0 -1.25249,0.33228 -1.76371,0.33228 -0.51123,0 -4.21751,-4.90785 -4.47312,-5.44463 -0.25561,-0.53678 -2.96486,-1.27773 -3.22047,-1.35443 -0.25561,-0.0767 -2.53086,0.0765 -2.88871,0.0765 -0.35786,0 -4.191864,-4.19207 -4.370792,-4.29431 -0.178928,-0.10225 -5.112221,-10.01981 -5.29115,-10.37767 -0.178928,-0.35785 -3.936194,-1.04799 -3.936194,-1.04799 z m 60.0847,116.46059 c 0.0223,-5.6e-4 0.044,-5.7e-4 0.0646,0 0.0412,0.001 0.0788,0.004 0.11214,0.008 0.0334,0.004 0.0624,0.009 0.0863,0.014 0.0239,0.005 0.0426,0.009 0.0553,0.0129 0.0127,0.003 0.0196,0.006 0.0196,0.006 l 2.9099,1.77095 c 0,0 0.0664,0.0194 0.1664,0.0522 0.05,0.0164 0.10856,0.0359 0.17104,0.0584 0.0625,0.0225 0.12921,0.0478 0.19586,0.0749 0.0333,0.0136 0.0664,0.0274 0.0992,0.0419 0.0328,0.0145 0.0654,0.0293 0.0966,0.0444 0.0312,0.0152 0.0613,0.0308 0.0899,0.0465 0.0286,0.0157 0.0556,0.032 0.0806,0.0481 0.025,0.0161 0.0479,0.0323 0.0682,0.0486 0.0102,0.008 0.0196,0.0161 0.0284,0.0243 0.009,0.008 0.017,0.0161 0.0243,0.0243 0.007,0.008 0.014,0.0167 0.0196,0.0248 0.006,0.008 0.0101,0.0162 0.014,0.0243 0.004,0.008 0.007,0.0158 0.009,0.0238 0.002,0.008 0.003,0.0164 0.003,0.0243 0,0.004 -0.002,0.009 -0.006,0.0165 -0.004,0.007 -0.009,0.0168 -0.0155,0.0274 -0.0139,0.0212 -0.0346,0.0485 -0.0615,0.0822 -0.0269,0.0337 -0.0601,0.0736 -0.0992,0.11886 -0.0391,0.0452 -0.084,0.096 -0.13436,0.15193 -0.1007,0.11194 -0.22323,0.24458 -0.3638,0.39429 -0.14058,0.1497 -0.29937,0.31652 -0.47284,0.49712 -0.17347,0.18061 -0.3613,0.37466 -0.56069,0.5793 -0.19939,0.20463 -0.41006,0.4195 -0.62839,0.6413 -0.21832,0.2218 -0.44461,0.45055 -0.67489,0.68265 -0.23028,0.2321 -0.46445,0.46778 -0.6997,0.70331 -0.23525,0.23554 -0.47162,0.47122 -0.70487,0.70332 -0.23324,0.2321 -0.46356,0.46085 -0.68781,0.68265 -0.22425,0.2218 -0.44232,0.43667 -0.65061,0.6413 -0.20828,0.20464 -0.40687,0.39869 -0.59221,0.57929 -0.18533,0.18061 -0.35723,0.34742 -0.51263,0.49713 -0.1554,0.14971 -0.2944,0.28235 -0.41289,0.39429 -0.11849,0.11194 -0.21634,0.20347 -0.29094,0.27079 -0.0373,0.0336 -0.069,0.061 -0.0941,0.0822 -0.025,0.0212 -0.0434,0.036 -0.0553,0.0439 -0.006,0.004 -0.0116,0.008 -0.0171,0.0134 -0.005,0.005 -0.0105,0.0107 -0.0155,0.0165 -0.01,0.0118 -0.0193,0.0249 -0.0274,0.0403 -0.008,0.0154 -0.0153,0.0329 -0.0217,0.0517 -0.006,0.0188 -0.0118,0.039 -0.0165,0.061 -0.005,0.022 -0.009,0.0454 -0.0124,0.0703 -0.003,0.0249 -0.006,0.0514 -0.008,0.0791 -0.002,0.0277 -0.003,0.0566 -0.004,0.0868 -5.9e-4,0.0302 -6e-4,0.0615 0,0.094 0.001,0.065 0.005,0.1348 0.0103,0.20774 0.005,0.0729 0.0126,0.14932 0.0212,0.22841 0.009,0.0791 0.0184,0.16094 0.0295,0.24443 0.0111,0.0835 0.0235,0.16863 0.0362,0.25477 0.0254,0.17227 0.0532,0.34807 0.0801,0.52038 0.0134,0.0862 0.0262,0.17124 0.0388,0.25476 0.0125,0.0835 0.0249,0.16529 0.0357,0.24443 0.0108,0.0791 0.0202,0.15592 0.0284,0.22893 0.008,0.073 0.0153,0.14262 0.0202,0.20774 0.002,0.0326 0.004,0.0638 0.006,0.0941 0.001,0.0302 0.002,0.0591 0.003,0.0868 2.8e-4,0.0277 -1e-4,0.0546 -0.001,0.0796 -9.3e-4,0.025 -0.002,0.0482 -0.005,0.0703 -0.002,0.022 -0.004,0.0445 -0.005,0.0677 -7.8e-4,0.0232 -10e-4,0.0471 -5.2e-4,0.0713 6.2e-4,0.0242 0.002,0.0492 0.004,0.0744 0.002,0.0252 0.005,0.0504 0.008,0.0765 0.003,0.0261 0.007,0.0527 0.0114,0.0796 0.004,0.0268 0.009,0.0541 0.0145,0.0816 0.0109,0.055 0.024,0.11128 0.0388,0.16847 0.0148,0.0572 0.0311,0.11557 0.0491,0.17415 0.018,0.0586 0.0378,0.11753 0.0584,0.17673 0.0206,0.0592 0.0425,0.11818 0.0651,0.17725 0.0226,0.0591 0.0458,0.11804 0.0698,0.17622 0.024,0.0582 0.0486,0.11555 0.0734,0.17208 0.0248,0.0565 0.0495,0.11228 0.0744,0.1664 0.0497,0.10823 0.0993,0.21085 0.14573,0.30489 0.0465,0.094 0.09,0.17943 0.12816,0.25321 0.0382,0.0738 0.0708,0.13601 0.0956,0.18346 0.006,0.0119 0.0147,0.0237 0.0253,0.0362 0.0106,0.0124 0.0235,0.0253 0.0382,0.0382 0.0147,0.013 0.0315,0.0263 0.0501,0.0398 0.0186,0.0134 0.0393,0.0269 0.0615,0.0408 0.0222,0.0139 0.0462,0.0281 0.0718,0.0424 0.0256,0.0143 0.0529,0.0288 0.0816,0.0434 0.0574,0.0292 0.12079,0.0587 0.18914,0.0889 0.0683,0.0302 0.14138,0.0611 0.21859,0.092 0.0772,0.0309 0.15834,0.0619 0.24236,0.093 0.084,0.0311 0.17115,0.0625 0.25993,0.0935 0.0888,0.031 0.17929,0.0615 0.27079,0.092 0.0915,0.0305 0.18378,0.0608 0.27595,0.0904 0.0922,0.0296 0.18412,0.0585 0.27492,0.0868 0.18159,0.0566 0.35865,0.11054 0.52245,0.15968 0.1638,0.0491 0.31427,0.0937 0.4439,0.13229 0.12963,0.0385 0.23821,0.0707 0.31729,0.0956 0.0198,0.006 0.0391,0.0121 0.0579,0.0171 0.0188,0.005 0.0369,0.009 0.0548,0.0129 0.0179,0.004 0.0357,0.007 0.0527,0.009 0.017,0.003 0.0334,0.005 0.0496,0.006 0.0162,10e-4 0.0321,0.002 0.0476,0.003 0.0154,4.7e-4 0.0303,5e-4 0.045,0 0.0293,-9.8e-4 0.057,-0.004 0.0837,-0.008 0.0267,-0.004 0.0526,-0.0102 0.077,-0.0176 0.0244,-0.007 0.0478,-0.0165 0.0703,-0.0264 0.0225,-0.01 0.0436,-0.0207 0.0646,-0.0326 0.0209,-0.0118 0.0412,-0.0245 0.061,-0.0377 0.0198,-0.0133 0.0394,-0.0271 0.0584,-0.0413 0.019,-0.0142 0.0373,-0.0287 0.0558,-0.0434 0.0371,-0.0293 0.0741,-0.0592 0.11162,-0.0873 0.0188,-0.014 0.0374,-0.0278 0.0568,-0.0408 0.0195,-0.013 0.0394,-0.0253 0.06,-0.0367 0.0205,-0.0114 0.0416,-0.0216 0.0636,-0.031 0.0219,-0.009 0.045,-0.0175 0.0687,-0.0243 0.0237,-0.007 0.0476,-0.0117 0.0718,-0.015 0.0242,-0.003 0.0487,-0.005 0.0734,-0.005 0.0247,-1.3e-4 0.0498,0.001 0.0749,0.004 0.0251,0.003 0.05,0.007 0.0754,0.0119 0.0254,0.005 0.0513,0.0113 0.077,0.0186 0.0257,0.007 0.0512,0.0152 0.077,0.0243 0.0259,0.009 0.0516,0.019 0.0775,0.0294 0.0259,0.0105 0.052,0.022 0.078,0.0336 0.052,0.0232 0.10386,0.0479 0.15555,0.0734 0.0517,0.0255 0.10316,0.0515 0.15399,0.0765 0.0508,0.025 0.10096,0.049 0.15038,0.0708 0.0247,0.0109 0.0496,0.0209 0.0739,0.0305 0.0242,0.01 0.0481,0.0185 0.0718,0.0264 0.006,0.002 0.0116,0.005 0.0171,0.008 0.006,0.003 0.011,0.006 0.016,0.0103 0.0101,0.008 0.0194,0.0174 0.0279,0.0289 0.008,0.0116 0.0163,0.0253 0.0233,0.0403 0.007,0.015 0.0131,0.0314 0.0186,0.0496 0.005,0.0182 0.01,0.0383 0.014,0.0594 0.004,0.0212 0.008,0.0438 0.0103,0.0677 0.003,0.0239 0.005,0.0491 0.007,0.0754 0.002,0.0263 0.002,0.0536 0.003,0.0822 4.3e-4,0.0286 6.3e-4,0.0584 0,0.0889 -6.3e-4,0.0305 -0.002,0.0618 -0.004,0.094 -0.003,0.0645 -0.008,0.13214 -0.0145,0.20205 -0.007,0.0699 -0.015,0.14213 -0.0243,0.21549 -0.009,0.0734 -0.0197,0.14789 -0.031,0.22273 -0.0113,0.0748 -0.0235,0.14993 -0.0362,0.22428 -0.0127,0.0744 -0.0254,0.14825 -0.0388,0.22014 -0.0267,0.14378 -0.0542,0.28041 -0.0796,0.40256 -0.0254,0.12214 -0.0489,0.22943 -0.0677,0.31419 -0.0188,0.0848 -0.033,0.14717 -0.0398,0.1788 -0.002,0.008 -0.004,0.0147 -0.007,0.0207 -0.003,0.006 -0.007,0.0109 -0.0109,0.015 -0.004,0.004 -0.009,0.007 -0.014,0.01 -0.005,0.002 -0.0112,0.004 -0.0176,0.005 -0.006,7.4e-4 -0.0128,8.1e-4 -0.0202,0 -0.007,-8.2e-4 -0.0155,-0.002 -0.0238,-0.005 -0.0166,-0.005 -0.0352,-0.0118 -0.0553,-0.0217 -0.0201,-0.01 -0.0419,-0.0222 -0.0651,-0.0367 -0.0232,-0.0145 -0.0476,-0.0313 -0.0734,-0.0496 -0.0258,-0.0183 -0.0527,-0.038 -0.0806,-0.0594 -0.0279,-0.0214 -0.0572,-0.044 -0.0868,-0.0677 -0.11862,-0.0949 -0.24879,-0.20571 -0.37672,-0.30851 -0.032,-0.0257 -0.0636,-0.0511 -0.0951,-0.0755 -0.0314,-0.0243 -0.0626,-0.0475 -0.093,-0.0698 -0.0304,-0.0222 -0.0604,-0.0436 -0.0894,-0.0631 -0.029,-0.0194 -0.0571,-0.0369 -0.0842,-0.0527 -0.0271,-0.0158 -0.0567,-0.0317 -0.0879,-0.0475 -0.0312,-0.0158 -0.0639,-0.0318 -0.0987,-0.0475 -0.0348,-0.0158 -0.0714,-0.0313 -0.10955,-0.047 -0.0382,-0.0157 -0.0783,-0.0314 -0.11938,-0.047 -0.0822,-0.0312 -0.16977,-0.0618 -0.26148,-0.0925 -0.0917,-0.0307 -0.18749,-0.061 -0.28577,-0.0909 -0.0983,-0.0299 -0.19888,-0.0599 -0.30076,-0.0889 -0.10188,-0.029 -0.20496,-0.0575 -0.30747,-0.0853 -0.20503,-0.0556 -0.40812,-0.10843 -0.5979,-0.15813 -0.0237,-0.006 -0.0487,-0.012 -0.0749,-0.0176 -0.0262,-0.006 -0.0537,-0.0111 -0.0822,-0.016 -0.0569,-0.01 -0.1182,-0.0183 -0.18294,-0.0258 -0.0647,-0.008 -0.13322,-0.0142 -0.20412,-0.0196 -0.0709,-0.005 -0.14422,-0.01 -0.21963,-0.0134 -0.0754,-0.004 -0.15274,-0.006 -0.23099,-0.008 -0.0782,-0.002 -0.15725,-0.003 -0.23668,-0.004 -0.0794,-6.2e-4 -0.15927,-0.001 -0.23823,-5.2e-4 -0.079,5.2e-4 -0.15727,0.002 -0.23409,0.003 -0.15363,0.003 -0.30153,0.007 -0.43667,0.0124 -0.13513,0.005 -0.25733,0.0103 -0.3607,0.0155 -0.20672,0.0105 -0.33693,0.0196 -0.33693,0.0196 0,0 -0.0508,-0.24292 -0.12816,-0.61599 -0.0774,-0.37306 -0.18113,-0.87656 -0.28732,-1.39733 -0.0531,-0.26038 -0.10694,-0.52474 -0.15813,-0.7798 -0.0512,-0.25505 -0.0999,-0.50036 -0.14314,-0.72191 -0.0432,-0.22156 -0.0809,-0.41942 -0.11007,-0.5793 -0.0146,-0.0799 -0.0268,-0.15056 -0.0367,-0.2098 -0.01,-0.0592 -0.0172,-0.10709 -0.0217,-0.14211 -0.009,-0.07 -0.0281,-0.23022 -0.0538,-0.45682 -0.0257,-0.22661 -0.0583,-0.51983 -0.0956,-0.85577 -0.0746,-0.67186 -0.16698,-1.51516 -0.25735,-2.34094 -0.18074,-1.65155 -0.35243,-3.23288 -0.35243,-3.23288 0,0 -0.007,-0.28953 -0.0145,-0.72812 -0.004,-0.21929 -0.007,-0.47589 -0.0103,-0.75241 -0.003,-0.27651 -0.006,-0.57247 -0.007,-0.87126 -5.7e-4,-0.1494 -7.6e-4,-0.29962 -5.2e-4,-0.44803 2.4e-4,-0.14842 8.3e-4,-0.29516 0.002,-0.43822 0.001,-0.14306 0.003,-0.28266 0.006,-0.416 0.002,-0.13333 0.005,-0.26057 0.009,-0.37982 0.004,-0.11925 0.009,-0.23045 0.0139,-0.33124 0.005,-0.10079 0.0114,-0.19127 0.0186,-0.26924 0.004,-0.039 0.007,-0.0745 0.0114,-0.10697 0.004,-0.0325 0.008,-0.0614 0.0129,-0.0868 0.005,-0.0254 0.009,-0.0473 0.0145,-0.0651 0.005,-0.0178 0.0104,-0.0317 0.016,-0.0413 0.006,-0.01 0.0118,-0.0183 0.0181,-0.0269 0.006,-0.009 0.0132,-0.0168 0.0201,-0.0243 0.007,-0.008 0.0142,-0.0142 0.0217,-0.0207 0.008,-0.007 0.0152,-0.013 0.0233,-0.0186 0.008,-0.006 0.0162,-0.0103 0.0248,-0.015 0.009,-0.005 0.0177,-0.009 0.0269,-0.0129 0.0183,-0.008 0.0378,-0.0136 0.0579,-0.0181 0.0201,-0.004 0.0408,-0.007 0.0625,-0.009 0.0217,-0.002 0.0441,-0.002 0.0672,-0.001 0.0231,8.6e-4 0.0471,0.003 0.0713,0.006 0.0242,0.003 0.0488,0.007 0.0739,0.0119 0.0251,0.005 0.0507,0.0103 0.0765,0.0165 0.0258,0.006 0.0518,0.0133 0.078,0.0207 0.0524,0.0147 0.10546,0.0315 0.15813,0.0486 0.0527,0.0171 0.10505,0.0345 0.15607,0.0512 0.051,0.0167 0.10086,0.0324 0.14831,0.046 0.0119,0.003 0.0241,0.006 0.0372,0.008 0.0131,0.002 0.0267,0.003 0.0408,0.003 0.0142,2.7e-4 0.0292,-3.9e-4 0.0444,-0.002 0.0152,-0.001 0.0309,-0.003 0.047,-0.005 0.0161,-0.002 0.0326,-0.006 0.0496,-0.009 0.017,-0.004 0.0344,-0.008 0.0522,-0.0129 0.0356,-0.01 0.0728,-0.0216 0.1111,-0.0351 0.0383,-0.0136 0.0776,-0.0288 0.11782,-0.0455 0.0403,-0.0167 0.0814,-0.0347 0.12299,-0.0537 0.0416,-0.0191 0.0838,-0.0393 0.1261,-0.06 0.0423,-0.0206 0.0848,-0.0416 0.12712,-0.063 0.0847,-0.0429 0.16913,-0.0866 0.25011,-0.12816 0.081,-0.0415 0.15846,-0.0808 0.23048,-0.11472 0.036,-0.017 0.0706,-0.0326 0.10335,-0.0465 0.0328,-0.0139 0.0641,-0.0262 0.093,-0.0362 0.0289,-0.01 0.0557,-0.0179 0.0801,-0.0233 0.0122,-0.003 0.0237,-0.005 0.0346,-0.006 0.0109,-0.001 0.0214,-0.002 0.031,-0.002 0.01,0 0.0193,-9e-4 0.0294,-0.003 0.0101,-0.002 0.0204,-0.004 0.031,-0.007 0.0106,-0.003 0.0215,-0.008 0.0326,-0.0124 0.0111,-0.005 0.0226,-0.0104 0.0341,-0.0165 0.0231,-0.0124 0.0466,-0.027 0.0713,-0.0444 0.0247,-0.0174 0.0503,-0.0372 0.0765,-0.0589 0.0261,-0.0217 0.0527,-0.0455 0.0801,-0.0708 0.0274,-0.0253 0.0553,-0.0524 0.0837,-0.0806 0.0568,-0.0563 0.11583,-0.11761 0.1757,-0.18087 0.0599,-0.0633 0.12106,-0.1285 0.18242,-0.19275 0.0307,-0.0321 0.0612,-0.0638 0.092,-0.0951 0.0308,-0.0313 0.0613,-0.0623 0.092,-0.092 0.0306,-0.0297 0.0611,-0.058 0.0915,-0.0853 0.0303,-0.0273 0.0606,-0.0533 0.0904,-0.0775 0.0298,-0.0242 0.0592,-0.0468 0.0884,-0.0672 0.0291,-0.0204 0.0581,-0.039 0.0863,-0.0548 0.0283,-0.0158 0.0562,-0.03 0.0842,-0.0429 0.028,-0.0128 0.0562,-0.024 0.0837,-0.0341 0.0276,-0.0101 0.0548,-0.0192 0.0817,-0.0269 0.0269,-0.008 0.0535,-0.0141 0.0796,-0.0196 0.0261,-0.006 0.0515,-0.01 0.0765,-0.0134 0.025,-0.004 0.0496,-0.006 0.0734,-0.008 0.0237,-0.002 0.0464,-0.003 0.0687,-0.004 z" /></g><path
         style="display:inline;opacity:0.962779;mix-blend-mode:normal;fill:#000000;fill-opacity:1;stroke:none;stroke-width:0.79375;stroke-dasharray:none;filter:url(#filter90000)"
         d="m 117.6837,190.17523 c 0,0 -9.71325,7.05488 -3.27183,17.48385 6.44142,10.42896 11.04243,10.42896 11.45141,10.42896 0.40898,0 14.72325,-2.04489 14.72325,-3.8853 0,-1.8404 5.7257,-5.00999 7.15713,-5.7257 1.43142,-0.71572 3.98754,-2.86285 4.29428,-5.01 0.30673,-2.14713 4.29428,-3.57856 1.43142,-7.15713 -2.86285,-3.57856 -8.38406,-12.16712 -8.6908,-12.88284 -0.30674,-0.71571 -6.8504,-16.4614 -6.8504,-16.4614 0,0 5.00999,-2.45387 5.72571,-5.7257 0.71571,-3.27184 2.7606,-8.99754 2.14714,-10.42897 -0.61347,-1.43143 -1.32919,-3.98755 -2.76061,-5.00999 -1.43143,-1.02245 -3.68081,-3.47632 -6.13468,-3.8853 -2.45388,-0.40898 -3.57857,-4.70326 -3.57857,-4.70326 0,0 -3.98755,-1.32918 -5.00999,-1.02245 -1.02245,0.30674 -3.16959,1.63592 -3.16959,2.0449 0,0.40898 -16.87038,14.72324 -16.87038,14.72324 0,0 -4.29428,6.33918 1.43142,8.89529 5.72571,2.55612 12.88284,1.84041 13.59855,4.70326 0.71572,2.86285 5.31673,19.32426 2.14714,21.4714 -3.16958,2.14714 -7.7706,2.14714 -7.7706,2.14714 z"
         id="path89998" /><path
         style="display:inline;opacity:0.709677;fill:#000000;fill-opacity:1;stroke:none;stroke-width:0.79375;stroke-dasharray:none;filter:url(#filter90006)"
         d="m 129.26874,194.3369 c 0,0 -44.969327,-0.1446 -54.657252,-10.7001 -9.687925,-10.5555 -14.314995,-34.84761 -4.19328,-38.8963 10.121712,-4.04868 17.062315,-7.80818 31.811092,-4.62707 14.74879,3.18111 45.11393,-7.95277 45.11393,-7.95277 0,0 17.6407,2.31353 14.1704,12.00146 -3.4703,9.68792 -1.87975,23.85832 -3.47031,24.87049 -1.59055,1.01218 0.1446,25.73808 -9.54332,25.73808 -9.68793,0 -19.23126,-0.43379 -19.23126,-0.43379 z"
         id="path90004"
         sodipodi:nodetypes="cssscsssc" /><ellipse
         style="opacity:0.92804;mix-blend-mode:normal;fill:#000000;fill-opacity:1;stroke:#000000;stroke-width:0.915745;stroke-dasharray:none;filter:url(#filter89985)"
         id="path89983"
         cx="78.869888"
         cy="198.96828"
         rx="16.337347"
         ry="15.275715" /><path
         id="path89989"
         style="display:inline;opacity:0.684864;fill:#000000;stroke:none;stroke-width:0.79375;filter:url(#filter89994)"
         d="m 58.438818,156.81005 c -3.479937,2.11617 -2.1872,9.32441 -3.327248,12.15852 -2.68189,6.66709 -6.100245,8.52832 -8.794698,8.52832 -3.839839,0 -6.952643,-10.7346 -6.952643,-23.9764 0,-11.18863 1.917921,-12.1273 8.447633,-16.7897 2.068342,-1.47686 12.146611,-7.95958 16.229758,-5.7076 1.693553,0.93405 8.527761,-2.61763 11.770616,0.0723 1.850805,1.53522 5.410481,0.35873 7.867886,3.17055 0.555895,0.63607 2.358753,4.39166 2.596908,5.12787 2.11258,6.53056 -2.133459,14.94841 -2.003732,14.94841 0.893401,0 -3.753707,5.74476 -7.914183,9.62201 -2.326181,2.16782 -4.500237,3.75185 -5.46872,3.42159 -2.056798,-0.7014 -5.842591,-10.92945 -8.34055,-11.20818 -2.572919,-0.2871 -1.832331,-0.75336 -4.111027,0.63234 z"
         sodipodi:nodetypes="ssssssssssssss" /><path
         style="opacity:0.344913;fill:#a34931;fill-opacity:1;stroke:none;stroke-width:0.79375;stroke-dasharray:none;filter:url(#filter99731)"
         d="m 59.428916,221.95472 c 0,0 -4.19328,6.21762 -7.085197,2.60272 -2.89192,-3.61489 -2.45813,-7.22979 -2.45813,-9.68792 0,-2.45813 3.951952,-20.60167 3.951952,-21.18005 0,-0.38072 2.623919,-1.04689 4.824223,-1.9954 0.301212,1.26259 0.89612,5.04264 1.148959,5.88742 0.240962,0.80511 0.262823,1.3144 0.362304,2.05584 0.763981,-0.17206 0.929743,-0.23186 1.927281,-0.32366 1.384549,-0.12741 -2.671392,22.64105 -2.671392,22.64105 z"
         id="path90014"
         sodipodi:nodetypes="cssscscsc" /><path
         style="display:inline;opacity:0.35483871;mix-blend-mode:normal;fill:#a36648;fill-opacity:1;stroke:none;stroke-width:0.79375;stroke-dasharray:none;filter:url(#filter99727-2)"
         d="m 174.2779,240.06522 -2.64256,0.57662 -17.0696,1.14499 0.44107,-3.02473 -8.31427,-3.43416 -0.36148,-3.79564 c 0,0 6.21762,-6.50682 6.796,-7.08521 0.57839,-0.57838 3.6149,1.7713 3.6149,1.19292 0,-0.18796 1.06181,-0.841 2.30008,-0.61214 2.57197,0.47537 5.9868,2.23956 5.9868,2.23956 5.29213,3.24528 8.42672,-7.15335 10.30284,-5.03663 0.56848,0.64139 2.39698,16.35178 2.39698,16.35178 z"
         id="path97524-5"
         sodipodi:nodetypes="ccccccssscscc" /><path
         style="opacity:0.344913;fill:#a34931;fill-opacity:1;stroke:none;stroke-width:0.79375;stroke-dasharray:none"
         d="m 176.84079,226.58178 c 0,0 -4.48247,5.92844 -7.51898,4.48248 -3.03652,-1.44596 -5.28956,-1.22752 -4.55477,-3.16304 0.37053,-0.97602 0.73555,-0.76169 1.0935,-1.59055 4.04463,-1.86842 9.51815,-5.58411 9.37272,-5.58411 0,0 1.54106,3.05236 1.60753,5.85522 z"
         id="path97522"
         sodipodi:nodetypes="cssccc" /><path
         style="opacity:0.344913;mix-blend-mode:normal;fill:#a36648;fill-opacity:1;stroke:none;stroke-width:0.79375;stroke-dasharray:none;filter:url(#filter99727)"
         d="m 68.104673,236.12511 -9.109544,6.50682 -3.036514,3.03652 -13.592013,-4.91626 -2.602728,-3.03652 1.012172,-6.07303 c 0,0 0.867576,-4.48247 1.445958,-5.06086 0.578385,-0.57838 3.036514,-2.45813 3.036514,-3.03651 0,-0.57838 4.120984,-30.29284 4.120984,-30.29284 l 1.728014,-2.30976 2.535058,0.008 0.256945,2.478 4.770269,-1.83913 1.560547,8.02608 2.384613,-0.57915 1.266292,1.15222 -0.612739,2.24711 -0.934681,1.0061 0.177612,5.42842 -2.359534,9.21642 c 0,0 -3.614897,10.80854 -0.144595,12.3991 3.470301,1.59055 8.097372,5.63923 8.097372,5.63923 z"
         id="path97524"
         sodipodi:nodetypes="ccccccssccccccccccccscc" /></g></g></svg>
