<?xml version="1.0" encoding="UTF-8" standalone="no"?>
<!-- Created with Inkscape (http://www.inkscape.org/) -->

<svg
   width="793.70081"
   height="1122.5197"
   viewBox="0 0 210 296.99999"
   version="1.1"
   id="svg5"
   inkscape:version="1.2.2 (732a01da63, 2022-12-09)"
   sodipodi:docname="instructor_demerit_fail.svg"
   inkscape:export-filename="instructor_demerit_fail.webp"
   inkscape:export-xdpi="96"
   inkscape:export-ydpi="96"
   xmlns:inkscape="http://www.inkscape.org/namespaces/inkscape"
   xmlns:sodipodi="http://sodipodi.sourceforge.net/DTD/sodipodi-0.dtd"
   xmlns="http://www.w3.org/2000/svg"
   xmlns:svg="http://www.w3.org/2000/svg">
  <sodipodi:namedview
     id="namedview7"
     pagecolor="#ffffff"
     bordercolor="#000000"
     borderopacity="0.25"
     inkscape:showpageshadow="2"
     inkscape:pageopacity="0.0"
     inkscape:pagecheckerboard="0"
     inkscape:deskcolor="#d1d1d1"
     inkscape:document-units="px"
     showgrid="false"
     inkscape:zoom="0.45745301"
     inkscape:cx="148.64915"
     inkscape:cy="520.27202"
     inkscape:window-width="2560"
     inkscape:window-height="1377"
     inkscape:window-x="2552"
     inkscape:window-y="-8"
     inkscape:window-maximized="1"
     inkscape:current-layer="layer15"
     showguides="true" />
  <defs
     id="defs2">
    <pattern
       id="EMFhbasepattern"
       patternUnits="userSpaceOnUse"
       width="6"
       height="6"
       x="0"
       y="0" />
    <pattern
       id="EMFhbasepattern-2"
       patternUnits="userSpaceOnUse"
       width="6"
       height="6"
       x="0"
       y="0" />
    <pattern
       id="EMFhbasepattern-0"
       patternUnits="userSpaceOnUse"
       width="6"
       height="6"
       x="0"
       y="0" />
  </defs>
  <rect
     style="opacity:1;fill:#000000;fill-opacity:1;stroke:#000000;stroke-width:0.79375;stroke-dasharray:none;stroke-opacity:1"
     id="rect38695"
     width="70.139893"
     height="33.536278"
     x="84.045181"
     y="134.34959"
     ry="10.360401" />
  <g
     inkscape:groupmode="layer"
     id="layer1"
     inkscape:label="Shoes"
     style="display:inline">
    <path
       style="display:inline;opacity:1;fill:#996633;fill-opacity:1;stroke:#000000;stroke-width:1.32292;stroke-dasharray:none;stroke-opacity:1"
       d="m 122.18354,231.06426 -6.28992,18.14678 c 0,0 5.42235,-0.72298 6.8683,0.2892 1.44596,1.01217 7.13943,2.5485 8.07931,1.60862 0.93987,-0.93987 1.66284,-6.61526 1.66284,-6.61526 0.0917,0 0.40057,7.03098 1.60863,7.53707 2.18432,0.91507 12.88339,0.1245 20.46033,0.21689 8.89264,0.10844 24.97894,-0.83142 26.78638,-1.6267 1.80746,-0.79528 0.25305,-3.03652 0.25305,-3.03652 0,0 -15.25487,-19.3397 -29.49757,-21.87013 -14.24269,-2.53043 -14.17039,-2.16894 -14.17039,-1.73516 0,0.43379 -15.76096,7.08521 -15.76096,7.08521 z"
       id="path2369"
       sodipodi:nodetypes="ccsscssscssc" />
    <path
       style="display:inline;opacity:1;fill:#996633;fill-opacity:1;stroke:#000000;stroke-width:1.32292;stroke-dasharray:none;stroke-opacity:1"
       d="m 98.831302,226.50948 c 0,0 -25.738071,10.19402 -31.883398,30.87123 22.041365,12.67233 43.773786,4.29765 43.957156,1.51826 l 1.15677,-9.03724 0.98586,6.98296 c 0,0 3.84269,-1.2064 3.69082,-5.51069 -0.146,-4.13802 -3.66451,-20.84812 -3.66451,-20.84812 z"
       id="path537"
       sodipodi:nodetypes="cccccscc" />
  </g>
  <g
     inkscape:groupmode="layer"
     id="layer2"
     inkscape:label="Pants"
     style="display:inline">
    <g
       inkscape:groupmode="layer"
       id="layer3"
       inkscape:label="Left">
      <path
         style="display:inline;opacity:1;fill:#000099;fill-opacity:1;stroke:#000000;stroke-width:1.32292;stroke-dasharray:none;stroke-opacity:1"
         d="m 118.42405,186.96251 -0.86758,53.0667 -2.14771,-0.0864 2.07045,3.29739 -1.43142,1.78928 c 0,0 -11.96264,-11.52809 -12.06488,-11.52809 -0.10225,0 -2.70949,-0.7924 -2.70949,-0.7924 0,0 -2.174507,-1.13643 -5.521216,-1.53367 -4.015616,-0.47664 -14.941719,6.48639 -15.812539,7.68515 -0.821332,1.13064 -4.397277,3.83418 -4.397277,3.83418 0,0 2.572599,-3.51868 2.572599,-5.23128 0,-1.7126 4.958868,-13.75191 4.958868,-13.75191 l 2.862853,-1.63592 -2.300505,-8.94642 -1.431427,-0.71571 -4.652137,-12.32049 z"
         id="path4625"
         sodipodi:nodetypes="cccccscsscscccccc" />
      <path
         style="display:inline;opacity:1;fill:#000099;fill-opacity:1;stroke:#000000;stroke-width:1.32292;stroke-dasharray:none;stroke-opacity:1"
         d="m 86.287606,222.20776 c 0,0 12.977484,-4.01253 18.942064,-0.36149"
         id="path4896"
         sodipodi:nodetypes="cc" />
      <path
         style="display:inline;opacity:1;fill:#000099;fill-opacity:1;stroke:#000000;stroke-width:1.32292;stroke-dasharray:none;stroke-opacity:1"
         d="m 108.95302,222.56925 c 0,0 2.78347,1.44596 3.90408,4.44632"
         id="path4950" />
    </g>
    <g
       inkscape:groupmode="layer"
       id="layer4"
       inkscape:label="Right">
      <path
         style="opacity:1;fill:#000099;fill-opacity:1;stroke:#000000;stroke-width:1.32292;stroke-dasharray:none;stroke-opacity:1"
         d="m 119.31962,190.89094 -1.57201,45.99736 -1.43143,3.34851 1.21416,4.20482 c 0,0 1.8878,-3.87019 3.26146,-4.75584 1.37367,-0.88565 4.3357,-1.61682 4.41018,-2.15086 0.0885,-0.63476 15.00825,-8.12807 17.8576,-9.25414 2.26877,-0.89662 2.8142,-1.91108 5.36812,-2.20509 2.53452,-0.29178 5.45849,-0.32534 5.45849,-0.32534 0.20784,-0.24109 -0.2759,-4.9066 -2.53043,-7.28402 -1.10949,-1.16996 5.3383,-11.23168 5.10426,-14.9993 -0.22192,-3.5725 -1.45321,-13.32342 -1.45321,-13.32342 z"
         id="path4952"
         sodipodi:nodetypes="ccccsssscsscc" />
      <path
         style="opacity:1;fill:#000099;fill-opacity:1;stroke:#000000;stroke-width:1.32292;stroke-dasharray:none;stroke-opacity:1"
         d="m 150.81353,217.97833 -13.15823,1.30136"
         id="path4954" />
    </g>
  </g>
  <g
     inkscape:groupmode="layer"
     id="layer8"
     inkscape:label="Clipboard"
     style="display:inline">
    <path
       style="opacity:1;fill:#c9fbfb;fill-opacity:1;stroke:#000000;stroke-width:1.32292;stroke-dasharray:none;stroke-opacity:1"
       d="m 67.526288,211.61611 0.939874,8.09737 c 0,0 -8.386564,0.93987 -15.688656,2.74732 v 2.27739 c 0,0 -1.229065,1.01217 -3.000365,1.26521 -1.7713,0.25304 -3.398004,-0.25304 -4.301728,0.75913 -0.903725,1.01217 -4.193282,1.80745 -6.72371,2.42198 -2.530428,0.61453 -4.554771,1.8436 -5.566942,0.97602 -1.012172,-0.86757 -1.662853,-3.00036 -1.662853,-3.00036 h -7.302094 c 0,0 -1.988193,-0.1446 -1.7713,-1.66285 0.216894,-1.51826 1.373662,-3.00037 0.867576,-3.39801 -0.506086,-0.39764 -6.073028,-1.66285 -6.326071,-2.67502 -0.253043,-1.01217 -1.012171,-2.92807 -0.506086,-3.28956 0.506086,-0.36149 2.421982,-3.57875 2.675025,-5.71154 0.253042,-2.13279 0.668078,-6.06731 0.144595,-6.90445 -0.713057,-1.14029 -1.038875,-7.24983 -0.253042,-9.50718 0.789237,-2.26713 1.626704,-4.30173 1.626704,-4.30173 l 43.77641,3.25341 z"
       id="path12270"
       inkscape:label="Papers"
       sodipodi:nodetypes="ccccssssccsssssssccc" />
    <path
       style="opacity:1;fill:#c9fbfb;fill-opacity:1;stroke:#000000;stroke-width:0.79375;stroke-dasharray:none;stroke-opacity:1"
       d="m 23.695655,222.55813 c 0,0 0.397634,-23.57609 -1.120616,-28.63694"
       id="path12741"
       sodipodi:nodetypes="cc" />
    <path
       style="opacity:1;fill:none;fill-opacity:1;stroke:#000000;stroke-width:0.79375;stroke-dasharray:none;stroke-opacity:1"
       d="m 32.172589,227.66626 c 0.03604,-0.0901 -1.432168,-14.27718 -6.506816,-23.56914 -5.460711,-9.99886 -0.289191,-12.86903 -0.289191,-12.86903"
       id="path12743"
       sodipodi:nodetypes="csc" />
    <path
       style="opacity:1;fill:#986633;fill-opacity:1;stroke:#000000;stroke-width:1.32292;stroke-dasharray:none;stroke-opacity:1"
       d="m 12.217806,180.66948 18.915277,-12.88284 29.140195,35.83377 -17.177117,11.14468 c 0,0 -1.635916,1.3803 -5.009994,-2.55612 -3.374075,-3.93642 -25.919042,-26.63475 -25.919042,-26.63475 -1.029369,-1.82225 -0.943706,-3.3716 0.05068,-4.90474 z"
       id="path12145"
       sodipodi:nodetypes="ccccscc"
       inkscape:label="Board" />
    <path
       id="path12804"
       style="opacity:1;fill:#b7b5b1;fill-opacity:1;stroke:#000000;stroke-width:0.79375;stroke-dasharray:none;stroke-opacity:1"
       d="m 20.098515,167.22132 c -0.638917,-0.003 -1.400636,0.18201 -2.563668,0.56223 -2.658362,0.86908 -1.584916,6.44147 -1.584916,6.44147 0,0 -2.14705,0.92034 -2.709396,2.30064 -0.562346,1.38031 1.073837,2.35127 1.073837,2.35127 l 13.802774,-8.94622 -0.40876,-1.43144 -2.658236,1.94252 c 0,0 -0.715991,-1.22655 -2.505273,-2.30012 -1.00647,-0.60387 -1.624898,-0.91699 -2.446362,-0.92035 z m -0.437183,3.06182 c 0.145452,0.003 0.250631,0.031 0.250631,0.031 1.712598,1.40586 0.331985,2.09875 0.331985,2.09875 0,0 -1.149694,0.9688 -1.405305,-0.74379 -0.183721,-1.23093 0.450977,-1.39259 0.822689,-1.38597 z"
       sodipodi:nodetypes="sscsccccsssccss" />
  </g>
  <g
     inkscape:groupmode="layer"
     id="layer7"
     inkscape:label="LeftHand"
     style="display:inline">
    <path
       style="display:inline;opacity:1;fill:#fecb99;fill-opacity:1;stroke:#000000;stroke-width:1.32292;stroke-dasharray:none;stroke-opacity:1"
       d="m 47.134827,197.4346 c 0,-0.0511 4.652137,11.09356 4.652137,11.09356 l -6.799276,4.95887 c 2.380563,2.40618 4.696793,4.85526 6.083562,7.92397 0,0 2.35163,2.50499 4.140912,0.51122 1.789284,-1.99377 12.116003,-6.23693 12.116003,-6.23693 0,0 4.703258,-0.86908 5.930197,-2.14714 1.226936,-1.27806 3.93642,-1.48255 3.578566,-3.06734 -0.357857,-1.5848 -1.431428,-4.14091 -1.431428,-4.14091 l 2.147139,-2.81173 c 0,0 1.635916,-3.78306 -3.578566,-7.36162 -5.21448,-3.57857 -6.594785,-3.37408 -6.594785,-3.37408 z"
       id="path10070"
       sodipodi:nodetypes="ccccscssccscc" />
    <path
       style="display:inline;opacity:1;fill:#fecb99;fill-opacity:1;stroke:#000000;stroke-width:1.32292;stroke-dasharray:none;stroke-opacity:1"
       d="m 51.76322,208.52816 2.11976,3.93642"
       id="path10686"
       sodipodi:nodetypes="cc" />
    <path
       style="display:inline;opacity:1;fill:#fecb99;fill-opacity:1;stroke:#000000;stroke-width:0.79375;stroke-dasharray:none;stroke-opacity:1"
       d="m 72.287035,194.57175 c 0.943986,3.69785 0.225794,7.95805 2.862853,11.6559"
       id="path10688"
       sodipodi:nodetypes="cc" />
  </g>
  <g
     inkscape:groupmode="layer"
     id="layer11"
     inkscape:label="Tie"
     style="display:inline">
    <path
       style="opacity:1;fill:#fd0000;fill-opacity:1;stroke:#000000;stroke-width:0.79375;stroke-dasharray:none;stroke-opacity:1"
       d="m 110.00134,147.88546 11.42307,-0.90372 7.92735,6.23924 -13.1328,13.4981 -10.17594,-11.15196 c 1.30069,-2.66473 2.71924,-4.988 3.95832,-7.68166 z"
       id="path23585"
       sodipodi:nodetypes="cccccc" />
    <path
       style="display:inline;opacity:1;fill:#fd0000;fill-opacity:1;stroke:#000000;stroke-width:0.79375;stroke-dasharray:none;stroke-opacity:1"
       d="m 106.42259,145.46348 c 0,0 8.41017,6.96896 10.26631,7.26595 1.87974,0.30076 2.67502,0.11421 3.28955,-0.39764 0.61171,-0.5095 8.35042,-8.45886 8.35042,-8.45886 l -7.44669,-8.38657 -8.20582,-0.14459 z"
       id="path22762"
       sodipodi:nodetypes="csscccc" />
  </g>
  <g
     inkscape:groupmode="layer"
     id="layer10"
     inkscape:label="Shirt"
     style="display:inline;opacity:1">
    <path
       style="display:inline;opacity:1;fill:#cbfdfd;fill-opacity:1;stroke:#000000;stroke-width:0.79375;stroke-dasharray:none;stroke-opacity:1"
       d="m 97.09615,139.24586 c 0,0 1.735151,9.10954 8.09737,10.4109 0,0 7.3021,-10.4832 12.65214,-12.43524 5.35005,-1.95205 -8.31426,-6.79601 -8.31426,-6.79601 z"
       id="path19168" />
    <path
       style="opacity:1;fill:#cbfdfd;fill-opacity:1;stroke:#000000;stroke-width:0.79375;stroke-dasharray:none;stroke-opacity:1"
       d="m 128.76266,147.41553 c 0,0 -4.48247,-5.63925 -12.29065,-10.9893 -7.80818,-5.35004 16.70082,-4.08483 16.70082,-4.08483 l 2.53043,9.36259 z"
       id="path19776"
       sodipodi:nodetypes="csccc" />
  </g>
  <g
     inkscape:groupmode="layer"
     id="layer15"
     inkscape:label="Face"
     style="display:inline">
    <path
       style="display:inline;opacity:1;fill:#ffcc99;fill-opacity:1;stroke:#000000;stroke-width:1.32292;stroke-dasharray:none;stroke-opacity:1"
       d="m 99.337388,139.10126 c 0,0 -2.81962,1.30137 -5.060857,0.50609 -2.241236,-0.79528 -2.747323,-4.04869 -2.747323,-4.04869 L 88.275802,98.108322 c 0,0 -2.819622,1.73515 -5.35005,-0.506085 -2.530427,-2.241238 -0.506084,-8.603456 -0.506084,-8.603456 0,0 0.506084,-2.53043 2.530427,-2.53043 2.024343,0 6.073029,3.759494 6.073029,3.759494 0,0 -0.216895,-8.169667 3.036514,-10.627799 0.770524,-0.582174 1.923932,-4.393168 5.498499,-4.955066 11.518433,-1.810622 27.324773,1.34017 27.324773,1.34017 l 1.15677,20.42417 5.09502,33.14931 -15.96222,6.12015 -7.92397,3.32295 z"
       id="path28183"
       sodipodi:nodetypes="csccscscsscccccc" />
    <path
       style="opacity:1;fill:#ffcc99;fill-opacity:1;stroke:#000000;stroke-width:0.79375;stroke-dasharray:none;stroke-opacity:1"
       d="m 92.020272,112.36698 c 0,0 0.918748,4.28577 3.846815,4.79185"
       id="path28185" />
    <g
       inkscape:groupmode="layer"
       id="layer16"
       inkscape:label="Glasses"
       style="display:inline;opacity:1">
      <path
         style="display:inline;opacity:1;fill:#000065;fill-opacity:1;stroke:#000000;stroke-width:0.79375;stroke-dasharray:none;stroke-opacity:1"
         d="m 87.725993,87.930481 c 0,0 0.435985,-3.286487 1.738161,-4.396523 0.874174,-0.745189 7.514987,-0.434541 7.514987,-0.434541 0,0 0.817959,-4.779941 3.220709,-5.035553 2.40275,-0.255611 13.39406,0.357857 13.39406,0.357857 l 7.87285,6.850396 -8.79305,10.377842 -13.598551,0.153368 c 0,0 -2.147141,-0.306734 -2.147141,-3.169586 0,-2.862853 -0.562345,-6.288053 -0.562345,-6.288053 0.03294,0.06589 -1.910109,-0.548385 -3.731932,-0.204489 -1.788826,0.337667 -1.354745,4.703257 -1.354745,4.703257 z"
         id="path28985"
         sodipodi:nodetypes="cscsccccscscc" />
      <path
         style="display:inline;opacity:1;fill:#ccffcc;fill-opacity:1;stroke:#000000;stroke-width:0.79375;stroke-dasharray:none;stroke-opacity:1"
         d="m 99.73975,92.991598 c 0,0 -1.94265,-2.504999 -1.584793,-5.725708 0.357857,-3.220709 1.584793,-5.930194 1.584793,-5.930194 0,0 0.86908,-2.300507 3.22071,-1.584793 2.35163,0.715711 5.21448,0.204489 5.21448,0.204489 0,0 3.83418,0.511222 4.60101,2.300507 0.76684,1.789282 -0.51122,11.604778 -0.51122,11.604778 0,0 0.15337,1.533671 -2.86285,1.482548 -3.01622,-0.05112 -8.43519,-1.124691 -9.66213,-2.351627 z"
         id="path31941" />
      <path
         style="display:inline;opacity:1;fill:#ccffcc;fill-opacity:1;stroke:#000000;stroke-width:0.79375;stroke-dasharray:none;stroke-opacity:1"
         d="m 112.67371,91.15119 c 0,0 -7.7706,1.124694 -10.42896,-1.738159"
         id="path36975" />
    </g>
    <path
       style="display:inline;opacity:1;fill:#ffcc99;fill-opacity:1;stroke:#000000;stroke-width:0.79375;stroke-dasharray:none;stroke-opacity:1"
       d="m 113.50779,94.493425 c 0,0 -1.80745,-3.759493 0.72298,-5.566941 2.53043,-1.807451 5.56694,-1.012172 5.56694,-1.012172 0,0 4.48247,4.048683 0.21689,5.566942 -4.26558,1.518256 -6.50681,1.012171 -6.50681,1.012171 z"
       id="path28189"
       inkscape:label="Nose" />
    <path
       style="opacity:1;fill:#ffcc99;fill-opacity:1;stroke:#000000;stroke-width:0.79375;stroke-dasharray:none;stroke-opacity:1"
       d="m 94.565723,110.47127 c 0,0 9.109537,-16.15859 17.496107,-16.15859 8.38656,0 5.3139,1.554407 5.3139,1.554407"
       id="path28187"
       sodipodi:nodetypes="csc"
       inkscape:label="Mouth" />
    <path
       style="opacity:1;fill:none;fill-opacity:1;stroke:#000000;stroke-width:0.79375;stroke-dasharray:none;stroke-opacity:1"
       d="m 109.04402,103.82954 c 0,0 2.35163,-3.01622 5.01,-1.78928"
       id="path28252" />
    <path
       style="opacity:1;fill:none;fill-opacity:1;stroke:#000000;stroke-width:0.79375;stroke-dasharray:none;stroke-opacity:1"
       d="m 122.43658,133.42588 c 0,0 -6.72371,1.12061 -8.49501,0.75913"
       id="path28254"
       sodipodi:nodetypes="cc" />
    <path
       style="opacity:1;fill:none;fill-opacity:1;stroke:#000000;stroke-width:0.79375;stroke-dasharray:none;stroke-opacity:1"
       d="m 88.796992,97.393257 c 0,0 1.82233,-0.40641 2.691413,-1.684469"
       id="path28256"
       sodipodi:nodetypes="cc" />
    <path
       style="opacity:1;fill:#b7b7b8;fill-opacity:1;stroke:#000000;stroke-width:0.79375;stroke-dasharray:none;stroke-opacity:1"
       d="m 109.50412,77.910496 c 0,0 -11.451409,-0.920202 -13.598547,-3.067341 -2.147142,-2.147141 -7.51499,-9.355394 -8.58856,-9.508763 -1.073571,-0.153365 -3.016221,-2.249384 -7.157133,-1.380304 -4.140912,0.869082 5.981319,-4.498769 8.435192,-4.140912 2.453875,0.357857 3.016221,1.431428 3.016221,1.431428 0,0 9.662127,9.150902 10.377837,9.304271 0.71572,0.153368 10.37785,1.94265 10.37785,1.94265 z"
       id="path36977" />
  </g>
  <g
     inkscape:groupmode="layer"
     id="layer13"
     inkscape:label="RightHand"
     style="display:inline;opacity:1">
    <path
       style="opacity:1;fill:#ffcc99;fill-opacity:1;stroke:#000000;stroke-width:1.32292;stroke-dasharray:none;stroke-opacity:1"
       d="m 130.28091,120.44839 -17.13461,-15.90555 5.78383,-17.496104 c 0,0 0.65068,-1.012172 -0.36149,-2.530428 -1.01217,-1.518258 -5.78383,-5.494644 -7.95277,-6.470668 -2.16894,-0.976022 -10.15786,-5.566942 -10.15786,-5.566942 0,0 -1.879751,-0.831427 -1.879751,-2.747322 0,-1.915896 -0.68683,-5.964582 0.361489,-6.976753 1.048322,-1.012171 5.458502,-3.289557 9.001092,-2.277385 3.5426,1.012171 4.01254,2.13279 4.41018,1.771301 0.39764,-0.36149 1.87975,-6.145327 5.45849,-6.542966 3.57875,-0.39764 5.71154,1.879748 5.96459,1.373661 0.25304,-0.506085 0.72297,-3.904089 5.42234,-3.398004 4.69937,0.506087 4.91626,0.867576 5.81999,1.879748 0.90372,1.012171 11.89301,25.304284 11.89301,25.304284 0,0 1.6267,3.036512 -0.25304,5.819984 -1.87975,2.783472 -4.58733,4.005844 -3.00253,11.520834 1.58479,7.51499 2.86285,7.36162 2.86285,7.36162 0,0 -16.16358,14.93589 -16.23581,14.88069 z"
       id="path25049" />
    <path
       style="opacity:1;fill:#ffcc99;fill-opacity:1;stroke:#000000;stroke-width:0.79375;stroke-dasharray:none;stroke-opacity:1"
       d="m 112.02167,62.548695 c 1.07169,0.54487 5.8212,4.360824 6.68756,5.422344 1.26438,1.549204 9.47504,9.785409 9.47504,9.785409"
       id="path25981"
       sodipodi:nodetypes="csc" />
    <path
       style="opacity:1;fill:#ffcc99;fill-opacity:1;stroke:#000000;stroke-width:0.79375;stroke-dasharray:none;stroke-opacity:1"
       d="m 123.6295,57.151531 c 0,0 7.80818,7.84433 12.76059,18.472129"
       id="path25983" />
    <path
       style="opacity:1;fill:#ffcc99;fill-opacity:1;stroke:#000000;stroke-width:0.79375;stroke-dasharray:none;stroke-opacity:1"
       d="m 129.74858,86.243442 c 0,0 4.65214,-4.601011 12.32049,-4.089789"
       id="path25985" />
    <path
       style="opacity:1;fill:#ffcc99;fill-opacity:1;stroke:#000000;stroke-width:0.79375;stroke-dasharray:none;stroke-opacity:1"
       d="m 122.64257,102.78153 c 0,0 6.89188,0.0919 8.51188,-0.33229 1.09788,-0.28745 4.99746,-0.65056 4.16647,-0.71571"
       id="path25987"
       sodipodi:nodetypes="csc" />
    <path
       style="opacity:1;fill:#ffcc99;fill-opacity:1;stroke:#000000;stroke-width:0.79375;stroke-dasharray:none;stroke-opacity:1"
       d="m 143.23359,91.568991 -6.22897,8.961309"
       id="path25989"
       sodipodi:nodetypes="cc" />
  </g>
  <g
     inkscape:groupmode="layer"
     id="layer14"
     inkscape:label="Sleeve"
     style="display:inline">
    <path
       style="display:inline;opacity:1;fill:#cbfdfd;fill-opacity:1;stroke:#000000;stroke-width:0.79375;stroke-dasharray:none;stroke-opacity:1"
       d="m 127.20826,128.61806 -6.14534,-6.43452 c -0.93451,-0.73426 12.69181,-23.351576 17.09847,-23.287205 4.05405,0.05922 3.78444,4.900095 3.78444,5.189285 0,0.28919 -14.73757,24.53244 -14.73757,24.53244 z"
       id="path19778"
       sodipodi:nodetypes="ccssc"
       inkscape:label="path19778" />
    <ellipse
       style="display:inline;opacity:1;fill:#d0cfce;fill-opacity:1;stroke:#000000;stroke-width:0.79375;stroke-dasharray:none;stroke-opacity:1"
       id="path20315"
       cx="123.7289"
       cy="121.50575"
       rx="2.0514543"
       ry="2.0876033" />
  </g>
  <g
     inkscape:groupmode="layer"
     id="layer5"
     inkscape:label="Jacket"
     style="display:inline">
    <g
       inkscape:groupmode="layer"
       id="layer6"
       inkscape:label="Left"
       style="display:inline">
      <path
         style="opacity:1;fill:#000099;fill-opacity:1;stroke:#000000;stroke-width:1.32292;stroke-dasharray:none;stroke-opacity:1"
         d="m 112.72483,211.05872 6.87596,-15.02998 -4.42208,-33.76633 -18.119462,-22.19702 c -2.666544,-0.0584 -5.018763,-0.75594 -5.457742,-4.21753 L 89.504865,112.9294 c 0,0 -0.542234,0.86758 -3.687193,-0.39764 -3.144962,-1.26521 -6.326071,-1.15676 -6.326071,-1.15676 0,0 -0.795279,2.13279 -4.446326,1.87974 -3.651046,-0.25304 -7.44669,-2.49428 -7.44669,-2.49428 0,0 -0.903724,-0.65068 -2.277385,-0.65068 -1.373661,0 -3.289556,-2.13279 -3.289556,-2.13279 0,0 -1.735151,-0.83142 -3.651046,0.2169 -1.915896,1.04832 -3.687197,4.44632 -3.687197,4.44632 h -5.675389 l -0.108447,3.6872 -7.229795,11.85686 -16.664678,22.8823 c 0,0 -3.18111,8.96495 -0.542235,15.29102 2.638875,6.32607 3.904089,10.23016 3.904089,10.23016 l 5.856134,20.78566 c 0,0 0.867576,2.13279 3.398004,2.13279 2.53043,0 17.459957,0.75913 17.459957,0.75913 l 9.323149,-1.65491 8.588558,-3.8853 0.345361,1.26626 c 4.605561,3.14039 5.61901,5.69653 3.673346,8.72309 5.246199,2.16726 13.614898,3.23575 18.219527,6.42093 z"
         id="path7869"
         sodipodi:nodetypes="ccccccscscscscccccsccsccccccc" />
      <path
         style="opacity:1;fill:#000099;fill-opacity:1;stroke:#000000;stroke-width:1.32292;stroke-dasharray:none;stroke-opacity:1"
         d="m 72.876338,194.77069 5.596506,-4.72327 c 0,0 1.303621,-0.83074 0.984104,-2.13436 -0.319516,-1.30362 -14.02031,-28.20677 -14.02031,-28.20677 l 0.613468,-15.02997"
         id="path8599" />
      <path
         style="opacity:1;fill:#000099;fill-opacity:1;stroke:#000000;stroke-width:0.79375;stroke-dasharray:none;stroke-opacity:1"
         d="m 42.482693,171.41332 c 0,0 12.93396,-12.01376 23.107311,-12.01376"
         id="path8601"
         sodipodi:nodetypes="cc" />
      <path
         style="opacity:1;fill:#000099;fill-opacity:1;stroke:#000000;stroke-width:0.79375;stroke-dasharray:none;stroke-opacity:1"
         d="m 40.846777,164.25618 c 0,0 14.825487,-4.60101 23.976393,-5.16336"
         id="path8603" />
      <path
         style="opacity:1;fill:#000099;fill-opacity:1;stroke:#000000;stroke-width:0.79375;stroke-dasharray:none;stroke-opacity:1"
         d="m 51.633596,155.1564 c 0,0 10.428964,0.92021 13.956408,3.57857"
         id="path8605" />
      <path
         style="opacity:1;fill:#000099;fill-opacity:1;stroke:#000000;stroke-width:1.32292;stroke-dasharray:none;stroke-opacity:1"
         d="m 52.553801,118.09268 c 0,0 6.441418,7.97509 9.304271,24.02752"
         id="path8607" />
      <path
         style="opacity:1;fill:#000099;fill-opacity:1;stroke:#000000;stroke-width:1.32292;stroke-dasharray:none;stroke-opacity:1"
         d="m 76.925024,174.52726 c 0,0 2.928066,-0.57838 5.060854,0.1446 2.132791,0.72297 9.217991,3.398 9.217991,3.398 0,0 1.626703,0.54223 2.277385,0.39764 0.650682,-0.1446 4.807812,1.26521 4.807812,1.26521 0,0 0.939874,0.2169 0.650682,1.87975 -0.289192,1.66285 -1.662853,16.30319 -1.662853,16.30319"
         id="path8609" />
      <path
         style="opacity:1;fill:none;fill-opacity:1;stroke:#000000;stroke-width:1.32292;stroke-dasharray:none;stroke-opacity:1"
         d="m 78.878883,112.4631 11.204367,27.07195 7.0852,6.36222 -3.831793,3.97639 21.761683,14.67648"
         id="path8611"
         sodipodi:nodetypes="ccccc" />
      <path
         style="opacity:1;fill:#000099;fill-opacity:1;stroke:#000000;stroke-width:0.79375;stroke-dasharray:none;stroke-opacity:1"
         d="m 98.686706,183.05842 c 0,0 -12.36295,-3.5426 -22.773854,-5.06086"
         id="path8613" />
      <circle
         style="display:inline;opacity:1;fill:#946432;fill-opacity:1;stroke:#000000;stroke-width:0.825621;stroke-dasharray:none;stroke-opacity:1"
         id="path18415-8"
         cx="110.21983"
         cy="199.8118"
         r="2.8980398" />
    </g>
    <g
       inkscape:groupmode="layer"
       id="layer9"
       inkscape:label="Right"
       style="opacity:1">
      <path
         style="display:inline;opacity:1;fill:#000099;fill-opacity:1;stroke:#000000;stroke-width:1.32292;stroke-dasharray:none;stroke-opacity:1"
         d="m 139.02896,210.24245 c 0,0 23.49684,-10.5555 24.50901,-12.07376 1.01217,-1.51826 10.41091,-8.38656 10.41091,-8.38656 0,0 2.02434,-1.15677 1.51825,-2.74732 -0.50608,-1.59056 -4.55477,-5.56695 -4.55477,-5.56695 0,0 -8.31426,-10.5555 -9.83252,-15.39946 -1.51826,-4.84396 -1.80745,-7.0852 -1.80745,-7.0852 l 7.37439,3.25341 c 0,0 2.24124,1.22906 2.74732,0.50608 0.50609,-0.72298 1.73516,-4.04868 1.73516,-4.04868 l 13.01363,-23.06305 c 0,0 3.03651,-4.98856 1.51825,-7.51899 -1.51825,-2.53042 -13.15822,-14.67648 -13.15822,-14.67648 0,0 -3.03652,-3.4703 -5.56695,-4.41018 -2.53042,-0.93987 -9.90482,-4.19328 -10.6278,-5.49464 -0.72297,-1.30137 -6.796,-8.603458 -6.796,-8.603458 0,0 -1.15677,-0.578384 -3.90409,1.735151 -2.74732,2.313535 -14.1704,13.808907 -14.89338,17.279217 -0.72298,3.4703 -4.04869,11.78456 -5.56694,14.60418 -1.51826,2.81962 -2.31354,4.84396 -2.31354,4.84396 0,0 -0.70287,1.16437 0.93305,2.74916 1.63591,1.58479 7.71947,6.95264 7.71947,6.95264 l -15.74569,18.9664 c 0,0 -2.91397,2.19826 -3.4252,6.64591 -0.51122,4.44765 0.35786,18.91528 0.35786,18.91528 0,0 -0.30673,4.70326 2.35163,6.13468 2.65836,1.43143 24.00362,16.48866 24.00362,16.48866 z"
         id="path16154" />
      <path
         style="opacity:1;fill:#000099;fill-opacity:1;stroke:#000000;stroke-width:0.79375;stroke-dasharray:none;stroke-opacity:1"
         d="m 159.39956,159.5018 c -7.76122,-3.00155 -15.25412,-7.41184 -22.74946,-11.80926 0,0 -4.9413,-3.65694 -5.44739,-4.79563"
         id="path16298"
         sodipodi:nodetypes="ccc" />
      <path
         style="opacity:1;fill:#000099;fill-opacity:1;stroke:#000000;stroke-width:1.32291665;stroke-dasharray:none;stroke-opacity:1"
         d="m 143.65603,200.77142 c 0,0 -4.26558,-17.42381 -6.28992,-18.94207 -2.02434,-1.51826 10.6278,-5.63924 10.6278,-5.63924 0,0 7.93009,-2.38946 9.73754,-4.91989 1.80745,-2.53043 3.63758,3.18474 3.63758,3.18474"
         id="path16300"
         sodipodi:nodetypes="cscsc" />
      <path
         style="opacity:1;fill:#000099;fill-opacity:1;stroke:#000000;stroke-width:0.79375;stroke-dasharray:none;stroke-opacity:1"
         d="m 139.05285,184.04054 21.4714,-9.09978"
         id="path16302" />
      <path
         style="opacity:1;fill:#000099;fill-opacity:1;stroke:#000000;stroke-width:1.32291665;stroke-dasharray:none;stroke-opacity:1"
         d="m 113.21859,165.63461 19.44815,-13.66431 3.03652,-0.50609 -3.25341,-2.02434 4.26558,-1.6636"
         id="path16304"
         sodipodi:nodetypes="ccccc" />
      <path
         style="opacity:1;fill:#000099;fill-opacity:1;stroke:#000000;stroke-width:0.79375;stroke-dasharray:none;stroke-opacity:1"
         d="m 156.30817,103.63912 c 0,0 15.58021,17.4238 22.77386,20.35187"
         id="path16306" />
      <ellipse
         style="opacity:1;fill:#946432;fill-opacity:1;stroke:#000000;stroke-width:0.85318;stroke-dasharray:none;stroke-opacity:1"
         id="path16360"
         cx="118.31187"
         cy="173.49657"
         rx="2.6650765"
         ry="2.6925514" />
      <circle
         style="opacity:1;fill:#946432;fill-opacity:1;stroke:#000000;stroke-width:0.825621;stroke-dasharray:none;stroke-opacity:1"
         id="path18415"
         cx="119.37074"
         cy="186.0343"
         r="2.8980398" />
    </g>
  </g>
</svg>
