<?xml version="1.0" encoding="UTF-8" standalone="no"?>
<!-- Created with Inkscape (http://www.inkscape.org/) -->

<svg
   width="960"
   height="720"
   viewBox="0 0 253.99999 190.5"
   version="1.1"
   id="svg5"
   inkscape:version="1.2.2 (732a01da63, 2022-12-09)"
   xml:space="preserve"
   sodipodi:docname="menu_background.svg"
   inkscape:export-filename="menu_background.webp"
   inkscape:export-xdpi="96"
   inkscape:export-ydpi="96"
   xmlns:inkscape="http://www.inkscape.org/namespaces/inkscape"
   xmlns:sodipodi="http://sodipodi.sourceforge.net/DTD/sodipodi-0.dtd"
   xmlns:xlink="http://www.w3.org/1999/xlink"
   xmlns="http://www.w3.org/2000/svg"
   xmlns:svg="http://www.w3.org/2000/svg"><sodipodi:namedview
     id="namedview7"
     pagecolor="#ffffff"
     bordercolor="#000000"
     borderopacity="0.25"
     inkscape:showpageshadow="2"
     inkscape:pageopacity="0.0"
     inkscape:pagecheckerboard="0"
     inkscape:deskcolor="#d1d1d1"
     inkscape:document-units="px"
     showgrid="false"
     showguides="true"
     inkscape:zoom="1"
     inkscape:cx="382.5"
     inkscape:cy="388"
     inkscape:window-width="2560"
     inkscape:window-height="1377"
     inkscape:window-x="2552"
     inkscape:window-y="-8"
     inkscape:window-maximized="1"
     inkscape:current-layer="svg5" /><defs
     id="defs2"><linearGradient
       inkscape:collect="always"
       id="linearGradient157468"><stop
         style="stop-color:#37281a;stop-opacity:1;"
         offset="0"
         id="stop157464" /><stop
         style="stop-color:#000000;stop-opacity:1;"
         offset="1"
         id="stop157466" /></linearGradient><linearGradient
       inkscape:collect="always"
       id="linearGradient41138"><stop
         style="stop-color:#666697;stop-opacity:1;"
         offset="0"
         id="stop41134" /><stop
         style="stop-color:#77677d;stop-opacity:1;"
         offset="1"
         id="stop41136" /></linearGradient><linearGradient
       inkscape:collect="always"
       id="linearGradient21284"><stop
         style="stop-color:#fff662;stop-opacity:1;"
         offset="0.56502241"
         id="stop21280" /><stop
         style="stop-color:#ceb04a;stop-opacity:1;"
         offset="1"
         id="stop21282" /></linearGradient><filter
       inkscape:collect="always"
       style="color-interpolation-filters:sRGB"
       id="filter5376"
       x="-0.0070417131"
       y="-0.0081748321"
       width="1.0140834"
       height="1.0163497"><feGaussianBlur
         inkscape:collect="always"
         stdDeviation="0.54147363"
         id="feGaussianBlur5378" /></filter><filter
       inkscape:collect="always"
       style="color-interpolation-filters:sRGB"
       id="filter7316"
       x="-0.0065566859"
       y="-0.050386481"
       width="1.0131134"
       height="1.100773"><feGaussianBlur
         inkscape:collect="always"
         stdDeviation="0.28766723"
         id="feGaussianBlur7318" /></filter><linearGradient
       inkscape:collect="always"
       xlink:href="#linearGradient21284"
       id="linearGradient21286"
       x1="21.825417"
       y1="83.686279"
       x2="155.90544"
       y2="125.81111"
       gradientUnits="userSpaceOnUse" /><linearGradient
       inkscape:collect="always"
       xlink:href="#linearGradient41138"
       id="linearGradient41140"
       x1="70.469864"
       y1="80.444672"
       x2="144.07961"
       y2="115.87067"
       gradientUnits="userSpaceOnUse" /><linearGradient
       inkscape:collect="always"
       xlink:href="#linearGradient157468"
       id="linearGradient157470"
       x1="142.03807"
       y1="140.11586"
       x2="136.51271"
       y2="152.08952"
       gradientUnits="userSpaceOnUse" /></defs><rect
     style="display:inline;fill:#999966;fill-opacity:1;stroke-width:0.264583"
     id="rect56123"
     width="272.41867"
     height="212.55598"
     x="-11.567673"
     y="-13.013632"
     inkscape:label="Background" /><path
     style="display:inline;opacity:1;mix-blend-mode:normal;fill:#ffffcc;fill-opacity:1;stroke:none;stroke-width:0.79375;filter:url(#filter5376)"
     d="M 87.306736,175.043 C 48.643005,155.18343 48.933447,96.266237 96.314548,56.090018 145.29555,14.55718 210.01864,20.864503 233.73147,50.508902 257.44431,80.153306 237.44892,131.15982 200.629,158.19016 163.80908,185.2205 125.97047,194.90257 87.306736,175.043 Z"
     id="path4519"
     sodipodi:nodetypes="sssss"
     inkscape:label="Highlight" /><g
     inkscape:groupmode="layer"
     id="layer10"
     inkscape:label="Dirt"
     style="display:inline"
     sodipodi:insensitive="true"><path
       id="path34824"
       style="opacity:1;fill:#af7f08;stroke:#000000;stroke-width:0.264583"
       d="m 52.641868,133.24373 c 0.05066,0.91975 -1.473415,1.59831 -2.551246,1.87527 -1.011794,0.25999 -2.234944,-0.42334 -2.234944,-1.36919 0,-0.94584 0.805232,-1.37461 1.828268,-1.58608 0.91814,-0.18978 2.905907,0.13558 2.957922,1.08 z"
       sodipodi:nodetypes="sssss" /><path
       d="m 67.71904,142.77701 c -0.180453,0.008 -0.588177,-0.0562 -0.414862,-0.34865 0.249556,-0.42102 -0.627443,-0.49432 -0.626372,-0.75094 0.0021,-0.50675 1.3527,-0.0752 1.677542,0.45868 0.173872,0.28578 -0.335569,0.62735 -0.636308,0.64091 z"
       style="fill:#af7f08;stroke:#000000;stroke-width:0.153751"
       id="path37045-7"
       sodipodi:nodetypes="asssa" /><path
       d="m 56.316538,136.69687 c -0.01417,0.38536 -0.321826,0.59105 -0.666108,0.63555 -0.57456,0.0743 -0.807294,-0.067 -0.988836,-0.27006 -0.411518,-0.46023 0.118838,-0.99109 0.703575,-1.01734 0.454362,-0.0204 0.972758,0.0704 0.951369,0.65185 z"
       style="fill:#af7f08;stroke:#000000;stroke-width:0.264583"
       id="path37045" /><path
       d="m 64.835371,135.21747 c -0.02067,0.53815 -0.622902,0.91486 -1.1252,0.97701 -0.838266,0.10376 -1.216161,-0.0233 -1.481025,-0.30685 -0.600393,-0.6427 0.07753,-1.43516 0.930642,-1.47182 0.662901,-0.0285 1.706789,-0.0103 1.675583,0.80166 z"
       style="opacity:1;fill:#af7f08;stroke:#000000;stroke-width:0.377662"
       id="path36960"
       sodipodi:nodetypes="scsss" /><path
       id="path34824-3"
       style="display:inline;opacity:1;fill:#af7f08;stroke:#000000;stroke-width:0.264583"
       d="m 118.1144,149.73651 c 0.0145,0.57634 -2.45848,1.16453 -3.4369,1.59512 -0.95616,0.4208 -2.55124,0.3629 -2.55124,-0.58295 0,-0.94584 1.55547,-0.91737 2.58739,-1.08 1.26155,-0.19881 3.37688,-0.87772 3.40075,0.0678 z"
       sodipodi:nodetypes="sssss" /><path
       id="path34824-3-0"
       style="display:inline;opacity:1;fill:#af7f08;stroke:#000000;stroke-width:0.264583"
       d="m 123.34683,150.25537 c 0.15577,0.37096 -0.22479,0.88445 -0.59017,1.05289 -0.68139,0.31411 -1.97582,0.27518 -2.20783,-0.43836 -0.15412,-0.47399 0.5359,-0.96035 1.01491,-1.09807 0.59185,-0.17017 1.54467,-0.0843 1.78309,0.48354 z"
       sodipodi:nodetypes="aaaaa" /><path
       id="path34824-3-0-6"
       style="display:inline;opacity:1;fill:#af7f08;stroke:#000000;stroke-width:0.264583"
       d="m 126.50311,146.50672 c 0.0858,0.44952 -0.53815,0.86838 -0.9878,0.95348 -0.66761,0.12636 -1.76385,-0.11275 -1.88249,-0.78177 -0.0803,-0.45301 0.56203,-0.85435 1.01491,-0.9354 0.65834,-0.11782 1.72998,0.10675 1.85538,0.76369 z"
       sodipodi:nodetypes="aaaaa" /><path
       id="path34824-3-0-4-7"
       style="display:inline;opacity:1;fill:#af7f08;stroke:#000000;stroke-width:0.264583"
       d="m 147.60262,159.39799 c 0.0972,0.15589 -0.0274,0.42279 -0.18349,0.5197 -0.13587,0.0844 -0.38776,0.0757 -0.47631,-0.0575 -0.10016,-0.15062 -0.002,-0.42151 0.14843,-0.52195 0.14272,-0.0953 0.42057,-0.0859 0.51137,0.0597 z"
       sodipodi:nodetypes="aaaaa" /><path
       id="path34824-3-0-4"
       style="display:inline;fill:#af7f08;stroke:#000000;stroke-width:0.264583"
       d="m 145.8157,157.29719 c 0.11718,0.47979 -0.59509,0.88723 -1.06914,1.02578 -0.72018,0.21049 -1.95285,0.2673 -2.20783,-0.43836 -0.18255,-0.50518 0.50205,-1.09197 1.01491,-1.2517 0.75031,-0.23369 2.07562,-0.0991 2.26206,0.66428 z"
       sodipodi:nodetypes="aaaaa" /><path
       id="path34824-3-0-6-7-5-5"
       style="display:inline;fill:#af7f08;stroke:#000000;stroke-width:0.264583"
       d="m 131.82769,155.0135 c -0.0608,0.42356 -0.4211,0.87787 -0.53684,0.5077 -0.25634,-0.81981 -0.647,0.19451 -0.76048,-0.40375 -0.0713,-0.37608 0.45637,-0.4262 0.74133,-0.42572 0.21413,3.6e-4 0.58644,0.10982 0.55599,0.32177 z"
       sodipodi:nodetypes="sssas" /><path
       id="path34824-3-0-6-7-5"
       style="display:inline;fill:#af7f08;stroke:#000000;stroke-width:0.264583"
       d="m 127.02309,153.19946 c 0.13056,0.36521 -0.26027,0.85238 -0.62631,0.98058 -0.41845,0.14655 -1.11415,-0.0102 -1.25892,-0.42931 -0.125,-0.3618 0.26533,-0.83519 0.62631,-0.96251 0.41632,-0.14685 1.11031,-0.004 1.25892,0.41124 z"
       sodipodi:nodetypes="aaaaa" /><path
       id="path34824-3-0-6-7"
       style="display:inline;opacity:1;fill:#af7f08;stroke:#000000;stroke-width:0.264583"
       d="m 129.94417,149.20815 c 0.10128,0.18545 -0.0144,0.5029 -0.20156,0.60102 -0.2258,0.11839 -0.64525,0.0263 -0.73476,-0.21242 -0.0748,-0.19961 0.14784,-0.45955 0.34616,-0.53776 0.18875,-0.0744 0.49291,-0.0289 0.59016,0.14916 z"
       sodipodi:nodetypes="aaaaa" /></g><g
     inkscape:groupmode="layer"
     id="layer20"
     inkscape:label="Wheel_Wells"
     style="display:inline;fill:#181608;fill-opacity:1"><rect
       style="opacity:1;fill:#181608;fill-opacity:1;stroke:#000001;stroke-width:0.264583;stroke-dasharray:none;stroke-opacity:1"
       id="rect164495"
       width="9.921875"
       height="6.2177081"
       x="109.47135"
       y="103.38593" /><rect
       style="opacity:1;fill:#181608;fill-opacity:1;stroke:#000001;stroke-width:0.264583;stroke-dasharray:none;stroke-opacity:1"
       id="rect164498"
       width="4.1027098"
       height="6.7265153"
       x="143.27187"
       y="127.46302" /></g><g
     inkscape:groupmode="layer"
     id="layer15"
     inkscape:label="Background_Wheels"
     sodipodi:insensitive="true"
     style="display:inline"><path
       style="opacity:1;fill:#100e0c;fill-opacity:1;stroke:none;stroke-width:0.79375;stroke-dasharray:none;stroke-opacity:1"
       d="m 32.808333,116.48281 c 0,0 -5.55625,1.65365 -5.093229,12.76615 l 9.260416,4.89479 c 0,0 1.653646,1.38906 4.630208,-0.26459 2.976563,-1.65364 6.482292,-6.54843 6.945313,-7.20989 0.46302,-0.66146 2.116666,-4.56406 1.852083,-5.95313 -0.264583,-1.38906 -17.594791,-4.23333 -17.594791,-4.23333 z"
       id="path117639"
       inkscape:label="Left Wheel" /><path
       style="opacity:1;fill:#100e0c;fill-opacity:1;stroke:none;stroke-width:0.79375;stroke-dasharray:none;stroke-opacity:1"
       d="m 88.635416,127.06614 0.363803,10.28568 6.35,0.33073 -0.892969,-10.98021 z"
       id="path125333"
       sodipodi:nodetypes="ccccc" /></g><g
     inkscape:groupmode="layer"
     id="layer17"
     inkscape:label="Foreground_Wheels"
     style="display:inline"><path
       style="opacity:1;fill:url(#linearGradient157470);fill-opacity:1;stroke:#000001;stroke-width:0.264583;stroke-dasharray:none;stroke-opacity:1"
       d="m 140.69068,153.36593 -6.12716,-1.20438 c 0.11036,0.0602 -4.15697,-3.56595 -1.13056,-9.03305 3.05808,-5.5243 4.65173,-9.62831 11.20996,-9.99153 7.60049,-0.42094 4.56029,6.29086 4.56029,6.29086 z"
       id="path157457"
       sodipodi:nodetypes="ccsscc" /><path
       style="opacity:1;fill:#151012;fill-opacity:1;stroke:#000001;stroke-width:0.264583;stroke-dasharray:none;stroke-opacity:1"
       d="m 117.07073,148.08068 c 0,0 -10.47696,3.13373 -15.06064,1.63703 -4.583666,-1.49671 -8.185124,-7.9045 -9.167339,-10.66406 -0.982215,-2.75956 -0.654809,-11.9269 -0.654809,-11.9269 0,0 1.262848,-15.99608 10.944688,-19.12982 9.68184,-3.13373 13.0962,0.60804 13.0962,0.60804 z"
       id="path137560" /><path
       style="opacity:1;fill:none;fill-opacity:1;stroke:#000001;stroke-width:0.264583;stroke-dasharray:none;stroke-opacity:1"
       d="m 138.90625,153.1276 c 0,0 -0.99219,-10.84791 8.26823,-18.98385"
       id="path158959" /><path
       style="opacity:1;fill:none;fill-opacity:1;stroke:#000001;stroke-width:0.264583;stroke-dasharray:none;stroke-opacity:1"
       d="m 137.98021,152.86302 c 0,0 -1.2237,-9.95495 8.3013,-18.98386"
       id="path158961" /><path
       style="opacity:1;fill:none;fill-opacity:1;stroke:#000001;stroke-width:0.264583;stroke-dasharray:none;stroke-opacity:1"
       d="m 136.82265,152.63151 c 0,0 -0.59531,-10.55026 8.20209,-18.75235"
       id="path158963" /><path
       style="opacity:1;fill:none;fill-opacity:1;stroke:#000001;stroke-width:0.264583;stroke-dasharray:none;stroke-opacity:1"
       d="m 135.89661,152.16849 c 0,0 -1.02526,-9.82266 7.63985,-18.28933"
       id="path158965" /><path
       style="opacity:1;fill:none;fill-opacity:1;stroke:#000001;stroke-width:0.264583;stroke-dasharray:none;stroke-opacity:1"
       d="m 135.06979,152.0362 c 0,0 -1.81901,-5.65547 5.92005,-17.4625"
       id="path158967" /><path
       style="opacity:1;fill:none;fill-opacity:1;stroke:#000001;stroke-width:0.264583;stroke-dasharray:none;stroke-opacity:1"
       d="m 134.27604,151.24245 c 0,0 -2.57969,-4.06797 4.96094,-15.64349"
       id="path158969" /></g><g
     inkscape:groupmode="layer"
     id="layer16"
     inkscape:label="Undercarriage"
     sodipodi:insensitive="true"
     style="display:inline"><path
       style="opacity:1;fill:#4d4642;fill-opacity:1;stroke:#000001;stroke-width:0.79375;stroke-dasharray:none;stroke-opacity:1"
       d="m 62.342447,122.56823 c 0,0 -3.973408,0.93491 -1.199624,3.41052 1.960476,1.74973 16.136208,4.05997 16.148583,4.1301 0,0 7.143749,0.89297 6.349999,-2.11666 -0.79375,-3.00964 -21.298958,-5.42396 -21.298958,-5.42396 z"
       id="path126061"
       sodipodi:nodetypes="cscsc" /><path
       style="display:inline;opacity:1;fill:#4d4642;fill-opacity:1;stroke:#000001;stroke-width:0.264583;stroke-dasharray:none;stroke-opacity:1"
       d="m 63.152734,125.66054 14.089062,2.64583"
       id="path128395" /></g><g
     inkscape:groupmode="layer"
     id="layer2"
     inkscape:label="Car"
     style="display:inline"
     sodipodi:insensitive="true"><g
       inkscape:groupmode="layer"
       id="layer11"
       inkscape:label="Interior"
       style="display:inline"
       sodipodi:insensitive="true"><path
         style="display:inline;opacity:1;fill:url(#linearGradient41140);fill-opacity:1;stroke:#000000;stroke-width:0.264583;stroke-opacity:1"
         d="m 63.416204,81.817849 c 28.11678,11.72434 57.092556,19.608441 83.059446,40.944071 l 1.01217,-6.57911 -2.53042,-12.14605 -3.25341,-8.603461 -7.0852,-11.423078 -6.86831,-4.265578 -13.66431,-5.783836 -15.905548,-3.036515 -18.58509,-0.905541 c -6.318273,3.738638 -10.371373,7.302617 -16.179328,11.799098 z"
         id="path41132"
         sodipodi:nodetypes="ccccccccccc"
         inkscape:label="Base" /><path
         style="opacity:1;fill:#000000;fill-opacity:1;stroke:#000000;stroke-width:0.79375;stroke-dasharray:none;stroke-opacity:1"
         d="m 87.641024,76.871745 c 0.274378,0.341268 -7.692943,-4.143865 -6.726713,-4.345136 0.225716,-0.04702 6.726713,4.345136 6.726713,4.345136 z"
         id="path55964"
         sodipodi:nodetypes="csc" /><path
         style="opacity:1;fill:#000000;fill-opacity:1;stroke:#000000;stroke-width:0.79375;stroke-dasharray:none;stroke-opacity:1"
         d="m 130.23425,106.4879 c 0,0 8.20729,0.65199 6.41328,0.43197 -2.04232,-0.25047 -7.48685,0.13038 -6.41328,-0.43197 z"
         id="path58144"
         sodipodi:nodetypes="csc" /><path
         style="opacity:1;fill:#000000;fill-opacity:1;stroke:#000000;stroke-width:0.79375;stroke-dasharray:none;stroke-opacity:1"
         d="m 143.85485,108.64575 c 0,0 -2.12795,-0.55115 -1.28329,-0.32534 0.73931,0.19764 1.54898,0.46445 1.28329,0.32534 z"
         id="path58146"
         sodipodi:nodetypes="csc" /></g><g
       inkscape:groupmode="layer"
       id="layer6"
       inkscape:label="Instructor"
       style="display:inline"
       sodipodi:insensitive="true"><path
         style="display:inline;opacity:1;fill:#000000;stroke:none;stroke-width:0.264583"
         d="m 87.769715,85.745372 c 0.411053,-6.940038 3.034186,-6.789432 3.489285,-7.408723 0.364556,-0.496082 3.570874,-3.357769 6.017895,-4.014353 1.0777,-0.289168 1.240276,0.404799 0.490737,0.755497 -0.749539,0.350697 4.309228,0.130399 2.424178,0.99538 -1.885055,0.86498 0.42637,1.115612 1.95042,1.133774 1.52404,0.01816 1.2395,0.617408 0.64685,0.950773 -0.59265,0.333366 0.81387,0.590096 1.64087,0.794901 0.827,0.204805 3.34691,0.539343 1.4504,1.334257 -1.09085,0.457225 0.68794,0.998972 1.03025,1.129653 0.66303,0.253119 2.65549,1.921582 0.8856,1.527295 -1.90975,-0.425447 -1.91883,-0.470758 -1.91588,0.397641 0.002,0.575991 0.92165,1.068188 1.43692,1.40077 0.34325,0.221556 0.41571,0.849503 -0.48801,0.59646 -0.90373,-0.253042 -0.015,0.612102 -0.18979,0.912762 -1.31499,2.261981 -1.92092,4.238011 -4.49958,4.681073 -3.601781,-1.688506 -4.737489,-2.316572 -14.370145,-5.18716 z"
         id="path346"
         sodipodi:nodetypes="csszzzzzssssssscc"
         inkscape:label="Face" /><g
         inkscape:groupmode="layer"
         id="layer7"
         inkscape:label="Eye_Left"
         style="display:inline"><path
           id="path1156"
           style="display:inline;opacity:1;fill:#ffffff;stroke:#000000;stroke-width:0.314197"
           d="m 93.32993,82.14856 c 0,1.683284 -1.364572,2.939409 -3.047856,2.939409 -1.683284,0 -2.822299,-1.86813 -2.74059,-2.885186 0.109716,-1.36567 1.205365,-2.785965 2.794813,-2.903261 1.67872,-0.123883 2.993633,1.165753 2.993633,2.849038 z"
           sodipodi:nodetypes="sssss" /><circle
           style="display:inline;opacity:1;fill:#000000;stroke:#000000;stroke-width:0.264583;stroke-opacity:1"
           id="path1251"
           cx="92.523308"
           cy="82.401588"
           r="0.30726632" /></g><g
         inkscape:groupmode="layer"
         id="layer8"
         inkscape:label="Eye_Right"
         style="display:inline"><path
           id="path1156-1"
           style="display:inline;opacity:1;fill:#ffffff;stroke:#000000;stroke-width:0.314197"
           d="m 100.33599,82.721966 c 0.45034,1.787209 -1.224207,3.423666 -3.047864,3.391271 -1.683018,-0.0299 -3.34646,-2.030801 -3.318974,-3.427421 0.02696,-1.369805 1.06077,-2.731741 2.650218,-2.849037 1.678716,-0.123883 3.305314,1.252924 3.71662,2.885187 z"
           sodipodi:nodetypes="sssss" /><circle
           style="display:inline;opacity:1;fill:#000000;stroke:#000000;stroke-width:0.264583;stroke-opacity:1"
           id="path1253"
           cx="94.638023"
           cy="82.455818"
           r="0.25304285" /></g></g><g
       inkscape:groupmode="layer"
       id="layer9"
       inkscape:label="Student"
       style="display:inline"
       sodipodi:insensitive="true"><path
         style="display:inline;opacity:1;fill:#101260;fill-opacity:1;stroke:#000000;stroke-width:0.264583;stroke-opacity:1"
         d="m 113.74728,93.477259 c 0,0 -0.57139,-4.33909 0.8217,-6.524569 1.39308,-2.185482 1.92613,-2.690239 3.40868,-3.674343 1.48254,-0.984108 3.14531,-0.78117 3.14531,-0.78117 0,0 1.788,0.07823 0.30545,0.563899 -1.48255,0.485661 -0.18797,0.626624 -0.009,0.626624 0.17893,0 0.61816,-0.157615 0.94202,-0.277428 0.35451,-0.131152 1.39466,-0.539324 3.45076,-0.361978 2.05779,0.177492 1.07357,0.587909 1.07357,0.587909 0,0 -0.40898,0.102243 -1.21416,0.319514 -0.80517,0.217271 -0.84351,0.664591 -0.84351,0.664591 0,0 -0.17893,0.664591 0.35785,0.715714 0.53679,0.05112 2.27495,-0.62625 2.54334,-0.447321 0.26839,0.178927 -0.50484,0.492053 -0.1981,0.492053 0.30673,0 1.56994,-0.145067 1.56498,0.146333 -0.004,0.24219 -1.04737,0.562989 -0.42112,0.703576 0.62625,0.140586 1.07357,0.664591 1.07357,0.664591 -3.32419,4.271407 -5.89187,8.758959 -8.79305,13.151226 z"
         id="path17393"
         sodipodi:nodetypes="csscsssscscsssssccc" /><path
         style="display:inline;opacity:1;fill:#ffffff;fill-opacity:1;stroke:#000000;stroke-width:0.264583;stroke-opacity:1"
         d="m 115.02534,88.595072 -0.43454,7.412744 2.93954,2.249384 6.62034,-3.322952 1.78929,-2.939537 c 0,0 -5.26561,-0.434541 -10.91463,-3.399639 z"
         id="path27341" /><path
         style="opacity:1;fill:#020566;fill-opacity:1;stroke:#000000;stroke-width:0.264583;stroke-opacity:1"
         d="m 120.48454,101.97626 -1.04832,-1.87974 c -7.07168,-4.177329 -17.03126,-9.573985 -20.098832,-10.37476 0,0 -0.799573,-0.825471 -0.799013,-1.59957 5.6e-4,-0.774099 0.475798,-2.737666 3.540225,-1.380305 1.8503,0.819576 1.98456,0.120896 3.62871,-0.116199 1.64415,-0.237094 4.60263,0.595705 7.87382,4.321016 3.65263,4.159707 4.15369,5.904634 4.15369,5.904634 1.90058,0.06573 3.10098,-0.113617 4.34027,-0.279344 l 1.01218,-0.0723 c 0,0 -2.49428,3.614898 -2.60273,5.476568 z"
         id="path4893"
         sodipodi:nodetypes="ccczszscccc" /><path
         style="opacity:1;fill:#101250;fill-opacity:1;stroke:#000000;stroke-width:0.264583;stroke-opacity:1"
         d="m 124.44285,101.97626 4.17521,2.91 c 0,0 0.75913,-2.07857 0.50608,-4.35596 -0.25304,-2.277381 0.58743,-0.659713 0.58743,-0.659713 0,0 0.53319,0.840463 0.60549,-0.352454 0.0723,-1.192917 0.83143,0.198818 0.83143,0.198818 0,0 0.6326,1.012169 1.39173,0 0.75913,-1.012171 -0.45186,-1.138692 -0.45186,-1.138692 0,0 -0.43379,-0.09037 0.19882,-0.524161 0.63261,-0.433787 1.7713,-0.126521 1.7713,-0.126521 0,0 0.83143,0.09037 0.83143,-0.614532 0,-0.704906 -1.01217,-0.903724 -1.1387,-1.21099 -0.12652,-0.307266 -0.12652,-0.524161 0.18075,-0.704906 0.30727,-0.180744 1.39173,-0.108447 1.39173,-0.108447 0,0 0.74106,0 0.56031,-0.506084 -0.18074,-0.506087 -1.98819,-1.210993 -2.25931,-1.97012 -0.27111,-0.759129 -0.25304,-0.88565 -0.25304,-0.88565 0,0 0.0723,-0.506087 0.88565,-0.253042 0.81335,0.253042 1.12062,-0.253045 1.12062,-0.253045 0,0 0.45186,-0.307266 -0.56031,-0.686829 -1.01217,-0.379564 -1.60863,-0.253042 -2.22316,-0.759129 -0.61454,-0.506085 -0.74106,-0.632606 -0.74106,-0.632606 -2.96867,3.837486 -5.06931,8.325996 -7.41054,12.634063 z"
         id="path27344"
         sodipodi:nodetypes="ccscscscscssscsscscsscc" /></g><path
       id="path8828"
       style="display:inline;opacity:1;fill:url(#linearGradient21286);fill-opacity:1;stroke:#000000;stroke-width:0.79375;stroke-dasharray:none;stroke-opacity:1"
       inkscape:label="CarBase"
       d="m 90.794973,68.681595 c -4.186922,-7.65e-4 -6.336517,0.123969 -10.532173,0.09198 -0.401868,-0.0031 -1.267696,-0.05584 -1.63711,0.12609 -0.600909,0.295936 -1.10244,0.722016 -1.715141,1.119828 -3.862245,2.507673 -8.455942,6.649533 -12.708268,10.362158 l -5.442045,0.21239 -21.536152,1.683619 -13.879773,-0.905888 -2.373498,0.992187 -1.432471,3.363102 c 0.576177,6.544131 0.166039,11.980205 -1.265039,17.622699 l 5.368148,4.59094 76.399989,19.88199 4.54752,0.68574 c 1.76549,-9.38225 6.24001,-18.43579 6.8585,-20.04322 0.61849,-1.60743 2.33255,-4.66445 3.32538,-4.39249 0.99283,0.27194 1.8304,2.43561 1.99006,4.66173 0.15967,2.22608 3.83025,11.93105 3.83025,11.93105 l 3.28921,14.17019 c 4.69825,0.70548 9.86268,3.49931 15.03836,7.19388 2.14113,-4.98066 5.89505,-12.20904 7.17527,-12.8695 0.78104,-0.40294 1.15462,3.93037 1.15462,3.93037 1.3843,0.61824 2.39616,1.22397 2.62984,2.62158 0.31272,1.87034 -2.38746,7.51288 -1.98939,8.62036 l 3.82378,-10.29494 -4.01012,-9.17891 c 0.3374,-4.81747 0.31344,-9.26437 0.21704,-13.80898 L 142.5717,96.174485 c -2.09625,-4.964831 -4.29202,-9.920778 -8.0977,-13.537674 -5.03129,-4.399433 -14.24772,-8.37307 -26.02683,-11.423592 -7.36198,-1.906579 -13.030211,-2.530783 -17.652157,-2.531628 z m -11.224638,2.200899 c 0.152895,-0.03701 6.018213,0.151284 7.891508,0.06821 12.460411,-0.552505 36.367557,7.182086 43.000997,11.539347 0.76995,0.505762 1.87184,1.323283 1.84743,1.396297 -0.0228,0.06818 -0.22846,0.483626 -0.7059,1.029911 -2.29801,2.629355 -7.91852,11.098367 -10.09706,14.79858 -0.60261,1.023531 -0.59818,1.230651 -0.92242,1.251601 -0.32478,0.021 -0.97769,-0.38194 -2.16266,-1.274339 C 113.87591,96.26832 102.99988,91.097862 92.303925,87.483031 83.964029,84.664457 75.733884,83.102147 70.699559,82.025483 69.053002,81.673343 67.5468,81.225714 66.745279,81.115977 66.123265,81.030817 78.912587,71.041725 79.570335,70.882494 Z m 54.727925,15.182018 c 2.48064,2.497957 4.29907,6.079418 5.82833,9.508943 -1.20498,3.778224 -1.76366,9.892365 -2.76113,15.831205 -4.98081,-4.5119 -8.7072,-6.51495 -12.80562,-9.26206 2.48909,-6.549016 6.3949,-10.871744 9.73842,-16.078088 z m 7.75922,13.536322 c 1.26112,2.463246 1.82401,4.829496 2.89881,9.005516 1.55492,6.04148 1.21084,12.26386 1.21084,12.26386 -1.982,-2.52563 -3.28014,-5.05125 -6.10794,-7.57688 0,0 1.85369,-7.61327 1.99829,-13.692496 z"
       sodipodi:nodetypes="scssccccccccccssscccscsccccccssscssssssssssccccccscccs" /><g
       inkscape:groupmode="layer"
       id="layer3"
       inkscape:label="Bumper"
       style="display:inline"><g
         inkscape:groupmode="layer"
         id="layer5"
         inkscape:label="Face"
         style="display:inline"><path
           style="opacity:1;fill:#938f92;fill-opacity:1;stroke:#000000;stroke-width:0.79375;stroke-dasharray:none;stroke-opacity:1"
           d="M 33.025053,108.37943 38.955247,83.789567 C 57.082264,80.75672 70.659915,82.635408 78.319476,87.981602 L 75.661111,114.10513 Z"
           id="path88017"
           sodipodi:nodetypes="ccccc" /><path
           style="opacity:1;fill:none;fill-opacity:1;stroke:#000000;stroke-width:0.264583;stroke-dasharray:none;stroke-opacity:1"
           d="m 41.562488,84.863137 c 0,0 19.439622,-0.379564 28.23267,1.920943 8.793046,2.300507 1.084817,1.584794 1.084817,1.584794 0,0 -19.847308,-2.102189 -25.381064,-2.432166 -4.735792,-0.282394 -2.427663,0.603367 0.632517,0.88352 3.060179,0.280153 30.564002,2.812173 27.189927,3.527887 -3.374077,0.715711 -38.750066,-4.009681 -30.174074,-2.1109 7.955026,1.761295 32.358499,2.788566 30.096729,4.60872 -1.865255,1.501059 -35.645475,-5.017401 -32.397233,-3.330661 3.798638,1.972548 38.955246,5.62346 32.718316,5.674582 -6.236928,0.05112 -39.517592,-5.521216 -33.076173,-3.731932 6.441419,1.789282 36.143517,5.367848 31.133523,5.367848 -5.009991,0 -36.245763,-5.879073 -31.286892,-3.731932 4.958871,2.147139 39.875452,5.521217 33.791887,5.521217 -6.083561,0 -39.875448,-5.009994 -34.865457,-2.862853 5.009994,2.147139 37.523821,4.345396 32.718319,4.498766 -4.805503,0.15337 -36.65474,-3.987543 -32.922808,-2.709484 3.731935,1.278059 48.668498,7.872844 32.207094,6.083564 -16.461404,-1.78928 -38.801881,-5.214484 -33.996376,-3.57857 4.805503,1.63592 45.2433,7.92397 33.638519,6.64591 -11.604778,-1.27806 -40.642285,-5.67458 -33.280662,-3.93642 7.361621,1.73816 40.386672,5.36785 35.581169,5.87907 -4.805503,0.51122 -34.865458,-4.44765 -37.012596,-4.8055"
           id="path91008"
           sodipodi:nodetypes="cscszsssssssssssssssssc" /></g><path
         style="display:inline;opacity:1;fill:#938f92;fill-opacity:1;stroke:#000001;stroke-width:0.79375;stroke-dasharray:none;stroke-opacity:1"
         d="m 143.99948,149.75416 c 0.9974,-1.98271 2.02872,-3.91879 3.37343,-5.42395 1.57989,1.30467 3.06534,2.65656 4.0349,4.2664 -0.76582,1.33933 -1.55086,2.68507 -2.4474,4.06797 0,0 -0.29568,0.51288 -1.25677,-0.13229 -0.80053,-0.53738 -3.71616,-2.73414 -3.70416,-2.77813 z"
         id="path113801"
         sodipodi:nodetypes="ccccsc"
         inkscape:label="Bumper_Back" /><path
         style="display:inline;opacity:1;fill:#938f92;fill-opacity:1;stroke:#000000;stroke-width:0.79375;stroke-dasharray:none;stroke-opacity:1"
         d="m 13.189572,103.47168 c 24.048004,3.00268 47.327671,6.13342 68.125397,9.67781 7.278986,1.03361 14.574422,2.19883 22.054471,4.84095 -0.0618,3.98754 -1.28931,7.97509 -2.24939,11.96263 -17.583616,-1.41884 -28.556293,-4.53994 -42.891667,-6.64591 -15.068349,-2.58627 -29.731742,-5.04795 -43.914119,-7.36162 -2.730812,-4.00089 -1.185213,-8.28688 -1.124692,-12.47386 z"
         id="path32193"
         sodipodi:nodetypes="ccccccc"
         inkscape:label="Bumper_Front" /><path
         style="display:inline;opacity:1;fill:#dc240f;fill-opacity:1;stroke:#000000;stroke-width:0.396875;stroke-dasharray:none;stroke-opacity:1"
         d="m 13.107751,107.31153 10.229612,1.004 0.178928,-1.94265 -10.278165,-0.99689 z"
         id="path37531"
         sodipodi:nodetypes="ccccc"
         inkscape:label="Reflector_Left" /><path
         style="display:inline;opacity:1;fill:#dc240f;fill-opacity:1;stroke:#000000;stroke-width:0.396875;stroke-dasharray:none;stroke-opacity:1"
         d="m 85.316572,117.03009 9.662193,1.63588 c 0.388213,-0.40197 0.544273,-0.84828 0.453866,-1.39384 -3.467486,-0.50236 -6.873299,-1.60176 -10.154556,-1.61909 -0.641852,0.45834 -0.124309,0.89276 0.0385,1.37705 z"
         id="path37531-2"
         sodipodi:nodetypes="ccccc"
         inkscape:label="Reflector_Right" /><path
         style="opacity:1;fill:none;fill-opacity:1;stroke:#000000;stroke-width:0.396875;stroke-dasharray:none;stroke-opacity:1"
         d="m 97.710684,128.0939 -1.129657,0.16266 0.551271,-2.03337 -1.454995,0.43378 c 0.908391,-3.87709 2.149687,-6.40257 3.732382,-7.87143"
         id="path50048"
         sodipodi:nodetypes="ccccc" /><g
         inkscape:groupmode="layer"
         id="layer4"
         inkscape:label="Plate"
         style="opacity:1"><path
           id="rect60471"
           style="display:inline;opacity:1;fill:#6b668d;stroke:#000000;stroke-width:0.396875"
           d="m 68.729647,117.71002 c 7.761504,1.05184 14.568566,3.00509 21.496738,4.84397 -0.886388,3.22449 -1.154049,6.64586 -1.57248,10.05753 -7.452963,-1.99781 -14.868831,-3.32791 -22.273941,-4.46439 0.598303,-3.86738 1.274598,-7.57097 2.349683,-10.43711 z"
           sodipodi:nodetypes="ccccc"
           inkscape:label="Base" /><path
           style="opacity:1;fill:none;fill-opacity:1;stroke:#000000;stroke-width:0.396875;stroke-dasharray:none;stroke-opacity:1"
           d="m 69.321936,119.8564 -0.894641,5.16336 c 0,0 1.718004,0.51251 2.070457,0.4601"
           id="path50777"
           sodipodi:nodetypes="ccc" /><path
           style="opacity:1;fill:none;fill-opacity:1;stroke:#000000;stroke-width:0.396875;stroke-dasharray:none;stroke-opacity:1"
           d="m 72.542645,121.18558 c -0.863827,-0.43191 -2.232581,4.20808 -1.174527,4.47321 1.058054,0.26513 2.038354,-4.0413 1.174527,-4.47321 z"
           id="path50779"
           sodipodi:nodetypes="zzz" /><path
           d="m 74.890175,121.20092 c -0.941603,0.21477 -2.332784,4.8047 -1.246825,4.907 1.182508,0.11139 2.735095,-5.24646 1.246825,-4.907 z m 5.713571,1.53439 c -0.937409,0.23239 -1.941186,4.31064 -0.850627,4.33188 1.352589,0.0264 2.455896,-4.72984 0.850627,-4.33188 z"
           style="fill:none;fill-opacity:1;stroke:#000000;stroke-width:0.396875;stroke-dasharray:none;stroke-opacity:1"
           id="path50789"
           sodipodi:nodetypes="ssssss" /><path
           id="rect66189"
           style="opacity:1;fill:#308889;stroke:#000000;stroke-width:0.132292;stroke-dasharray:none"
           d="m 85.304069,129.99142 c 0.68885,-0.0277 1.475494,0.0435 2.16631,0.32403 0.278212,0.56371 0.249734,0.97819 0,1.49081 -0.751542,-0.0438 -1.507884,-0.25814 -2.1727,-0.54318 -0.3051,-0.71077 -0.245585,-0.78543 0.0064,-1.27166 z"
           sodipodi:nodetypes="cccccc" /><path
           style="opacity:1;fill:none;fill-opacity:1;stroke:#000000;stroke-width:0.396875;stroke-dasharray:none;stroke-opacity:1"
           d="m 76.724386,121.48226 c -0.32485,1.47608 -0.964846,3.31003 -1.118803,4.78611 0.125247,0 0.104739,-2.81017 2.566576,-4.10291 1.97187,-1.03545 -1.933967,1.50019 -1.933967,1.50019 0,0 0.976021,-0.10845 1.753224,2.98229"
           id="path50804"
           sodipodi:nodetypes="ccscc" /><path
           style="opacity:1;fill:none;fill-opacity:1;stroke:#000000;stroke-width:0.396875;stroke-dasharray:none;stroke-opacity:1"
           d="m 82.853452,123.15956 c 0,0 -1.156766,3.65105 -0.379563,4.04869 0.777203,0.39764 2.277385,-1.04832 2.223161,-3.39801"
           id="path50832" /><path
           style="opacity:1;fill:none;fill-opacity:1;stroke:#000000;stroke-width:0.396875;stroke-dasharray:none;stroke-opacity:1"
           d="m 85.45618,123.68372 3.036514,0.93988 c 0,0 -1.265214,-0.63261 -1.590556,-0.37957 -0.32534,0.25304 -0.939871,4.30173 -0.939871,4.30173"
           id="path50834"
           sodipodi:nodetypes="ccsc" /><path
           id="rect72178"
           style="opacity:1;fill:#73733a;stroke:#000000;stroke-width:0.132292"
           d="m 67.958727,126.11676 c 0.360051,-0.15213 1.704445,0.17408 2.142534,0.3163 0.438089,0.14223 0.459805,0.95991 0.0723,1.08443 -0.665634,0.1755 -1.496577,-0.0553 -2.151571,-0.41572 -0.750406,-0.61233 -0.423312,-0.83288 -0.06326,-0.98501 z"
           sodipodi:nodetypes="zzcczz" /></g></g><g
       inkscape:groupmode="layer"
       id="layer12"
       inkscape:label="Lights"
       style="opacity:1"><path
         id="path61215"
         style="opacity:1;fill:#898782;stroke:#000000;stroke-width:0.529167"
         d="m 33.439621,95.577898 c -1.158349,4.449052 -4.249488,6.615262 -6.833974,6.615262 -3.166305,0 -4.313245,-2.697129 -4.699367,-4.157132 -0.752543,-2.845508 -0.07121,-4.564514 0.887309,-7.096067 2.603863,-6.877084 4.018681,-7.183028 5.890624,-7.453894 4.15833,-0.601701 6.399912,5.775525 4.755408,12.091831 z"
         sodipodi:nodetypes="ssssss" /><path
         id="path58875"
         style="opacity:1;fill:#fffccf;stroke:#000000;stroke-width:0.529167"
         d="m 32.590512,93.528376 c -1.803218,7.638124 -5.383392,7.284944 -6.773714,7.361624 -1.184033,0.0653 -5.722499,-1.594612 -3.553005,-8.818611 0.698401,-2.32554 3.264177,-7.513082 6.134685,-7.489428 3.158442,0.02603 5.456635,3.589777 4.192034,8.946415 z"
         sodipodi:nodetypes="sssss" /><path
         id="path61215-8"
         style="display:inline;opacity:1;fill:#898782;stroke:#000000;stroke-width:0.529167"
         d="m 97.472872,106.01923 c -0.943617,4.9037 -5.606864,7.33446 -8.677576,6.66948 -3.094574,-0.67014 -4.620511,-3.20321 -4.95241,-4.78973 -0.602696,-2.88098 -0.115254,-5.24841 0.381223,-7.909426 1.013309,-5.431128 5.951269,-6.774985 7.820962,-6.488995 4.354582,0.666082 6.793904,5.419434 5.427801,12.518671 z"
         sodipodi:nodetypes="ssssss" /><path
         id="path58875-6"
         style="display:inline;fill:#fffccf;stroke:#000000;stroke-width:0.529167"
         d="m 96.80924,104.05861 c -0.978403,6.48658 -5.822076,7.33197 -7.208249,7.46387 -1.339424,0.12746 -7.652319,-2.53169 -6.339175,-10.22448 0.649495,-3.804939 3.246174,-6.499196 6.850398,-6.645909 3.599922,-0.146538 7.687224,2.841734 6.697026,9.406519 z"
         sodipodi:nodetypes="sssss" /></g><g
       inkscape:groupmode="layer"
       id="layer13"
       inkscape:label="Handles"><path
         id="rect69754"
         style="display:inline;opacity:1;fill:#110501;fill-opacity:1;stroke:#110701;stroke-width:0.627751;stroke-opacity:1"
         transform="matrix(0.72629376,0.68738444,0,1,0,0)"
         d="m 180.70021,-13.887975 c 2.26792,-0.44803 4.49557,-0.663614 6.62332,-0.302626 l -0.0528,1.881585 -6.58813,0.329557 z"
         sodipodi:nodetypes="ccccc" /><path
         id="rect69754-2"
         style="display:inline;fill:#110501;fill-opacity:1;stroke:#110701;stroke-width:0.391499;stroke-opacity:1"
         d="m 138.62205,116.96704 c 1.1724,0.83582 3.17348,2.5758 4.27342,3.94782 l -0.84065,0.92747 -3.44188,-3.44847 z"
         sodipodi:nodetypes="ccccc" /><path
         id="rect90431-4"
         style="fill:#776459;stroke-width:0.3915"
         d="m 138.565,116.85643 c 2.00763,1.46636 3.60589,3.13651 4.3674,4.10447 l -0.44283,0.41916 -3.94387,-3.72921 z"
         sodipodi:nodetypes="ccccc" /><path
         id="rect90431"
         style="opacity:1;fill:#776459;stroke-width:0.534988"
         d="m 131.16128,110.17553 c 2.82063,1.94895 3.9107,3.15981 4.9806,4.44633 v 0.9655 l -5.00771,-4.35595 z"
         sodipodi:nodetypes="ccccc" /></g><g
       inkscape:groupmode="layer"
       id="layer14"
       inkscape:label="Label"
       style="display:inline"><path
         style="display:inline;opacity:1;fill:#2a1c13;fill-opacity:1;stroke:#000001;stroke-width:0.534988;stroke-dasharray:none;stroke-opacity:1"
         d="m 117.47921,109.19739 c 0,0 18.91528,10.01998 27.70833,20.70456 0,0 -2.45388,3.57856 -4.08979,7.3105 0,0 -9.66213,-11.45141 -18.9664,-12.52498 z"
         id="path102872"
         inkscape:label="path102872" /><path
         style="opacity:1;fill:#efe9e9;fill-opacity:1;stroke:#000001;stroke-width:0;stroke-dasharray:none;stroke-opacity:1"
         d="m 122.57626,121.1018 0.96105,-1.84595 c 0,0 1.71889,1.87937 2.3515,1.17446 0.63261,-0.7049 0.65068,-1.15676 0.57838,-1.46403 -0.0723,-0.30726 -0.65068,-1.24714 -1.71707,-1.57248 -1.0664,-0.32534 0.25304,-1.66285 0.25304,-1.66285 0,0 0.74105,-0.79528 1.57248,-0.36149 0.83143,0.43379 1.19019,1.64515 1.42516,1.59093 0.23497,-0.0542 0.85223,-0.21727 0.67148,0.10807 -0.18074,0.32534 -0.99409,1.64478 -1.06639,1.26521 -0.0723,-0.37956 -1.29607,-1.22687 -1.04303,-0.34122 0.25304,0.88565 1.78531,2.67801 -0.16796,4.19109 -1.3393,1.03748 -3.81864,-1.08174 -3.81864,-1.08174 z"
         id="path103602"
         sodipodi:nodetypes="ccssscssssssc" /><path
         style="opacity:1;fill:#efe9e9;fill-opacity:1;stroke:#000001;stroke-width:0.264583;stroke-dasharray:none;stroke-opacity:1"
         d="m 127.66535,122.73204 c 0,0 1.72538,-3.08013 1.59757,-3.16959 -0.12781,-0.0895 -0.75406,-0.44732 -0.66459,-0.62625 0.0895,-0.17893 0.44732,-1.30362 0.62625,-1.12469 0.17893,0.17893 2.85007,1.7765 2.6328,2.00655 -0.21727,0.23005 -0.31951,1.36753 -0.71571,1.08635 -0.3962,-0.28117 -0.80518,-0.71571 -0.89464,-0.0511 -0.0895,0.66459 -0.75406,3.33574 -1.29084,3.08012 -0.53679,-0.25561 -1.46977,-0.9841 -1.29084,-1.20137 z"
         id="path106909" /><path
         style="opacity:1;fill:#efe9e9;fill-opacity:1;stroke:#000001;stroke-width:0.264583;stroke-dasharray:none;stroke-opacity:1"
         d="m 132.43251,120.61046 c 0,0 -2.39762,1.91184 -1.7672,4.54822 0.94676,2.2478 2.47655,0.0488 3.06216,-0.93169 0.24703,-0.41362 1.2995,-2.00618 1.03111,-2.18511 -0.2684,-0.17892 -0.80518,-0.74127 -0.89465,-0.39619 -0.0895,0.34507 -1.58373,2.8773 -1.91671,2.43671 -0.1763,-0.23327 -0.4477,-0.64743 0.30639,-1.68266 0.75406,-1.03523 1.15025,-1.26528 0.93298,-1.39308 -0.21727,-0.12781 -0.53678,-0.53679 -0.75405,-0.3962 z"
         id="path106911"
         sodipodi:nodetypes="ccsssssssc" /><path
         id="path108122"
         style="opacity:1;fill:#efe9e9;fill-opacity:1;stroke:#000001;stroke-width:0.264583;stroke-dasharray:none;stroke-opacity:1"
         d="m 135.05191,122.90761 c -0.45737,0.2562 -2.33089,4.93348 -2.33099,4.93305 0.37206,0.0321 1.92936,1.16187 3.27129,-1.10215 0.43709,-1.69391 0.7394,-3.16783 -0.9403,-3.8309 z m 0.064,1.68898 c 0,0 0.76666,0.17764 0.3018,1.23064 -0.5332,0.96698 -1.13339,0.49745 -1.13339,0.49745 z"
         sodipodi:nodetypes="ccccsccs" /><path
         style="opacity:1;fill:#efe9e9;fill-opacity:1;stroke:#000001;stroke-width:0.264583;stroke-dasharray:none;stroke-opacity:1"
         d="m 138.45977,125.75977 c 0,0 -1.27331,-1.07487 -1.45521,-0.62839 -0.22711,0.55745 -1.7198,5.32474 -1.55443,5.32474 0.16536,0 1.62057,0.9095 1.96784,0.85989 0.34726,-0.0496 0.33568,-0.95205 0.1819,-1.01285 -0.17777,-0.0703 -0.93431,-0.23566 -0.76894,-0.51677 0.16536,-0.28112 0.0496,-0.43822 0.58704,-0.39687 0.76894,0.0744 0.69489,-0.16672 0.78548,-0.71107 0.0552,-0.33191 -0.25632,-0.45475 -0.63665,-0.57051 -0.62263,-0.18951 -0.25632,-1.11621 -0.0248,-1.0666 0.23151,0.0496 1.14906,0.0917 1.23197,-0.19843 0.0992,-0.34727 0.19017,-0.73588 -0.31419,-1.08314 z"
         id="path108130"
         sodipodi:nodetypes="cssssscsssscc" /><path
         style="opacity:1;fill:#efe9e9;fill-opacity:1;stroke:#000001;stroke-width:0.264583;stroke-dasharray:none;stroke-opacity:1"
         d="m 137.65049,131.34794 c 0,0 1.74226,-5.0514 1.98781,-4.81754 0.24556,0.23387 0.56127,1.19269 0.65481,2.45554 0.0935,1.26285 0.78344,-0.78343 0.78344,-0.78343 0,0 0.0468,-0.21047 0.29232,0.1637 0.24556,0.37418 0.60804,0.65481 0.44434,0.81851 -0.1637,0.16371 -1.85756,4.80097 -2.31003,3.92887 -0.42614,-0.82135 -0.19228,-1.5084 -0.27413,-2.08137 -0.0819,-0.57295 -0.36249,1.14592 -0.77174,0.77175 -0.40926,-0.37418 -0.80682,-0.45603 -0.80682,-0.45603 z"
         id="path108133"
         sodipodi:nodetypes="csccssscsc" /><path
         style="opacity:1;fill:#efe9e9;fill-opacity:1;stroke:#000001;stroke-width:0.264583;stroke-dasharray:none;stroke-opacity:1"
         d="m 140.51528,133.68655 c 0,0 0.68151,0.40565 1.04871,0.062 0.75534,-0.70691 0.89323,-2.1002 1.27987,-1.88092 0.29698,0.16844 0.6825,0.57911 0.78662,0.42581 0.13859,-0.20406 1.07763,-0.72844 0.52134,-1.14427 -0.65699,-0.4911 -1.81432,-2.0954 -2.08136,-1.88257 -0.029,0.44433 -0.97571,1.52244 -0.48461,1.52244 0.49111,0 0.56646,0.43029 0.11043,1.16695 -0.45603,0.73667 -1.181,1.73058 -1.181,1.73058 z"
         id="path108135"
         sodipodi:nodetypes="csssscsscc" /></g><path
       style="display:inline;opacity:1;fill:none;fill-opacity:1;stroke:#000000;stroke-width:0.529167;stroke-dasharray:none;stroke-opacity:1"
       d="m 97.52994,114.59225 1.518256,-1.30136 -1.518256,-1.22906 3.5426,-0.28919 c 0,0 -2.122203,-8.7057 2.21568,-12.754392 4.33787,-4.048686 0.31475,-5.175504 0.31475,-5.175504 l -7.808181,-3.036515"
       id="path68243"
       sodipodi:nodetypes="ccccscc" /><path
       style="opacity:1;fill:none;fill-opacity:1;stroke:#000000;stroke-width:0.529167;stroke-dasharray:none;stroke-opacity:1"
       d="m 108.02157,105.82331 c -0.35631,-0.35631 9.01823,-12.037393 12.11601,-2.505"
       id="path68971"
       sodipodi:nodetypes="cc" /><path
       style="display:inline;opacity:1;fill:none;fill-opacity:1;stroke:#000001;stroke-width:0.534988;stroke-dasharray:none;stroke-opacity:1"
       d="m 132.95287,137.68104 c 3.46845,-8.53033 6.89174,-35.06051 9.32951,-42.609234"
       id="path96088"
       sodipodi:nodetypes="cc" /><path
       style="opacity:1;fill:#938f92;fill-opacity:1;stroke:#000001;stroke-width:0.79375;stroke-dasharray:none;stroke-opacity:1"
       d="m 123.8527,134.89093 0.23386,1.47332 c 0.27675,0.37236 7.36263,0.87891 14.07842,7.20292 l 0.49111,-1.49671 c 0.005,0.005 -5.98343,-5.56248 -14.80339,-7.17953 z"
       id="path109589"
       sodipodi:nodetypes="ccccc" /></g><g
     inkscape:groupmode="layer"
     id="layer19"
     inkscape:label="Back_Wheel"
     style="display:inline"
     sodipodi:insensitive="true"><path
       id="path145600"
       style="opacity:1;fill:#503f31;stroke:#000001;stroke-width:0.264583"
       d="m 147.17046,144.83619 c -1.59051,3.50626 -5.64966,8.93836 -6.81821,8.63985 -1.08457,-0.27705 -0.67244,-5.38642 1.36519,-9.95612 2.14071,-4.80088 5.18943,-9.13639 7.06107,-9.04544 2.26183,0.10991 0.20215,6.37114 -1.60805,10.36171 z"
       sodipodi:nodetypes="sssss"
       inkscape:label="Back_Wheel_Face" /><path
       style="opacity:1;fill:#998983;fill-opacity:1;stroke:#000001;stroke-width:0.264583;stroke-dasharray:none;stroke-opacity:1"
       d="m 145.88463,143.85065 c 0.73619,-1.58072 2.29986,-5.10917 0.54571,-3.853 -1.52636,1.09305 -4.18373,7.01146 -4.28294,8.63204 -0.0684,1.11812 0.71249,0.43563 0.92604,0.0661 0.92653,-1.60306 2.22459,-3.58565 2.81119,-4.84518 z"
       id="path161768"
       sodipodi:nodetypes="sssss"
       inkscape:label="Back_Wheel_Hub" /></g><g
     inkscape:groupmode="layer"
     id="layer18"
     inkscape:label="Front_wheel"
     style="display:inline"
     sodipodi:insensitive="true"><path
       style="display:inline;opacity:1;fill:#433830;fill-opacity:1;stroke:#000001;stroke-width:0.264583;stroke-dasharray:none;stroke-opacity:1"
       d="m 115.32526,108.08229 c -3.194,-1.11827 -11.7463,12.4393 -7.23965,29.73422 4.59227,17.6235 13.03472,8.13195 13.56425,7.24171 0.52953,-0.89024 3.58665,-6.34049 1.94128,-18.19051 -1.68106,-12.10705 -5.07188,-17.66715 -8.26588,-18.78542 z"
       id="path130587"
       sodipodi:nodetypes="zszsz"
       inkscape:label="Front_Wheel_Face" /><path
       style="display:inline;opacity:1;fill:#998983;fill-opacity:1;stroke:#000001;stroke-width:0.264583;stroke-dasharray:none;stroke-opacity:1"
       d="m 114.66948,116.08261 c -1.49004,-0.0891 -2.77813,5.23366 -2.58869,12.33786 0.25926,9.72274 3.18277,11.86446 3.65504,11.97406 0.47228,0.10961 2.1384,-0.55531 2.79917,-4.86172 0.9121,-5.94434 0.46537,-10.17912 -0.29932,-13.75833 -0.81459,-3.81278 -2.07617,-5.60277 -3.5662,-5.69187 z"
       id="path136828"
       sodipodi:nodetypes="zszssz"
       inkscape:label="Front_Wheel_Hub" /><path
       style="opacity:1;fill:none;fill-opacity:1;stroke:#000001;stroke-width:0.264583;stroke-dasharray:none;stroke-opacity:1"
       d="m 114.46536,123.92421 c 0.21912,0.58659 1.16716,1.65183 1.50482,1.12448 0.87283,-1.36315 0.78955,-5.40225 -0.34726,-6.44921 -1.47098,-1.35471 -1.79316,3.6232 -1.15756,5.32473 z"
       id="path164557"
       sodipodi:nodetypes="assa" /><path
       style="opacity:1;fill:none;fill-opacity:1;stroke:#000001;stroke-width:0.264583;stroke-dasharray:none;stroke-opacity:1"
       d="m 117.89668,125.26368 c -0.2306,-0.21311 -0.28157,-0.36237 -0.62839,-0.12403 -0.8356,0.57424 -1.11418,5.72303 0.54571,5.76295 0.99035,0.0238 0.77958,-2.14912 0.75241,-3.26595 -0.02,-0.82165 -0.26686,-2.00065 -0.66973,-2.37297 z"
       id="path164559"
       sodipodi:nodetypes="sssas" /><path
       style="opacity:1;fill:none;fill-opacity:1;stroke:#000001;stroke-width:0.264583;stroke-dasharray:none;stroke-opacity:1"
       d="m 114.14747,124.64782 c 0,0 -0.81851,-0.23386 -1.05237,0.98222 -0.23386,1.21608 0.41084,4.82315 0.97218,4.65944 0.56126,-0.1637 0.66485,-2.33252 0.61807,-3.02241 -0.0457,-0.67343 0.11697,-2.03459 -0.53788,-2.61925 z"
       id="path164562"
       sodipodi:nodetypes="csssc" /><path
       style="opacity:1;fill:none;fill-opacity:1;stroke:#000001;stroke-width:0.264583;stroke-dasharray:none;stroke-opacity:1"
       d="m 115.81308,132.68027 c -0.28088,-0.10038 -0.60676,-0.0657 -0.76894,0.37207 -0.38068,1.02764 -0.78797,4.44437 0.75241,4.96094 0.51736,0.1735 0.77488,-0.60245 0.92603,-1.04179 0.33694,-0.97931 0.10875,-2.11156 -0.19843,-3.1006 -0.13712,-0.44146 -0.32592,-1.05298 -0.71107,-1.19062 z"
       id="path164564"
       sodipodi:nodetypes="sssaas" /></g><g
     inkscape:groupmode="layer"
     id="layer1"
     inkscape:label="Title"
     transform="matrix(0.91407558,0,0,0.91407558,0.58802406,1.2072273)"
     sodipodi:insensitive="true"
     style="display:inline"><text
       xml:space="preserve"
       style="font-size:50.8px;font-family:'MS Gothic';-inkscape-font-specification:'MS Gothic';letter-spacing:-1.73526px;display:inline;mix-blend-mode:normal;fill:#000000;fill-opacity:1;stroke:#000000;stroke-width:2.0887;stroke-dasharray:none;stroke-opacity:1;filter:url(#filter7316)"
       x="3.8854079"
       y="48.668583"
       id="text5434-1"
       inkscape:label="Shadow"><tspan
         sodipodi:role="line"
         id="tspan5432-1"
         style="font-style:normal;font-variant:normal;font-weight:bold;font-stretch:normal;font-size:50.8px;font-family:Corbel;-inkscape-font-specification:'Corbel Bold';fill:#000000;fill-opacity:1;stroke:#000000;stroke-width:2.0887;stroke-dasharray:none;stroke-opacity:1"
         x="3.8854079"
         y="48.668583"
         dx="0">DRIVER'S ED</tspan></text><text
       xml:space="preserve"
       style="font-size:50.8px;font-family:'MS Gothic';-inkscape-font-specification:'MS Gothic';letter-spacing:-1.73526px;display:inline;opacity:1;fill:#ffffff;fill-opacity:1;stroke:#000000;stroke-width:1.32292;stroke-dasharray:none;stroke-opacity:1"
       x="3.8853021"
       y="48.668503"
       id="text5434"
       inkscape:label="Text"><tspan
         sodipodi:role="line"
         id="tspan5432"
         style="font-style:normal;font-variant:normal;font-weight:bold;font-stretch:normal;font-size:50.8px;font-family:Corbel;-inkscape-font-specification:'Corbel Bold';fill:#ffffff;fill-opacity:1;stroke:#000000;stroke-width:1.32292;stroke-dasharray:none;stroke-opacity:1"
         x="3.8853021"
         y="48.668503"
         dx="0">DRIVER'S ED</tspan></text></g></svg>
