<?xml version="1.0" encoding="UTF-8" standalone="no"?>
<!-- Created with Inkscape (http://www.inkscape.org/) -->

<svg
   width="960"
   height="720"
   viewBox="0 0 253.99999 190.5"
   version="1.1"
   id="svg5"
   inkscape:version="1.2.2 (732a01da63, 2022-12-09)"
   xml:space="preserve"
   sodipodi:docname="instructions_08.svg"
   inkscape:export-filename="game_over_loss_background.webp"
   inkscape:export-xdpi="96"
   inkscape:export-ydpi="96"
   xmlns:inkscape="http://www.inkscape.org/namespaces/inkscape"
   xmlns:sodipodi="http://sodipodi.sourceforge.net/DTD/sodipodi-0.dtd"
   xmlns:xlink="http://www.w3.org/1999/xlink"
   xmlns="http://www.w3.org/2000/svg"
   xmlns:svg="http://www.w3.org/2000/svg"><sodipodi:namedview
     id="namedview7"
     pagecolor="#ffffff"
     bordercolor="#000000"
     borderopacity="0.25"
     inkscape:showpageshadow="2"
     inkscape:pageopacity="0.0"
     inkscape:pagecheckerboard="0"
     inkscape:deskcolor="#d1d1d1"
     inkscape:document-units="px"
     showgrid="false"
     showguides="true"
     inkscape:zoom="1.28"
     inkscape:cx="632.42188"
     inkscape:cy="416.40625"
     inkscape:window-width="2560"
     inkscape:window-height="1377"
     inkscape:window-x="2552"
     inkscape:window-y="-8"
     inkscape:window-maximized="1"
     inkscape:current-layer="svg5"><sodipodi:guide
       position="85.067626,150.21557"
       orientation="0,-1"
       id="guide239"
       inkscape:locked="false" /><sodipodi:guide
       position="231.07312,39.995732"
       orientation="0,-1"
       id="guide241"
       inkscape:locked="false" /><sodipodi:guide
       position="231.07312,91.527085"
       orientation="1,0"
       id="guide243"
       inkscape:locked="false" /><sodipodi:guide
       position="84.863137,50.015717"
       orientation="1,0"
       id="guide245"
       inkscape:locked="false" /></sodipodi:namedview><defs
     id="defs2"><filter
       style="color-interpolation-filters:sRGB;"
       inkscape:label="Drop Shadow"
       id="filter3043"
       x="-0.039912688"
       y="-0.013283609"
       width="1.1463465"
       height="1.0487066"><feFlood
         flood-opacity="0.498039"
         flood-color="rgb(0,0,0)"
         result="flood"
         id="feFlood3033" /><feComposite
         in="flood"
         in2="SourceGraphic"
         operator="in"
         result="composite1"
         id="feComposite3035" /><feGaussianBlur
         in="composite1"
         stdDeviation="0.5"
         result="blur"
         id="feGaussianBlur3037" /><feOffset
         dx="2"
         dy="2"
         result="offset"
         id="feOffset3039" /><feComposite
         in="SourceGraphic"
         in2="offset"
         operator="over"
         result="composite2"
         id="feComposite3041" /></filter><filter
       style="color-interpolation-filters:sRGB;"
       inkscape:label="Drop Shadow"
       id="filter15785"
       x="-0.015442707"
       y="-0.020664545"
       width="1.0566233"
       height="1.07577"><feFlood
         flood-opacity="0.498039"
         flood-color="rgb(0,0,0)"
         result="flood"
         id="feFlood15775" /><feComposite
         in="flood"
         in2="SourceGraphic"
         operator="in"
         result="composite1"
         id="feComposite15777" /><feGaussianBlur
         in="composite1"
         stdDeviation="0.5"
         result="blur"
         id="feGaussianBlur15779" /><feOffset
         dx="2"
         dy="2"
         result="offset"
         id="feOffset15781" /><feComposite
         in="SourceGraphic"
         in2="offset"
         operator="over"
         result="composite2"
         id="feComposite15783" /></filter><filter
       style="color-interpolation-filters:sRGB;"
       inkscape:label="Drop Shadow"
       id="filter18791"
       x="-0.010951969"
       y="-0.013190877"
       width="1.0401572"
       height="1.0483665"><feFlood
         flood-opacity="0.498039"
         flood-color="rgb(0,0,0)"
         result="flood"
         id="feFlood18781" /><feComposite
         in="flood"
         in2="SourceGraphic"
         operator="in"
         result="composite1"
         id="feComposite18783" /><feGaussianBlur
         in="composite1"
         stdDeviation="0.5"
         result="blur"
         id="feGaussianBlur18785" /><feOffset
         dx="2"
         dy="2"
         result="offset"
         id="feOffset18787" /><feComposite
         in="SourceGraphic"
         in2="offset"
         operator="over"
         result="composite2"
         id="feComposite18789" /></filter><filter
       style="color-interpolation-filters:sRGB;"
       inkscape:label="Drop Shadow"
       id="filter29217"
       x="-0.023496814"
       y="-0.017061548"
       width="1.086155"
       height="1.062559"><feFlood
         flood-opacity="0.498039"
         flood-color="rgb(0,0,0)"
         result="flood"
         id="feFlood29207" /><feComposite
         in="flood"
         in2="SourceGraphic"
         operator="in"
         result="composite1"
         id="feComposite29209" /><feGaussianBlur
         in="composite1"
         stdDeviation="0.5"
         result="blur"
         id="feGaussianBlur29211" /><feOffset
         dx="2"
         dy="2"
         result="offset"
         id="feOffset29213" /><feComposite
         in="SourceGraphic"
         in2="offset"
         operator="over"
         result="composite2"
         id="feComposite29215" /></filter><clipPath
       clipPathUnits="userSpaceOnUse"
       id="clipPath32660"><rect
         style="opacity:0.354839;fill:#a36648;stroke-width:0.79425"
         id="rect32662"
         width="146.23682"
         height="110.18407"
         x="84.857468"
         y="40.278763" /></clipPath><filter
       style="color-interpolation-filters:sRGB;"
       inkscape:label="Drop Shadow"
       id="filter33147"
       x="-0.021253897"
       y="-0.012205393"
       width="1.077931"
       height="1.0447531"><feFlood
         flood-opacity="0.498039"
         flood-color="rgb(0,0,0)"
         result="flood"
         id="feFlood33137" /><feComposite
         in="flood"
         in2="SourceGraphic"
         operator="in"
         result="composite1"
         id="feComposite33139" /><feGaussianBlur
         in="composite1"
         stdDeviation="0.5"
         result="blur"
         id="feGaussianBlur33141" /><feOffset
         dx="2"
         dy="2"
         result="offset"
         id="feOffset33143" /><feComposite
         in="SourceGraphic"
         in2="offset"
         operator="over"
         result="composite2"
         id="feComposite33145" /></filter></defs><g
     id="g246"
     style="display:none"><rect
       style="display:inline;fill:#999966;fill-opacity:1;stroke-width:0.264583"
       id="rect56123"
       width="272.41867"
       height="212.55598"
       x="-11.567673"
       y="-13.013632"
       inkscape:label="Background" /><ellipse
       style="display:inline;opacity:1;fill:#ffffcc;fill-opacity:1;stroke-width:0.277699"
       id="path57283"
       cx="127.09089"
       cy="167.59496"
       rx="124.04874"
       ry="20.604918"
       inkscape:label="Floor" /><rect
       style="display:inline;opacity:1;fill:#cccc99;fill-opacity:1;stroke-width:0.28124"
       id="rect60307"
       width="180.7858"
       height="120.86079"
       x="60.518295"
       y="46.761066"
       transform="matrix(0.99713348,-0.07566261,0.06976208,0.99756366,0,0)"
       ry="10.360401"
       inkscape:label="TextBG" /></g><image
     preserveAspectRatio="none"
     inkscape:svg-dpi="96"
     width="194.46875"
     height="190.5"
     xlink:href="../parallel_parking.svg"
     id="image23290"
     x="54.074215"
     y="4.2102933"
     clip-path="url(#clipPath32660)"
     style="display:inline"
     inkscape:export-filename=".\instructions_08.webp"
     inkscape:export-xdpi="96"
     inkscape:export-ydpi="96" /><path
     style="display:inline;opacity:0.6;fill:#0cc00c;fill-opacity:1;stroke-width:0.79375"
     d="m 159.77445,92.134207 c 17.43097,0.08975 25.52372,16.170273 25.52372,27.487413 v 41.23884 h -26.12664 c 0,0 -0.0439,-11.1404 0,-15.51341 0,-16.70573 -5.24963,-25.17657 -18.41654,-25.17657 -20.35741,0 -22.41845,-21.586257 -22.5091,-25.356598 v -63.20754 h 29.92687 v 47.555897 c 0,6.91169 2.88115,12.927067 11.60169,12.971968 z"
     id="path25825"
     sodipodi:nodetypes="sccccsccczs" /><path
     style="opacity:1;fill:#66ff66;fill-opacity:1;stroke-width:0.79375;filter:url(#filter33147)"
     id="path32772"
     d="m 175.09642,121.95102 c -0.29072,0.46018 -0.52435,0.94953 -0.77569,1.43082 -0.2293,0.43908 -0.2996,0.48889 -0.51959,0.98885 -0.11244,0.25554 -0.20381,0.51984 -0.30571,0.77976 -0.25755,0.5421 -0.4306,1.11609 -0.63499,1.67812 -0.18321,0.50379 -0.38769,0.99513 -0.55833,1.50452 -0.18457,0.40771 -0.35959,0.82182 -0.49259,1.24975 -0.0598,0.19251 -0.10046,0.3906 -0.15952,0.58335 -0.0806,0.26309 -0.18506,0.51831 -0.27307,0.77902 -0.25143,0.76249 -0.40471,1.55252 -0.49296,2.34952 -0.0871,0.78667 0.002,0.33422 -0.10825,0.83137 -0.16431,1.16153 -0.48964,2.28791 -0.71989,3.43704 -0.11456,0.62643 -0.18971,1.25915 -0.23794,1.89392 -0.0259,0.34113 -0.0117,0.64282 -0.12894,0.96034 0.36186,-1.2212 1.30766,-1.36305 2.42029,-1.15231 1.07464,0.20354 0.28444,0.29976 0.73268,0.57956 0.0248,0.0155 -0.002,-0.0584 -0.003,-0.0877 -0.0844,-0.46716 -0.0651,-0.9443 -0.10574,-1.41484 -0.0415,-0.48114 -0.094,-0.77636 -0.16565,-1.24277 -0.10396,-0.47651 -0.10641,-0.96967 -0.18334,-1.44934 -0.0975,-0.60797 -0.2628,-1.20303 -0.38392,-1.80635 -0.18153,-1.07228 -0.40537,-2.15081 -0.80943,-3.16501 -0.091,-0.2284 -0.20077,-0.44887 -0.30116,-0.6733 -0.44924,-0.98314 -1.02472,-1.90164 -1.62848,-2.79606 -0.75742,-1.0853 -1.57496,-2.11934 -2.48851,-3.07716 -0.94464,-1.06834 -2.05271,-1.97006 -3.11277,-2.91703 -0.14067,-0.13252 -0.2782,-0.26845 -0.42199,-0.39757 -0.16933,-0.15205 -0.34767,-0.29388 -0.51715,-0.44577 -0.35853,-0.32131 -0.67033,-0.68798 -1.01898,-1.01855 -0.17285,-0.16388 -0.35597,-0.31659 -0.53395,-0.47489 -0.59254,-0.55781 -1.11975,-1.18052 -1.6958,-1.75432 -0.70297,-0.66664 -0.38462,-0.35473 -0.95955,-0.93113 -0.13332,-0.13788 -0.27266,-0.2702 -0.39996,-0.41365 -0.11095,-0.12502 -0.20456,-0.26464 -0.31406,-0.39094 -0.181,-0.20875 -0.37285,-0.40787 -0.55707,-0.61378 -0.35349,-0.39511 -0.68525,-0.80941 -1.04187,-1.20169 -0.22429,-0.24671 -0.46093,-0.4819 -0.69139,-0.72285 -1.50725,-1.59526 -3.13133,-3.07581 -4.71957,-4.58946 -1.13826,-1.03002 -2.18438,-2.15148 -3.11931,-3.36838 -0.13536,-0.19441 -0.26524,-0.39275 -0.40607,-0.58324 -0.81413,-1.10122 -0.36767,-0.40873 -1.09411,-1.48557 -0.57676,-0.85496 -1.09194,-1.74271 -1.60786,-2.63499 -0.53771,-0.942754 -1.07485,-1.882967 -1.66702,-2.792853 -0.18022,-0.276905 -0.37469,-0.544539 -0.5494,-0.824952 -0.0983,-0.157853 -0.73684,-1.298583 -0.81659,-1.440506 -0.105,-0.212381 -0.20711,-0.42622 -0.31501,-0.637143 -0.27712,-0.5417 -0.41365,-0.752774 -0.65206,-1.284184 -0.33329,-0.742868 -0.62959,-1.50282 -0.96078,-2.247093 -0.75894,-1.802321 -1.24097,-3.704063 -1.66849,-5.607823 -0.34726,-1.847622 -0.60617,-3.711575 -0.80035,-5.581483 -0.0258,-0.320418 -0.0542,-0.640635 -0.0773,-0.961257 -0.0215,-0.297781 -0.0309,-0.596422 -0.0565,-0.893882 -0.0887,-1.032148 -0.25512,-2.056334 -0.36452,-3.08633 -0.13356,-1.359591 -0.14746,-2.726976 -0.16115,-4.091879 -0.001,-0.244946 0.009,-0.490257 -0.004,-0.734838 -0.034,-0.617966 -0.10425,-0.987989 -0.19057,-1.58677 -0.0943,-0.653978 -0.17581,-1.307534 -0.24491,-1.964605 -0.12635,-1.301692 -0.13532,-2.610779 -0.14649,-3.91736 -0.008,-1.467612 -0.005,-2.935253 -0.003,-4.402876 10e-4,-1.202282 0.002,-2.404562 0.002,-3.606845 2.2e-4,-1.172861 2e-4,-2.345721 1.9e-4,-3.518582 -1e-5,-1.19311 -1e-5,-2.386219 -2e-5,-3.579329 0.0164,-1.455345 -0.34744,-2.099333 -2.30759,-2.609302 -0.54734,-0.142396 -1.45911,0.587526 -1.85549,0.997741 -0.18034,0.186643 -0.33447,0.396944 -0.50171,0.595413 -0.72807,0.811832 -1.26014,1.76647 -1.88079,2.655814 -0.48174,0.898273 -1.15203,1.643523 -1.79648,2.421842 -0.45771,0.730829 -1.03269,1.373362 -1.58251,2.033736 -0.34308,0.409228 -0.66051,0.834742 -0.98523,1.258247 -0.27137,0.353925 -0.30774,0.338992 -0.58198,0.754404 -0.12594,0.190772 -0.23484,0.392266 -0.35226,0.588399 -0.0612,0.07846 -0.12605,0.154252 -0.18372,0.23537 -0.11489,0.161605 -0.21543,0.33328 -0.33369,0.492432 -0.0655,0.08808 -0.14659,0.163436 -0.21653,0.248007 -0.21894,0.264758 -0.51602,0.630032 -0.6702,0.932717 -0.11568,0.227087 -0.19033,0.472835 -0.28549,0.70925 0.60236,0.854163 0.96523,1.94304 1.80708,2.562487 0.35005,0.25757 0.85824,-0.157196 1.26904,-0.299024 0.33752,-0.116528 0.83998,-0.608399 1.07405,-0.811662 0.4509,-0.391557 0.16441,-0.127617 0.70453,-0.65926 0.55681,-0.689763 1.24631,-1.253484 1.82173,-1.925891 0.15394,-0.179885 0.29547,-0.370033 0.44321,-0.555048 0.64369,-0.765887 1.21818,-1.588646 1.77346,-2.419702 0.0778,-0.109212 0.15981,-0.215511 0.23332,-0.327636 0.11322,-0.17271 0.21366,-0.353568 0.32661,-0.52646 0.2855,-0.437029 0.14783,-0.139679 0.47295,-0.69777 0.55556,-0.953648 0.10397,-0.282324 0.43347,-0.760807 0.18811,-0.309247 0.39264,-0.610526 0.61386,-0.897961 0.0248,-0.03227 0.0616,-0.05324 0.0924,-0.07986 0.0918,-0.109366 0.19097,-0.213011 0.27554,-0.328099 0.12739,-0.173379 0.23963,-0.357399 0.35945,-0.536096 0.2954,-0.301229 0.40008,-0.787879 0.74282,-1.045732 0.008,-0.0058 0.0263,0.01225 0.0209,0.02024 -0.033,0.04809 -0.0808,0.08407 -0.12123,0.1261 0.85206,0.615289 -0.75762,0.01506 -0.63557,0.200713 0.0404,0.06141 0.14595,0.02511 0.21411,0.05262 0.0115,0.0046 -0.0408,0.01508 -0.0303,0.02154 0.22149,0.135756 0.37684,0.115727 0.20544,0.127082 0.26974,0.186415 0.52978,0.391454 0.77322,0.612257 0.0252,0.02286 0.0331,0.06057 0.0571,0.08459 0.78833,0.785177 0.1082,0.05569 0.53375,0.517784 0.35933,0.315896 0.66987,0.679392 1.01098,1.014635 0.47055,0.46247 0.2506,0.188364 0.46335,0.466828 0.006,0.02283 0.005,0.04908 0.0185,0.0685 0.14387,0.207076 0.32795,0.398174 0.45135,0.622469 0.14156,0.257305 0.25639,0.536588 0.36988,0.80763 0.51173,0.990484 1.11583,1.92714 1.77967,2.821287 0.36313,0.521652 0.72049,1.045141 1.08208,1.567709 0.0717,0.103576 0.1326,0.214643 0.20869,0.315021 0.13259,0.17491 0.27774,0.339926 0.41662,0.509889 0.2245,0.315296 0.49928,0.588039 0.74293,0.887992 1.80259,2.179574 4.88498,-0.369676 3.08239,-2.54925 v 0 c -0.26151,-0.312899 -0.54061,-0.604409 -0.78166,-0.934093 -0.27011,-0.273524 -0.0559,-0.03982 -0.42272,-0.566576 -0.38055,-0.546505 -0.75015,-1.09982 -1.13714,-1.642351 -0.48916,-0.626446 -0.89114,-1.313839 -1.29807,-1.994038 -0.21857,-0.498112 -0.44198,-0.995246 -0.72686,-1.460436 -0.58565,-0.956339 -0.0914,-0.12619 -0.41624,-0.569537 -0.12974,-0.177072 -0.25186,-0.359608 -0.37779,-0.539414 -0.28656,-0.310517 -0.57914,-0.608026 -0.879,-0.905401 -0.0451,-0.04474 -0.0997,-0.07929 -0.14416,-0.124712 -0.13477,-0.137771 -0.25767,-0.286858 -0.39285,-0.424235 -0.0515,-0.05237 -0.11108,-0.09622 -0.16661,-0.14433 -0.59074,-0.602607 -1.19973,-1.197042 -1.89617,-1.67816 -0.20691,-0.134281 -0.40719,-0.279368 -0.62072,-0.402847 -0.53796,-0.311091 -1.56176,-0.627604 -2.18737,-0.579516 -0.3477,0.02673 -0.68339,0.139327 -1.02509,0.208989 -0.23745,0.136432 -0.48938,0.250309 -0.71236,0.409297 -0.70296,0.501229 -1.09795,1.276723 -1.58418,1.962068 -0.0857,0.198189 -0.0233,0.08117 -0.24345,0.343416 -0.39671,0.472636 -0.78426,0.958276 -1.09487,1.493903 -0.10547,0.172059 -0.21095,0.344117 -0.31642,0.516176 -0.0307,0.06862 -0.0551,0.140454 -0.0922,0.205878 -0.30131,0.531854 -0.69463,1.012618 -1.01859,1.530019 -0.41262,0.641913 0.12567,-0.182446 -0.52083,0.740156 -0.33974,0.484836 -0.66601,0.982011 -1.0672,1.421077 -0.57202,0.771321 -1.33469,1.367496 -1.93908,2.112161 -0.0731,0.07543 -0.14254,0.154696 -0.21945,0.22629 -0.12984,0.120867 -0.27342,0.226698 -0.40032,0.350644 -0.018,0.01762 -0.0142,0.04969 -0.0298,0.06949 -0.30187,0.382897 -0.11122,-0.902989 0.79338,-0.03205 0.73163,0.704393 1.11187,1.699874 1.6678,2.549809 -0.0532,0.09383 -0.10278,0.189841 -0.15967,0.281498 -0.0287,0.04621 0.0432,-0.100756 0.0749,-0.144952 0.0899,-0.125349 0.19208,-0.241419 0.28853,-0.361805 0.65821,-0.821602 0.23858,-0.263072 0.70691,-0.943274 0.13585,-0.19731 0.27459,-0.392618 0.41188,-0.588925 0.18414,-0.368009 0.4503,-0.652934 0.69958,-0.980289 0.27159,-0.356653 0.5451,-0.71029 0.8295,-1.057672 0.20767,-0.252259 0.42848,-0.493583 0.63413,-0.747498 0.0619,-0.07646 0.10915,-0.164008 0.17025,-0.241128 0.27022,-0.341101 0.59577,-0.654516 0.78481,-1.053196 0.7091,-0.865647 1.46118,-1.703289 2.00085,-2.692386 0.56226,-0.819798 1.05538,-1.690259 1.71832,-2.436979 0.0349,-0.0552 0.0664,-0.112652 0.10457,-0.165606 0.0301,-0.0418 0.15119,-0.12328 0.0999,-0.117972 -0.29088,0.03012 -0.59154,0.322889 -0.8551,0.196175 -0.69623,-0.334732 -1.24667,-0.922324 -1.79243,-1.469056 -0.0819,-0.08208 0.008,-0.4596 -0.0207,-0.347301 -0.0356,0.137999 0,0.285018 0,0.427527 1e-5,1.193107 1e-5,2.386214 3e-5,3.579321 0,1.172496 2e-5,2.344989 -2e-4,3.517484 -2.7e-4,1.201341 -0.001,2.402684 -0.002,3.604025 -0.001,1.480404 -0.005,2.96083 0.003,4.441224 0.0124,1.435688 0.0261,2.873933 0.16857,4.303927 0.0759,0.71337 0.16281,1.42353 0.26641,2.133473 0.007,0.04451 0.14086,0.905446 0.1469,1.018685 0.0134,0.250817 0.003,0.502338 0.004,0.753507 0.0152,1.493536 0.034,2.989593 0.18365,4.476999 0.10469,0.972087 0.26678,1.94034 0.34987,2.914428 0.0273,0.320532 0.0381,0.642286 0.0615,0.963128 0.0257,0.351242 0.0572,0.702032 0.0858,1.053047 0.21193,2.025978 0.49171,4.046228 0.87679,6.046737 0.48886,2.159664 1.04416,4.315256 1.91695,6.35622 0.35013,0.784199 0.66205,1.58564 1.01683,2.367442 0.28251,0.622533 0.36444,0.725828 0.67001,1.320636 0.13842,0.269451 0.27185,0.54144 0.40778,0.812159 0.25508,0.453546 0.71175,1.275461 0.97488,1.698678 0.16127,0.259382 0.34107,0.506783 0.50845,0.762259 0.56238,0.858368 1.06327,1.751168 1.57436,2.640638 0.57512,0.99307 1.15081,1.98115 1.79672,2.93065 1.00806,1.48186 0.21901,0.30169 1.09208,1.48267 0.17896,0.24207 0.34689,0.4921 0.52033,0.73815 1.06713,1.36669 2.23057,2.65132 3.52071,3.81286 1.54702,1.47434 3.1302,2.9153 4.59843,4.46898 1.06258,1.0927 2.00504,2.29595 3.05771,3.39725 0.15894,0.15839 0.31788,0.31679 0.47682,0.47518 0.13684,0.1273 0.27814,0.24997 0.41053,0.3819 0.66465,0.66231 1.27015,1.38429 1.96739,2.01446 0.40098,0.3361 0.74403,0.72325 1.12004,1.08666 0.82351,0.79588 0.10593,0.0926 0.83875,0.75183 0.17042,0.15331 0.33442,0.31361 0.50164,0.47042 0.98788,0.87689 2.0177,1.71507 2.89509,2.70803 0.51154,0.51919 0.11968,0.10607 0.71532,0.79477 0.10724,0.124 0.22506,0.23899 0.32681,0.36755 0.35452,0.44791 0.65446,0.93856 1.01426,1.38284 0.4885,0.71396 0.95152,1.44885 1.3112,2.23667 0.46502,0.916 0.64388,1.94545 0.81767,2.94876 0.0448,0.21785 0.0863,0.43641 0.13442,0.65355 0.0568,0.25605 0.14962,0.50437 0.19005,0.7635 0.0855,0.54801 0.0959,1.10915 0.20967,1.65383 0.0416,0.26541 0.0995,0.52896 0.12189,0.79667 0.0629,0.75346 0.0423,1.51796 0.23173,2.25747 0.06,0.20447 0.0978,0.41677 0.17986,0.61342 0.22734,0.54479 0.63372,1.29062 1.24439,1.49814 1.50554,0.51163 1.95312,0.19415 2.92018,-0.86254 0.13749,-0.15024 0.15971,-0.37471 0.23956,-0.56206 0.13728,-0.55696 0.15574,-0.55873 0.22204,-1.17085 0.0699,-0.6452 0.0604,-1.30137 0.2044,-1.93868 0.23034,-1.1671 0.56374,-2.31143 0.73022,-3.49085 0.0358,-0.21005 0.0786,-0.41902 0.10727,-0.63016 0.0909,-0.6707 0.10621,-1.35659 0.3507,-1.99908 0.11697,-0.34702 0.24416,-0.69075 0.35154,-1.04086 0.0289,-0.0941 0.0416,-0.19254 0.0692,-0.28699 0.13141,-0.44913 0.34873,-0.8667 0.51108,-1.3042 0.16775,-0.51359 0.3764,-1.00602 0.56125,-1.51337 0.18505,-0.50787 0.34167,-1.02711 0.57783,-1.51614 0.0463,-0.13284 0.0835,-0.26918 0.13877,-0.39853 0.28302,-0.66217 0.69657,-1.26584 0.99658,-1.91885 1.62198,-2.31712 -1.65492,-4.61095 -3.2769,-2.29383 z" /></svg>
