<?xml version="1.0" encoding="UTF-8" standalone="no"?>
<!-- Created with Inkscape (http://www.inkscape.org/) -->

<svg
   width="960"
   height="720"
   viewBox="0 0 253.99999 190.5"
   version="1.1"
   id="svg5"
   inkscape:version="1.2.2 (732a01da63, 2022-12-09)"
   xml:space="preserve"
   sodipodi:docname="instructions_07.svg"
   inkscape:export-filename="game_over_loss_background.webp"
   inkscape:export-xdpi="96"
   inkscape:export-ydpi="96"
   xmlns:inkscape="http://www.inkscape.org/namespaces/inkscape"
   xmlns:sodipodi="http://sodipodi.sourceforge.net/DTD/sodipodi-0.dtd"
   xmlns:xlink="http://www.w3.org/1999/xlink"
   xmlns="http://www.w3.org/2000/svg"
   xmlns:svg="http://www.w3.org/2000/svg"><sodipodi:namedview
     id="namedview7"
     pagecolor="#ffffff"
     bordercolor="#000000"
     borderopacity="0.25"
     inkscape:showpageshadow="2"
     inkscape:pageopacity="0.0"
     inkscape:pagecheckerboard="0"
     inkscape:deskcolor="#d1d1d1"
     inkscape:document-units="px"
     showgrid="false"
     showguides="true"
     inkscape:zoom="1.28"
     inkscape:cx="576.17188"
     inkscape:cy="286.71875"
     inkscape:window-width="2560"
     inkscape:window-height="1377"
     inkscape:window-x="2552"
     inkscape:window-y="-8"
     inkscape:window-maximized="1"
     inkscape:current-layer="svg5"><sodipodi:guide
       position="85.067626,150.21557"
       orientation="0,-1"
       id="guide239"
       inkscape:locked="false" /><sodipodi:guide
       position="231.07312,39.995732"
       orientation="0,-1"
       id="guide241"
       inkscape:locked="false" /><sodipodi:guide
       position="231.07312,91.527085"
       orientation="1,0"
       id="guide243"
       inkscape:locked="false" /><sodipodi:guide
       position="84.863137,50.015717"
       orientation="1,0"
       id="guide245"
       inkscape:locked="false" /></sodipodi:namedview><defs
     id="defs2"><filter
       style="color-interpolation-filters:sRGB;"
       inkscape:label="Drop Shadow"
       id="filter3043"
       x="-0.039912688"
       y="-0.013283609"
       width="1.1463465"
       height="1.0487066"><feFlood
         flood-opacity="0.498039"
         flood-color="rgb(0,0,0)"
         result="flood"
         id="feFlood3033" /><feComposite
         in="flood"
         in2="SourceGraphic"
         operator="in"
         result="composite1"
         id="feComposite3035" /><feGaussianBlur
         in="composite1"
         stdDeviation="0.5"
         result="blur"
         id="feGaussianBlur3037" /><feOffset
         dx="2"
         dy="2"
         result="offset"
         id="feOffset3039" /><feComposite
         in="SourceGraphic"
         in2="offset"
         operator="over"
         result="composite2"
         id="feComposite3041" /></filter><filter
       style="color-interpolation-filters:sRGB;"
       inkscape:label="Drop Shadow"
       id="filter15785"
       x="-0.015442707"
       y="-0.020664545"
       width="1.0566233"
       height="1.07577"><feFlood
         flood-opacity="0.498039"
         flood-color="rgb(0,0,0)"
         result="flood"
         id="feFlood15775" /><feComposite
         in="flood"
         in2="SourceGraphic"
         operator="in"
         result="composite1"
         id="feComposite15777" /><feGaussianBlur
         in="composite1"
         stdDeviation="0.5"
         result="blur"
         id="feGaussianBlur15779" /><feOffset
         dx="2"
         dy="2"
         result="offset"
         id="feOffset15781" /><feComposite
         in="SourceGraphic"
         in2="offset"
         operator="over"
         result="composite2"
         id="feComposite15783" /></filter><filter
       style="color-interpolation-filters:sRGB;"
       inkscape:label="Drop Shadow"
       id="filter18791"
       x="-0.010951969"
       y="-0.013190877"
       width="1.0401572"
       height="1.0483665"><feFlood
         flood-opacity="0.498039"
         flood-color="rgb(0,0,0)"
         result="flood"
         id="feFlood18781" /><feComposite
         in="flood"
         in2="SourceGraphic"
         operator="in"
         result="composite1"
         id="feComposite18783" /><feGaussianBlur
         in="composite1"
         stdDeviation="0.5"
         result="blur"
         id="feGaussianBlur18785" /><feOffset
         dx="2"
         dy="2"
         result="offset"
         id="feOffset18787" /><feComposite
         in="SourceGraphic"
         in2="offset"
         operator="over"
         result="composite2"
         id="feComposite18789" /></filter><clipPath
       clipPathUnits="userSpaceOnUse"
       id="clipPath23948"><rect
         style="opacity:0.354839;fill:#a36648;stroke-width:0.79425"
         id="rect23950"
         width="146.23682"
         height="110.18407"
         x="84.857468"
         y="40.278763" /></clipPath><filter
       style="color-interpolation-filters:sRGB;"
       inkscape:label="Drop Shadow"
       id="filter29217"
       x="-0.023496814"
       y="-0.017061548"
       width="1.086155"
       height="1.062559"><feFlood
         flood-opacity="0.498039"
         flood-color="rgb(0,0,0)"
         result="flood"
         id="feFlood29207" /><feComposite
         in="flood"
         in2="SourceGraphic"
         operator="in"
         result="composite1"
         id="feComposite29209" /><feGaussianBlur
         in="composite1"
         stdDeviation="0.5"
         result="blur"
         id="feGaussianBlur29211" /><feOffset
         dx="2"
         dy="2"
         result="offset"
         id="feOffset29213" /><feComposite
         in="SourceGraphic"
         in2="offset"
         operator="over"
         result="composite2"
         id="feComposite29215" /></filter></defs><g
     id="g246"
     style="display:none"><rect
       style="display:inline;fill:#999966;fill-opacity:1;stroke-width:0.264583"
       id="rect56123"
       width="272.41867"
       height="212.55598"
       x="-11.567673"
       y="-13.013632"
       inkscape:label="Background" /><ellipse
       style="display:inline;opacity:1;fill:#ffffcc;fill-opacity:1;stroke-width:0.277699"
       id="path57283"
       cx="127.09089"
       cy="167.59496"
       rx="124.04874"
       ry="20.604918"
       inkscape:label="Floor" /><rect
       style="display:inline;opacity:1;fill:#cccc99;fill-opacity:1;stroke-width:0.28124"
       id="rect60307"
       width="180.7858"
       height="120.86079"
       x="60.518295"
       y="46.761066"
       transform="matrix(0.99713348,-0.07566261,0.06976208,0.99756366,0,0)"
       ry="10.360401"
       inkscape:label="TextBG" /></g><image
     preserveAspectRatio="none"
     inkscape:svg-dpi="96"
     width="194.46875"
     height="190.5"
     xlink:href="../parallel_parking.svg"
     id="image23290"
     x="54.074215"
     y="-7.4827485"
     clip-path="url(#clipPath23948)"
     style="display:inline"
     inkscape:export-filename=".\instructions_07.webp"
     inkscape:export-xdpi="96"
     inkscape:export-ydpi="96" /><path
     id="rect24744"
     style="display:inline;opacity:0.6;fill:#c11e1e;fill-opacity:1;stroke-width:0.79375"
     d="m 158.88365,41.273268 c 5.37558,-0.753205 8.08516,-3.301084 10.83018,-2.046284 0.7759,0.354676 2.73587,0.231259 3.41514,-1.002625 0.67927,-1.233883 3.18886,-3.00078 12.05958,-2.816366 0.008,2.626123 0,33.361706 0,33.361706 h -26.38241 z"
     sodipodi:nodetypes="cszcccc" /><path
     id="rect24744-3"
     style="display:inline;opacity:0.6;fill:#c11e1e;fill-opacity:1;stroke-width:0.79375"
     d="m 158.73704,156.62411 c 18.54271,-0.41189 16.37322,-7.70763 26.3049,-8.42325 0.008,-2.62613 0,-19.07318 0,-19.07318 h -26.38241 z"
     sodipodi:nodetypes="ccccc" /><path
     style="opacity:0.6;fill:#0cc00c;fill-opacity:1;stroke-width:0.79375"
     d="m 159.77445,75.200874 v -3.270398 h 25.52372 v 54.004984 h -26.12664 c 0,0 -0.0439,-0.0279 0,-4.40091 0.0697,-6.90514 -4.28588,-21.962438 -18.41654,-25.176578 C 122.01317,92.094984 118.33654,76.888388 118.24589,73.11805 V 44.835508 h 29.92687 v 17.393398 c 0,0 0.8039,8.842862 11.60169,12.971968 z"
     id="path25825"
     sodipodi:nodetypes="ccccccsccccc" /><path
     style="opacity:1;fill:#66ff66;fill-opacity:1;stroke-width:0.79375;filter:url(#filter29217)"
     id="path27341"
     d="m 131.22606,53.888946 c -0.0184,-0.01916 -0.0518,-0.08381 -0.0551,-0.05747 -0.0207,0.165436 5.3e-4,0.333459 -2.7e-4,0.500187 -0.001,0.216966 -0.003,0.433927 -0.006,0.650885 -0.007,0.686171 -0.0169,1.372328 -0.025,2.05849 -0.008,0.715793 -0.0144,1.431608 -0.0179,2.147441 -8e-4,0.14437 -0.008,0.288864 -0.002,0.433112 0.008,0.196329 0.0293,0.391895 0.044,0.587843 0.075,0.709181 0.13695,1.424588 0.30189,2.120416 0.0995,0.419812 0.19918,0.711652 0.32653,1.112152 0.0368,0.124198 0.0759,0.247735 0.1104,0.372594 0.0293,0.106082 0.0494,0.21466 0.0809,0.320096 0.12322,0.411776 0.28914,0.805804 0.37786,1.22701 0.22214,0.773571 0.41077,1.567768 0.7747,2.29089 0.0869,0.172738 0.19245,0.335478 0.28867,0.503216 0.28953,0.510509 0.66177,0.97087 0.95652,1.477436 0.036,0.06181 0.0645,0.127643 0.0968,0.191463 0.0904,0.142261 0.18083,0.284523 0.27125,0.426784 0.31989,0.647441 0.6156,1.305427 0.96501,1.937885 0.33438,0.709456 0.93454,1.246822 1.30393,1.932678 0.35234,0.613555 0.77391,1.181362 1.16398,1.770943 0.15887,0.410901 0.39181,0.782754 0.6165,1.159349 0.1948,0.326517 0.2848,0.491244 0.52579,0.808858 0.11498,0.151545 0.24264,0.293039 0.36397,0.43956 0.31548,0.457811 0.74446,0.813678 1.12854,1.208863 0.0583,0.06002 0.48204,0.543112 0.49777,0.560972 0.14272,0.142795 0.28394,0.28711 0.42817,0.428387 0.29377,0.287758 0.59016,0.566708 0.85296,0.884343 0.0712,0.08611 0.13408,0.178835 0.20112,0.268251 0.12323,0.145298 0.24645,0.290594 0.36968,0.43589 0.31127,0.359574 0.65639,0.686271 0.96196,1.050803 0.0816,0.09736 0.15635,0.200457 0.24025,0.295839 0.20086,0.228325 0.41317,0.446355 0.61625,0.6727 0.38117,0.463775 0.79278,0.905841 1.25794,1.287233 0.12831,0.105193 0.70542,0.538625 0.87271,0.664773 0.1673,0.112366 0.33605,0.222583 0.50188,0.337095 0.1023,0.07065 0.19794,0.150913 0.30242,0.218305 0.51954,0.33514 1.06418,0.619803 1.56827,0.979064 0.11094,0.08332 0.22415,0.163714 0.33284,0.24995 0.10065,0.07986 0.19248,0.170648 0.29496,0.248144 0.58651,0.4435 1.19744,0.847847 1.8288,1.223682 0.45375,0.343385 0.96819,0.58619 1.45632,0.873213 0.84995,0.499782 -0.38366,-0.203907 0.69346,0.405365 0.23473,0.156562 0.49009,0.279101 0.72762,0.430877 0.17537,0.112069 0.32327,0.255143 0.48702,0.38228 0.58614,0.455105 0.23285,0.145108 0.60351,0.482013 0.63767,0.664504 1.35077,1.248894 2.03259,1.866434 0.94431,0.866622 1.84411,1.77967 2.78846,2.645894 0.90763,0.86667 0.19452,0.163865 0.9727,0.98419 0.17597,0.185496 0.35956,0.363704 0.53423,0.550431 0.39085,0.417846 0.75518,0.862354 1.12751,1.29654 0.64619,0.731369 1.19371,1.542335 1.79951,2.306435 0.38814,0.47839 0.69184,1.01752 1.07247,1.50155 0.20954,0.26646 0.43654,0.51875 0.65023,0.78188 0.21525,0.36458 0.52374,0.66223 0.76524,1.00774 0.18873,0.27003 0.31014,0.58093 0.4249,0.88669 0.0577,0.14517 0.11141,0.29198 0.17309,0.43551 0.13573,0.31585 0.29306,0.62214 0.42779,0.93841 0.12195,0.28628 0.14524,0.40774 0.26973,0.7106 0.0761,0.18522 0.16079,0.36682 0.24119,0.55023 0.14753,0.34304 0.30653,0.68574 0.39646,1.05001 0.22476,0.91047 -0.22391,-0.66762 0.16799,0.7566 0.0557,0.20247 0.12193,0.40191 0.1829,0.60286 0.28187,0.8742 0.37836,1.79152 0.57992,2.6849 0.051,0.22602 0.11196,0.44968 0.16794,0.67452 0.2397,0.8257 0.41032,1.6651 0.48992,2.52068 0.141,0.77512 0.25264,1.55003 0.3058,2.33609 0.0207,0.41981 0.0125,0.50896 0.11003,0.97958 0.0344,0.16606 0.0605,0.33829 0.13556,0.49037 0.14928,0.30254 0.20816,0.76487 0.53143,0.86138 0.88862,0.26525 1.88637,0.3776 2.77919,0.12686 0.41836,-0.11749 0.46361,-0.73512 0.69542,-1.10267 0.20657,-0.83246 0.19777,-1.69659 0.20718,-2.54874 0.004,-0.64496 0.003,-1.28993 0.003,-1.93488 -1.4e-4,-0.14826 0.006,-0.29668 -5.3e-4,-0.44477 -0.009,-0.19169 -0.0316,-0.38252 -0.0474,-0.57378 -0.12823,-0.75704 -0.19583,-1.51983 -0.23224,-2.28604 0.008,-0.519 -0.0864,-1.03127 -0.17742,-1.53985 -0.0243,-0.13598 -0.0431,-0.27316 -0.0746,-0.40766 -0.0359,-0.15306 -0.18883,-0.68568 -0.24709,-0.89038 -0.10487,-0.52241 -0.32247,-1.01264 -0.45921,-1.52634 -0.0587,-0.2205 -0.0721,-0.32094 -0.11233,-0.54405 -0.139,-0.58406 -0.30543,-1.17307 -0.619,-1.69153 -0.0174,-0.0288 -0.32182,-0.48252 -0.4188,-0.62718 -0.0782,-0.12609 -0.17986,-0.27622 -0.23636,-0.41644 -0.0191,-0.0475 -0.0226,-0.1 -0.039,-0.14849 -0.1237,-0.36663 -0.24766,-0.69828 -0.33532,-1.07635 -0.0712,-0.57982 -0.29763,-1.12355 -0.41858,-1.69205 -0.0558,-0.26215 -0.0691,-0.38453 -0.10777,-0.65018 -0.0889,-0.53721 -0.24168,-1.06978 -0.45117,-1.572925 -0.15399,-0.369858 -0.3525,-0.71601 -0.50707,-1.084884 -0.29052,-0.511646 -0.44655,-0.92346 -0.52422,-1.497089 -0.02,-0.27944 -0.0618,-0.562092 -0.0538,-0.842992 0.002,-0.05845 0.0181,-0.115549 0.0254,-0.173556 0.0315,-0.249264 0.0588,-0.499047 0.0889,-0.748477 0.0527,-0.288348 0.0466,-0.583798 0.0905,-0.873056 0.005,-0.03393 0.0283,-0.06269 0.0387,-0.0954 0.0256,-0.08042 0.0467,-0.162195 0.069,-0.243554 0.11009,-0.400093 0.0802,-0.292764 0.18074,-0.732018 0.0705,-0.463915 0.20922,-0.912222 0.29801,-1.372653 0.12485,-0.647472 0.0149,-0.196207 0.14132,-0.681426 0.046,-0.189235 0.11556,-0.520581 0.19798,-0.714306 0.0148,-0.03488 0.0496,-0.05789 0.0685,-0.09073 0.0559,-0.09709 0.10541,-0.197813 0.15552,-0.298045 0.22436,-0.448768 0.17891,-0.366609 0.3795,-0.864288 0.0411,-0.0994 0.0864,-0.197202 0.1234,-0.298204 0.0628,-0.171302 0.11483,-0.3464 0.17597,-0.518303 0.18262,-0.513397 0.38912,-1.017704 0.58607,-1.525651 0.0548,-0.163441 0.10365,-0.329028 0.16451,-0.490323 0.022,-0.05823 0.0569,-0.110739 0.0835,-0.166994 0.4719,-0.997194 -0.1645,0.318444 0.25501,-0.524137 0.27858,-0.559496 0.0638,-0.162529 0.30292,-0.592609 0.28104,-0.432334 0.52846,-0.885333 0.79645,-1.325631 0.11205,-0.1841 0.23616,-0.36063 0.35037,-0.543401 0.0216,-0.01953 0.0464,-0.03598 0.0646,-0.0586 0.14282,-0.176633 0.27018,-0.365291 0.41019,-0.544152 0.16488,-0.210616 0.31132,-0.365474 0.45808,-0.601237 0.12297,-0.197535 0.22597,-0.406823 0.33895,-0.610237 0.36574,-0.691095 0.86469,-1.649992 0.58517,-2.454569 -0.18104,-0.521113 -0.51001,-0.999051 -0.90098,-1.388253 -0.24482,-0.243718 -0.62496,-0.294579 -0.93744,-0.441867 -0.3093,-0.02826 -0.61731,-0.0836 -0.92789,-0.08479 -0.42011,-0.0016 -0.81595,0.138792 -1.21049,0.258024 -0.44346,0.134014 -0.86901,0.314762 -1.2986,0.486786 -0.69738,0.295854 -1.32674,0.716229 -1.98674,1.080664 -0.20051,0.110715 -0.41164,0.201004 -0.61793,0.300527 -0.94354,0.445093 -1.77145,1.089681 -2.6903,1.577075 -0.30516,0.193712 -0.64113,0.315561 -0.97366,0.447871 -0.35257,0.14029 -0.69229,0.290129 -1.0529,0.408379 -0.61175,0.29196 -1.39751,0.437245 -1.90623,0.903616 -0.21042,0.192897 -0.37823,0.427643 -0.56735,0.641463 -0.042,0.645081 -0.30865,1.315144 -0.12597,1.935242 0.13727,0.465979 0.62016,0.759455 1.00653,1.053902 0.19422,0.148013 0.45242,0.193117 0.69197,0.240506 0.83761,0.165698 1.46011,-0.02893 2.24402,-0.26466 1.19952,-0.375571 2.32489,-0.953825 3.43631,-1.533779 0.5016,-0.22616 0.99807,-0.471561 1.51078,-0.672806 0.22495,-0.08829 0.45434,-0.164918 0.6797,-0.252156 0.46334,-0.168511 0.94414,-0.286102 1.40971,-0.447876 0.25982,-0.09028 0.62611,-0.239189 0.89342,-0.34598 0.53812,-0.206748 1.01226,-0.534598 1.51955,-0.799692 0.64412,-0.336585 -0.86654,0.539406 0.60332,-0.335632 -0.25207,0.166513 0.4021,-0.256286 0.32044,-0.167619 -0.21678,0.23536 -1.04681,0.09611 -1.12127,0.08518 -0.15156,-0.02225 -0.26267,-0.177712 -0.41442,-0.19859 -0.0547,-0.0075 0.0456,0.100658 0.0684,0.150987 0.049,0.09859 0.10435,0.194265 0.147,0.295756 0.11183,0.266145 0.12848,0.404834 0.20253,0.690997 0.14727,0.569184 0.29131,1.135919 0.45806,1.699794 0.37481,1.077375 0.86079,2.109533 1.39602,3.11513 0.0532,0.116631 0.11063,0.231399 0.15951,0.349893 0.0446,0.108117 0.0772,0.220872 0.12073,0.329441 0.17351,0.433202 0.37008,0.842319 0.48485,1.295532 0.21752,0.655606 0.0853,0.314952 0.40956,1.016852 1.26161,2.531448 4.84162,0.747265 3.58001,-1.784183 v 0 c -0.10209,-0.120846 -0.0407,-0.03433 -0.13179,-0.289714 -0.13033,-0.459462 -0.1277,-0.48845 -0.29824,-0.93608 -0.16104,-0.422677 -0.14825,-0.337428 -0.30865,-0.732083 -0.38718,-0.952641 -0.0619,-0.231955 -0.49311,-1.144167 -0.4176,-0.764551 -0.77772,-1.558314 -1.08829,-2.372236 -0.39013,-1.266526 -0.56607,-2.618912 -1.3082,-3.751003 -0.38882,-0.544716 -0.72,-1.13457 -1.39751,-1.408221 -1.16502,-0.470559 -1.96059,-0.218498 -2.91294,0.366935 -0.17805,0.157731 0.009,2.64e-4 -0.46781,0.254222 -0.11128,0.05919 -0.21842,0.125868 -0.32764,0.188799 -0.0429,0.02948 -0.0829,0.06374 -0.12866,0.08844 -0.18226,0.09826 -0.37696,0.172283 -0.55602,0.276981 -0.1933,0.0773 -0.38173,0.167431 -0.57859,0.235144 -0.55938,0.192407 -1.13651,0.332213 -1.68917,0.544771 -0.26871,0.105003 -0.54169,0.19889 -0.8098,0.305375 -0.60616,0.240733 -1.19514,0.529849 -1.78621,0.803825 -0.6359,0.333978 -1.27707,0.651309 -1.93394,0.941313 -0.12609,0.05567 -0.24799,0.121338 -0.377,0.169873 -0.16463,0.06194 -0.33502,0.107347 -0.50254,0.16102 -0.0692,0.02762 -0.14087,0.04975 -0.20763,0.08284 -0.0182,0.009 -0.0608,0.03038 -0.0442,0.04198 0.28764,0.20011 0.13938,-0.141491 0.47809,0.201565 1.1558,1.170591 0.76883,0.820134 0.55709,2.671953 -0.10417,0.102677 -0.32191,0.417787 -0.54809,0.472091 -0.011,0.0026 0.008,-0.02424 0.0184,-0.02845 1.53206,-0.617752 -0.60669,0.288774 0.73151,-0.27396 0.0615,-0.02588 0.12162,-0.05499 0.18244,-0.08248 0.40582,-0.13921 0.79641,-0.297695 1.1934,-0.458718 0.49633,-0.201311 0.99601,-0.393012 1.45782,-0.669526 0.17633,-0.09658 0.3552,-0.18865 0.52897,-0.289748 0.67247,-0.391215 1.29688,-0.865719 1.99988,-1.204653 0.32536,-0.157763 0.59825,-0.285091 0.91672,-0.461052 0.23433,-0.129471 0.45342,-0.285319 0.68777,-0.414758 0.15412,-0.08513 0.31443,-0.15857 0.47019,-0.240673 0.0927,-0.04885 0.18332,-0.10142 0.27498,-0.15213 0.22761,-0.09114 0.45042,-0.194541 0.68093,-0.278048 0.12795,-0.04635 0.26154,-0.07642 0.38865,-0.125034 0.0118,-0.0045 0.0136,-0.0213 0.0209,-0.03159 0.006,-0.0084 0.0284,-0.02093 0.0188,-0.02442 -0.11547,-0.04176 -0.23686,-0.06484 -0.35529,-0.09727 -0.57867,-0.402539 -0.67413,-0.375327 -0.91525,-1.354841 -0.0525,-0.213185 0.0619,-0.434795 0.1004,-0.650951 0.002,-0.01347 0.0129,0.02735 0.008,0.04024 -0.0613,0.170979 -0.23065,0.471186 -0.30362,0.608632 -0.0509,0.228343 -0.29285,0.450569 -0.42694,0.622186 -0.2318,0.296662 -0.44417,0.607949 -0.68026,0.90138 -0.42737,0.688456 -0.85189,1.377611 -1.2663,2.074093 -0.38751,0.722241 -0.7688,1.458581 -1.0217,2.240033 -0.22148,0.572911 -0.4535,1.141762 -0.6562,1.721814 -0.0277,0.07934 -0.0444,0.162343 -0.0735,0.241183 -0.0462,0.12514 -0.1015,0.246737 -0.15225,0.370105 -0.11031,0.307781 -0.26963,0.578487 -0.40927,0.87395 -0.27164,0.574746 -0.29261,0.612846 -0.45086,1.184288 -0.0385,0.139057 -0.0682,0.280403 -0.10232,0.420603 -0.041,0.175779 -0.0859,0.3507 -0.12298,0.527336 -0.2045,0.972952 0.12203,-0.443053 -0.10508,0.563647 -0.0955,0.423283 -0.0881,0.321064 -0.18726,0.794647 -0.0162,0.07747 -0.0262,0.156104 -0.0393,0.234154 -0.0704,0.324358 -0.17294,0.639214 -0.24682,0.96249 -0.14203,0.621446 -0.10322,0.463833 -0.15631,0.978615 -0.0137,0.133342 -0.0295,0.266472 -0.0442,0.399708 -0.0627,0.5206 -0.1321,1.039043 -0.13982,1.564495 -0.006,0.431739 0.0561,0.864613 0.0977,1.292984 0.14228,0.866428 0.36776,1.715455 0.81029,2.482629 0.0613,0.13792 0.11975,0.27715 0.18393,0.41376 0.0691,0.14709 0.16408,0.28154 0.2276,0.43112 0.11139,0.26225 0.21049,0.53035 0.25817,0.81125 0.0787,0.50924 0.16924,1.00874 0.30365,1.50681 0.0556,0.20616 0.135,0.4059 0.18197,0.61421 0.044,0.19527 0.0761,0.39306 0.11416,0.58958 0.26251,1.01862 0.58468,2.04248 1.18153,2.92048 0.061,0.0894 0.11577,0.18352 0.18312,0.26831 0.009,0.0108 -0.0106,-0.053 -0.003,-0.0415 0.0376,0.0565 0.0534,0.1265 0.0952,0.18002 0.01,0.0126 0.003,-0.0623 0.008,-0.0473 0.0553,0.15003 0.0768,0.31096 0.13505,0.46025 0.091,0.46585 0.19587,0.91933 0.33857,1.37242 0.0633,0.20085 0.14718,0.39507 0.2048,0.59761 0.0423,0.14875 0.074,0.30032 0.11107,0.45047 0.0358,0.12541 0.0687,0.25166 0.10723,0.37622 0.0146,0.0472 0.041,0.0906 0.0522,0.13866 0.0301,0.12891 0.0477,0.26044 0.0715,0.39066 0.0633,0.34589 0.14451,0.67306 0.11979,1.02997 0.0409,0.83331 0.10421,1.66575 0.24722,2.48875 0.05,0.32818 0.0278,0.12155 0.0283,0.62561 5.3e-4,0.62957 0.001,1.25914 -0.002,1.8887 -0.004,0.3378 -0.007,0.67557 -0.0212,1.01312 -0.004,0.0832 -0.009,0.16623 -0.0137,0.24931 -0.003,0.0511 -0.0189,0.10278 -0.01,0.15315 0.003,0.018 0.0193,-0.031 0.0289,-0.0466 0.97904,-1.29021 0.67083,-1.34087 3.24175,-0.54809 1.05086,0.32405 0.37198,1.00639 0.32846,0.58839 -0.0155,-0.14926 -0.0153,-0.29973 -0.0229,-0.4496 -0.058,-0.82093 -0.14821,-1.63775 -0.31481,-2.44461 -0.10486,-1.05589 -0.29823,-2.09718 -0.59372,-3.11749 -0.30603,-1.18019 -0.4327,-2.40058 -0.80559,-3.56433 -0.038,-0.1176 -0.0807,-0.23379 -0.11402,-0.35281 -0.0489,-0.17466 -0.2156,-0.92731 -0.24066,-1.01878 -0.13957,-0.50951 -0.34738,-0.99706 -0.55909,-1.47964 -0.19408,-0.42348 -0.34172,-0.86251 -0.52449,-1.29093 -0.0608,-0.14256 -0.12856,-0.28207 -0.19283,-0.4231 -0.0526,-0.11143 -0.10921,-0.22106 -0.15779,-0.3343 -0.0649,-0.15128 -0.12164,-0.30592 -0.18246,-0.45888 -0.23245,-0.5549 -0.27923,-0.71907 -0.58673,-1.24085 -0.3539,-0.60053 -0.81561,-1.10985 -1.2109,-1.68015 -0.10376,-0.12688 -0.20524,-0.25565 -0.31127,-0.38062 -0.0669,-0.0788 -0.14282,-0.14985 -0.20732,-0.23061 -0.42068,-0.52678 -0.74285,-1.126996 -1.17979,-1.642081 -0.64203,-0.793589 -1.20017,-1.655453 -1.88762,-2.412833 -0.42661,-0.497475 -0.84754,-1.001033 -1.29507,-1.480077 -0.15599,-0.166978 -0.32023,-0.32607 -0.478,-0.491368 -0.91637,-0.960133 -0.25814,-0.311867 -1.19924,-1.20844 -0.95296,-0.867089 -1.84962,-1.794271 -2.80418,-2.660189 -0.70298,-0.634781 -1.43067,-1.239682 -2.09193,-1.919028 -0.77406,-0.658686 -1.58436,-1.275983 -2.48032,-1.761834 -0.71692,-0.400291 0.21959,0.12687 -0.69117,-0.404072 -0.46529,-0.271243 -0.95274,-0.50101 -1.38312,-0.830942 -0.18207,-0.106807 -0.44283,-0.254699 -0.62125,-0.377204 -0.1406,-0.09654 -0.27476,-0.202205 -0.41457,-0.299889 -0.0902,-0.06304 -0.18784,-0.115477 -0.2754,-0.182174 -0.15623,-0.119007 -0.30052,-0.25305 -0.45506,-0.37425 -0.14231,-0.111609 -0.29016,-0.215977 -0.43523,-0.323966 -0.52246,-0.360964 -0.39333,-0.283996 -0.902,-0.591871 -0.13263,-0.08027 -0.26556,-0.16011 -0.40004,-0.237238 -0.075,-0.04304 -0.15595,-0.07596 -0.22843,-0.123196 -0.14474,-0.09434 -0.2814,-0.200538 -0.4221,-0.300807 -0.10121,-0.06561 -0.20242,-0.131225 -0.30362,-0.19684 -0.20781,-0.156694 -0.4244,-0.30186 -0.62771,-0.464349 -0.35402,-0.282934 -0.65326,-0.6194 -0.93841,-0.970153 -0.16108,-0.178456 -0.33352,-0.346575 -0.49175,-0.527571 -0.11359,-0.129945 -0.21662,-0.268816 -0.32855,-0.400198 -0.29828,-0.350112 -0.62069,-0.675606 -0.9308,-1.014804 -0.90931,-1.050499 0.6971,0.814128 -0.63843,-0.781206 -0.38429,-0.459047 -0.82005,-0.87168 -1.25411,-1.282417 -0.26163,-0.296093 -0.44418,-0.509323 -0.72226,-0.795523 -0.29431,-0.302887 -0.63068,-0.561348 -0.86031,-0.923882 -0.22615,-0.244356 -0.34185,-0.451115 -0.52196,-0.741707 -0.049,-0.07907 -0.10793,-0.152045 -0.15268,-0.233595 -0.18938,-0.345072 -0.32425,-0.718709 -0.54239,-1.048935 -0.29884,-0.448956 -0.15432,-0.237467 -0.41693,-0.614133 -0.0612,-0.08772 -0.1197,-0.177318 -0.18343,-0.263189 -0.0202,-0.02723 -0.05,-0.04691 -0.068,-0.07565 -0.0789,-0.125833 -0.14769,-0.257664 -0.22153,-0.386498 -0.0488,-0.07528 -0.0976,-0.150553 -0.14633,-0.22583 -0.29021,-0.48624 -0.25598,-0.456805 -0.5842,-0.900935 -0.0644,-0.08715 -0.13678,-0.168201 -0.20194,-0.254796 -0.0821,-0.109067 -0.15503,-0.224923 -0.23962,-0.332044 -0.0193,-0.02439 -0.0541,-0.03454 -0.0706,-0.06084 -0.0711,-0.112964 -0.12637,-0.235114 -0.18956,-0.352671 -0.20194,-0.332615 -0.0478,-0.06434 -0.29999,-0.585785 -0.2558,-0.528928 -0.49731,-1.065437 -0.79881,-1.571024 -0.23638,-0.327432 0.0549,0.08706 -0.34723,-0.586187 -0.45942,-0.769268 -0.0673,-0.08046 -0.42494,-0.6316 -0.0913,-0.140706 -0.17508,-0.28616 -0.26263,-0.429239 -0.0661,-0.100854 -0.13224,-0.201708 -0.19836,-0.302562 -0.0121,-0.01818 -0.16077,-0.235241 -0.17688,-0.276288 -0.17552,-0.447178 -0.2859,-0.917829 -0.42642,-1.376119 -0.10602,-0.437719 -0.0894,-0.406263 -0.22135,-0.815705 -0.0545,-0.168961 -0.12856,-0.331391 -0.17865,-0.501695 -0.0451,-0.153265 -0.0805,-0.309198 -0.12078,-0.463796 -0.0447,-0.149932 -0.0895,-0.299863 -0.13422,-0.449795 -0.0688,-0.213809 -0.15414,-0.422923 -0.207,-0.641215 -0.13762,-0.568301 -0.18636,-1.151808 -0.24761,-1.731481 -0.0462,-0.35356 -0.0287,-0.145219 -0.0263,-0.64073 0.003,-0.707568 0.01,-1.415119 0.0177,-2.122647 0.008,-0.690446 0.018,-1.380881 0.0251,-2.071338 0.001,-0.127082 0.0124,-1.174348 0.004,-1.327187 -0.0164,-0.2853 -0.0556,-0.568833 -0.0833,-0.853249 -0.74421,-2.728744 -4.60323,-1.676281 -3.85903,1.052462 z" /></svg>
