<?xml version="1.0" encoding="UTF-8" standalone="no"?>
<!-- Created with Inkscape (http://www.inkscape.org/) -->

<svg
   width="960"
   height="720"
   viewBox="0 0 253.99999 190.5"
   version="1.1"
   id="svg5"
   inkscape:version="1.2.2 (732a01da63, 2022-12-09)"
   xml:space="preserve"
   sodipodi:docname="instructions_bg_06.svg"
   inkscape:export-filename="instructions_bg_06.webp"
   inkscape:export-xdpi="96"
   inkscape:export-ydpi="96"
   xmlns:inkscape="http://www.inkscape.org/namespaces/inkscape"
   xmlns:sodipodi="http://sodipodi.sourceforge.net/DTD/sodipodi-0.dtd"
   xmlns:xlink="http://www.w3.org/1999/xlink"
   xmlns="http://www.w3.org/2000/svg"
   xmlns:svg="http://www.w3.org/2000/svg"><sodipodi:namedview
     id="namedview7"
     pagecolor="#ffffff"
     bordercolor="#000000"
     borderopacity="0.25"
     inkscape:showpageshadow="2"
     inkscape:pageopacity="0.0"
     inkscape:pagecheckerboard="0"
     inkscape:deskcolor="#d1d1d1"
     inkscape:document-units="px"
     showgrid="false"
     showguides="true"
     inkscape:zoom="1.28"
     inkscape:cx="458.20312"
     inkscape:cy="407.42188"
     inkscape:window-width="1350"
     inkscape:window-height="1230"
     inkscape:window-x="1165"
     inkscape:window-y="83"
     inkscape:window-maximized="0"
     inkscape:current-layer="svg5"><sodipodi:guide
       position="85.067626,150.21557"
       orientation="0,-1"
       id="guide239"
       inkscape:locked="false" /><sodipodi:guide
       position="231.07312,39.995732"
       orientation="0,-1"
       id="guide241"
       inkscape:locked="false" /><sodipodi:guide
       position="231.07312,91.527085"
       orientation="1,0"
       id="guide243"
       inkscape:locked="false" /><sodipodi:guide
       position="84.863137,50.015717"
       orientation="1,0"
       id="guide245"
       inkscape:locked="false" /></sodipodi:namedview><defs
     id="defs2"><filter
       style="color-interpolation-filters:sRGB;"
       inkscape:label="Drop Shadow"
       id="filter3043"
       x="-0.039912688"
       y="-0.013283609"
       width="1.1463465"
       height="1.0487066"><feFlood
         flood-opacity="0.498039"
         flood-color="rgb(0,0,0)"
         result="flood"
         id="feFlood3033" /><feComposite
         in="flood"
         in2="SourceGraphic"
         operator="in"
         result="composite1"
         id="feComposite3035" /><feGaussianBlur
         in="composite1"
         stdDeviation="0.5"
         result="blur"
         id="feGaussianBlur3037" /><feOffset
         dx="2"
         dy="2"
         result="offset"
         id="feOffset3039" /><feComposite
         in="SourceGraphic"
         in2="offset"
         operator="over"
         result="composite2"
         id="feComposite3041" /></filter><filter
       style="color-interpolation-filters:sRGB;"
       inkscape:label="Drop Shadow"
       id="filter15785"
       x="-0.015442707"
       y="-0.020664545"
       width="1.0566233"
       height="1.07577"><feFlood
         flood-opacity="0.498039"
         flood-color="rgb(0,0,0)"
         result="flood"
         id="feFlood15775" /><feComposite
         in="flood"
         in2="SourceGraphic"
         operator="in"
         result="composite1"
         id="feComposite15777" /><feGaussianBlur
         in="composite1"
         stdDeviation="0.5"
         result="blur"
         id="feGaussianBlur15779" /><feOffset
         dx="2"
         dy="2"
         result="offset"
         id="feOffset15781" /><feComposite
         in="SourceGraphic"
         in2="offset"
         operator="over"
         result="composite2"
         id="feComposite15783" /></filter><clipPath
       clipPathUnits="userSpaceOnUse"
       id="clipPath18386"><rect
         style="opacity:0.354839;fill:#a36648;stroke-width:0.79425"
         id="rect18388"
         width="146.23682"
         height="110.18407"
         x="84.857468"
         y="40.278763" /></clipPath><filter
       style="color-interpolation-filters:sRGB;"
       inkscape:label="Drop Shadow"
       id="filter18791"
       x="-0.010951969"
       y="-0.013190877"
       width="1.0401572"
       height="1.0483665"><feFlood
         flood-opacity="0.498039"
         flood-color="rgb(0,0,0)"
         result="flood"
         id="feFlood18781" /><feComposite
         in="flood"
         in2="SourceGraphic"
         operator="in"
         result="composite1"
         id="feComposite18783" /><feGaussianBlur
         in="composite1"
         stdDeviation="0.5"
         result="blur"
         id="feGaussianBlur18785" /><feOffset
         dx="2"
         dy="2"
         result="offset"
         id="feOffset18787" /><feComposite
         in="SourceGraphic"
         in2="offset"
         operator="over"
         result="composite2"
         id="feComposite18789" /></filter></defs><g
     id="g246"
     style="display:none"><rect
       style="display:inline;fill:#999966;fill-opacity:1;stroke-width:0.264583"
       id="rect56123"
       width="272.41867"
       height="212.55598"
       x="-11.567673"
       y="-13.013632"
       inkscape:label="Background" /><ellipse
       style="display:inline;opacity:1;fill:#ffffcc;fill-opacity:1;stroke-width:0.277699"
       id="path57283"
       cx="127.09089"
       cy="167.59496"
       rx="124.04874"
       ry="20.604918"
       inkscape:label="Floor" /><rect
       style="display:inline;opacity:1;fill:#cccc99;fill-opacity:1;stroke-width:0.28124"
       id="rect60307"
       width="180.7858"
       height="120.86079"
       x="60.518295"
       y="46.761066"
       transform="matrix(0.99713348,-0.07566261,0.06976208,0.99756366,0,0)"
       ry="10.360401"
       inkscape:label="TextBG" /></g><image
     preserveAspectRatio="none"
     inkscape:svg-dpi="96"
     width="194.46875"
     height="190.5"
     xlink:href="../intersection.svg"
     id="image8453"
     x="79.619385"
     y="-12.1492"
     clip-path="url(#clipPath18386)"
     inkscape:label="image8453"
     inkscape:export-filename=".\instructions_05.webp"
     inkscape:export-xdpi="96"
     inkscape:export-ydpi="96" /><path
     style="opacity:0.6;fill:#0cc00c;fill-opacity:1;stroke-width:0.79375"
     d="m 180.99724,153.80456 c 0,0 0.0273,-52.41218 0,-56.591576 -0.0263,-4.022038 0.0915,-14.897385 -15.42656,-14.897385 H 80.746187 V 50.39039 c 0,0 79.058063,0.01155 97.800563,0 16.97413,0.08638 35.332,16.8238 35.28455,33.167877 -0.0471,18.172773 0,70.278383 0,70.278383 z"
     id="path9724"
     sodipodi:nodetypes="csscccccc"
     inkscape:export-filename=".\instructor_06.webp"
     inkscape:export-xdpi="96"
     inkscape:export-ydpi="96" /><path
     style="opacity:1;fill:#66ff66;fill-opacity:1;stroke-width:0.79375;filter:url(#filter18791)"
     id="path18416"
     d="m 103.56549,55.027864 c -0.27282,0.22022 0.16311,-0.137057 -0.426,0.407564 -0.11021,0.101888 -0.23082,0.192016 -0.34264,0.292129 -0.36426,0.326104 -0.68482,0.647375 -1.08518,0.927539 -0.49912,0.332505 -0.98799,0.68462 -1.44042,1.079159 -0.23515,0.205055 -0.459663,0.422018 -0.692305,0.629912 -0.709391,0.607803 -1.378056,1.25926 -1.995504,1.959747 -0.348406,0.378707 -0.734031,0.729428 -1.050689,1.137026 -0.106212,0.136713 -0.204142,0.279662 -0.306213,0.419494 -0.04347,0.05478 -0.08897,0.108011 -0.130419,0.164336 -0.07854,0.106711 -0.148415,0.219747 -0.229412,0.324601 -0.01167,0.01511 -0.03305,0.01979 -0.04684,0.033 -0.476383,0.491808 0.08027,-0.06115 -0.280078,0.248171 -0.125716,0.107916 -0.244663,0.223478 -0.366995,0.335217 -0.557843,0.431411 -1.02879,0.9594 -1.569281,1.410877 -0.467172,0.488117 -0.958432,0.948764 -1.436071,1.425776 -0.997649,0.836862 -1.429361,1.948696 -0.784513,3.236984 0.173421,0.346462 0.558,0.537655 0.837001,0.806482 0.140557,0.07028 0.277728,0.147783 0.421672,0.210831 0.350988,0.153725 0.360151,0.117059 0.628319,0.249809 0.325038,0.160901 0.05288,0.04278 0.390255,0.238154 0.170513,0.09875 0.34598,0.18869 0.51897,0.283035 0.344709,0.183732 0.69669,0.35959 0.997992,0.611749 0.07258,0.06074 0.137517,0.130185 0.20942,0.191722 0.556324,0.476123 0.204799,0.135975 0.591979,0.526407 0.408205,0.356394 0.840171,0.68458 1.256297,1.031176 0.334508,0.278615 0.644618,0.588436 0.972349,0.87516 0.13016,0.106796 0.256728,0.218128 0.390483,0.320387 0.149148,0.11403 0.307607,0.215453 0.45778,0.328133 0.345066,0.258924 0.650652,0.570786 0.962733,0.86695 0.40241,0.276505 0.76661,0.60352 1.15234,0.901195 0.14168,0.109328 0.29105,0.208454 0.43232,0.318304 0.17469,0.135848 0.33906,0.284557 0.51203,0.42259 0.40506,0.428609 0.9397,0.692806 1.39688,1.055854 -0.59412,-0.560409 -0.95593,-0.768829 -0.6614,-2.029362 0.11571,-0.495221 0.58095,-0.852427 0.97608,-1.172594 0.18341,-0.148616 0.4592,-0.110283 0.68637,-0.174458 0.007,-0.0021 -0.0123,-0.0095 -0.0184,-0.01423 0.0192,-0.0049 0.0384,-0.0099 0.0575,-0.01487 0.0289,-0.05703 0.22214,0.09271 0.18818,0.03844 -0.0533,-0.08525 -0.14955,-0.134636 -0.22791,-0.197673 -0.23407,-0.188306 -0.44491,-0.34668 -0.65949,-0.550843 -0.47455,-0.440921 -0.8842,-0.940528 -1.28981,-1.443398 -0.47778,-0.83403 -1.27913,-1.381723 -2.04505,-1.925944 -0.10133,-0.07546 -0.601768,-0.446416 -0.684267,-0.515401 -0.07155,-0.05983 -0.132342,-0.131516 -0.200729,-0.194942 -0.314185,-0.291401 -0.641956,-0.567581 -0.958858,-0.856017 -0.151143,-0.274931 0.0016,-0.01503 -0.357614,-0.472985 -0.07484,-0.09544 -0.139702,-0.198461 -0.215164,-0.293407 -0.248433,-0.312576 -0.521041,-0.59454 -0.731165,-0.93436 -0.008,-0.01828 -0.106551,-0.219522 -0.09304,-0.264917 0.007,-0.02355 0.04116,0.03363 0.04579,0.05776 0.02617,0.136456 0.0607,0.276397 0.04472,0.414417 -0.02167,0.187187 -0.06447,0.378539 -0.155604,0.543475 -0.107789,0.195072 -0.285573,0.342252 -0.428358,0.513376 -0.04199,0.03329 -0.17948,0.09674 -0.125981,0.09987 0.106,0.0062 0.203144,-0.06205 0.305763,-0.08933 0.09523,-0.02532 0.191257,-0.0477 0.287597,-0.0684 0.297772,-0.06398 0.596635,-0.100132 0.899049,-0.132884 0.703513,-0.06126 1.410361,-0.06062 2.115941,-0.06336 0.1553,-1.22e-4 0.31072,-0.0067 0.46589,-2.65e-4 0.0805,0.0033 0.53569,0.06585 0.59025,0.07317 0.41214,0.05532 0.82255,0.105545 1.23653,0.14555 0.83652,0.159983 1.6782,0.276683 2.52707,0.343186 0.31542,0.03865 0.63438,0.01627 0.95033,0.04324 0.18492,0.0158 0.36427,0.0715 0.54715,0.103093 0.53056,0.09166 0.47295,0.0778 1.0397,0.151603 0.661,0.08415 1.32794,0.08886 1.9917,0.13198 0.62778,0.04078 1.25514,0.11507 1.88148,0.173368 1.12898,0.114948 2.26251,0.155646 3.39649,0.174421 1.05095,0.01291 2.10201,0.01127 3.15302,0.01048 0.99413,-0.0013 1.98827,-0.0016 2.98241,-0.0019 0.72378,-1.96e-4 1.44755,-2.39e-4 2.17132,-2.65e-4 0.59708,-2.4e-5 0.33917,-0.02397 0.7763,0.03875 1.01704,0.204917 2.04738,0.28014 3.08178,0.326226 1.15927,0.01588 2.30681,0.192666 3.4624,0.271412 1.05805,0.06255 2.11797,0.07948 3.1776,0.08737 0.13695,5.29e-4 0.27391,0.0013 0.41086,0.0016 0.004,1.1e-5 0.76,0.0013 0.77524,5.29e-4 0.51193,-0.0241 1.02,-0.09718 1.52887,-0.153849 1.06794,-0.184923 2.14011,-0.329166 3.221,-0.407554 1.29127,-0.06369 2.58475,-0.06125 3.87726,-0.06445 1.22551,-0.0011 2.45101,0.0011 3.67652,0.0021 1.15905,7.94e-4 2.31811,0.0011 3.47716,0.0013 0.84304,7.7e-5 1.68607,5.3e-5 2.5291,4.5e-5 1.1158,-1.1e-5 2.2316,-1.6e-5 3.3474,-1.6e-5 0.26712,0 0.53432,-0.006 0.80137,-2e-6 0.34506,0.0078 1.29143,0.06686 1.60937,0.08494 0.92006,0.05232 1.84022,0.09725 2.76086,0.137819 1.47511,0.01294 2.9417,0.167703 4.412,0.268821 1.2724,0.08566 2.54758,0.111723 3.82244,0.125606 0.11852,0.01434 0.23803,0.02212 0.35557,0.04303 0.10434,0.01857 0.2057,0.05107 0.3089,0.07519 0.34083,0.07966 0.68561,0.142631 1.02464,0.229637 0.26729,0.06859 0.52705,0.163759 0.79034,0.246364 0.40153,0.171331 0.82119,0.293198 1.23109,0.440751 0.0889,0.03199 0.17387,0.07386 0.26165,0.108728 0.42534,0.168965 0.39604,0.152731 0.8431,0.305977 0.28637,0.150207 0.59737,0.242118 0.89727,0.358939 0.30171,0.117526 0.59889,0.254051 0.89878,0.376833 0.16077,0.05821 0.32303,0.112488 0.48232,0.174633 0.10032,0.03914 0.19742,0.08605 0.29613,0.129072 0.14571,0.05906 0.29026,0.121028 0.43711,0.177159 0.41435,0.15838 0.83338,0.308745 1.25093,0.458603 0.93464,0.289039 1.85988,0.604731 2.80597,0.855167 0.62453,0.251392 1.26204,0.485725 1.84217,0.830678 0.95381,0.519422 1.90011,1.08784 2.73586,1.787107 0.13238,0.110763 0.25237,0.235548 0.37856,0.353322 0.86147,0.774155 0.13329,0.09992 0.82984,0.791784 0.16072,0.159645 0.3324,0.308301 0.48868,0.472303 0.10185,0.106897 0.18809,0.22769 0.28472,0.339338 0.73347,0.847495 0.1447,0.136721 0.76128,0.892422 0.1166,0.144658 0.23278,0.289652 0.3498,0.43398 0.23328,0.287734 0.44944,0.541549 0.66716,0.840345 0.34025,0.46695 0.6567,0.952956 0.99128,1.424202 0.68253,0.8933 1.32859,1.811621 1.94182,2.753638 0.22486,0.377645 0.42565,0.767101 0.62689,1.157203 0.0814,0.157774 0.17586,0.308874 0.25116,0.469641 0.0447,0.09537 0.0702,0.19859 0.1079,0.296939 0.0629,0.164256 0.12915,0.327202 0.19373,0.490804 0.31141,0.851533 0.41032,1.753201 0.46962,2.651649 0.007,0.154237 0.007,0.308859 0.0201,0.462704 0.0292,0.349713 0.10951,0.93378 0.1508,1.288994 0.0808,0.695 0.17524,1.385358 0.27993,2.077265 0.15157,0.927706 0.24493,1.862354 0.28786,2.80094 0.0248,0.707665 0.0222,1.415904 0.0214,2.123892 -0.002,0.789462 -0.003,1.578932 -0.003,2.368402 -2.6e-4,0.46417 -2.6e-4,0.92834 -5.3e-4,1.39251 -2e-5,0.14295 -0.008,0.28616 -5e-5,0.42887 0.0256,0.43701 0.0777,0.75325 0.13736,1.17832 0.14046,0.89059 0.21414,1.78812 0.25102,2.68825 0.0288,0.97367 0.0276,1.94789 0.0279,2.92189 -9e-5,0.16273 0.006,0.32558 -2.6e-4,0.48819 -0.004,0.099 -0.0695,0.65813 -0.0769,0.72206 -0.0505,0.43185 -0.0994,0.86314 -0.14083,1.29599 -0.27929,0.81493 -0.35092,1.69166 -0.42554,2.54524 -0.0843,1.15842 -0.0821,2.32086 -0.0858,3.48167 -0.002,1.13135 5.3e-4,2.2627 0.002,3.39405 0.0271,0.85237 -0.14692,1.69385 -0.17998,2.54414 -0.0101,0.25963 -0.004,0.51963 -0.006,0.77944 0.0327,1.15933 0.1143,2.3163 0.15454,3.47535 -0.008,1.03831 0.13034,2.06766 0.22992,3.099 0.20922,1.27432 0.43493,2.54911 0.74596,3.80276 0.25747,0.82071 0.3925,1.66784 0.46447,2.52256 0.011,0.39895 0.0524,0.80016 0.04,1.19964 -0.002,0.057 -0.0179,0.11254 -0.0258,0.16897 -0.0114,0.0821 -0.0868,0.66297 -0.0923,0.70568 -0.0634,0.59691 -0.1502,1.1966 -0.15267,1.79827 -7.9e-4,0.22463 0.0141,0.44903 0.0212,0.67354 0.1239,2.8257 4.12003,2.65047 3.99613,-0.17522 v 0 c -0.0422,-0.5956 0.0294,-1.18937 0.1019,-1.78061 0.0635,-0.48793 0.13641,-0.97431 0.15081,-1.46716 0.0143,-0.48955 -0.0376,-0.98109 -0.0543,-1.46973 -0.0952,-1.06896 -0.25835,-2.13159 -0.57252,-3.16065 -0.27708,-1.05276 -0.4336,-2.13535 -0.64145,-3.20317 -0.0921,-0.9499 -0.22557,-1.89689 -0.21376,-2.85337 -0.0389,-1.11096 -0.11204,-2.2201 -0.15212,-3.33098 -0.002,-0.16235 -0.0105,-0.32479 -0.005,-0.48704 0.0339,-0.95009 0.23456,-1.8917 0.19103,-2.84536 -0.001,-1.12575 -0.003,-2.2515 -0.002,-3.37726 0.003,-1.0507 -2.4e-4,-2.10288 0.0711,-3.1517 0.0332,-0.3935 0.0578,-0.7928 0.12911,-1.18193 0.0505,-0.27557 0.11107,-0.4461 0.17251,-0.72572 0.0439,-0.19978 0.0804,-0.40111 0.12067,-0.60166 0.0908,-0.96091 0.2566,-1.91872 0.236,-2.88656 -5.3e-4,-1.0291 7.9e-4,-2.05846 -0.0314,-3.08718 -0.0438,-1.03158 -0.12754,-2.06051 -0.28693,-3.08141 -0.0209,-0.14631 -0.0394,-0.29296 -0.0626,-0.43893 -0.01,-0.06 -0.0319,-0.11816 -0.0354,-0.17883 -0.008,-0.14261 3e-5,-0.2857 6e-5,-0.42855 8e-5,-0.46353 2.1e-4,-0.92706 5.3e-4,-1.39059 5.3e-4,-0.78898 0.002,-1.57796 0.003,-2.366943 7.9e-4,-0.771626 0.003,-1.543534 -0.0258,-2.314758 -0.0512,-1.076457 -0.15541,-2.148937 -0.32858,-3.213147 -0.0995,-0.656429 -0.1885,-1.309928 -0.26509,-1.969352 -0.0379,-0.326078 -0.098,-0.649708 -0.12456,-0.9769 -0.0151,-0.186153 -0.0171,-0.373142 -0.0256,-0.559713 -0.0934,-1.307153 -0.26808,-2.612937 -0.73969,-3.845004 -0.14828,-0.375338 -0.33246,-0.854038 -0.49797,-1.210887 -0.0579,-0.124756 -0.13263,-0.240988 -0.19597,-0.363053 -0.2727,-0.525494 -0.54119,-1.05219 -0.85496,-1.55538 -0.64328,-0.986131 -1.31667,-1.951064 -2.03218,-2.886382 -0.36615,-0.514987 -0.71358,-1.044823 -1.08755,-1.554059 -0.24866,-0.338616 -0.45628,-0.581951 -0.71775,-0.904417 -0.1241,-0.153062 -0.24739,-0.306779 -0.37109,-0.460169 -0.43967,-0.533783 -0.88572,-1.071737 -1.36165,-1.573866 -0.13224,-0.139517 -0.27867,-0.264898 -0.41552,-0.399894 -0.81848,-0.807368 -0.21749,-0.25156 -0.99291,-0.948285 -0.21449,-0.191185 -0.42198,-0.390541 -0.64348,-0.573556 -0.97964,-0.809402 -2.08695,-1.481568 -3.19826,-2.090875 -0.20446,-0.111768 -0.40548,-0.230071 -0.61338,-0.335301 -0.1749,-0.08853 -0.53434,-0.234638 -0.73145,-0.320492 -0.47318,-0.2061 -0.94625,-0.40853 -1.44203,-0.556927 -0.8351,-0.216474 -1.64732,-0.506053 -2.47363,-0.752332 -0.36669,-0.130678 -0.73412,-0.262131 -1.09797,-0.400325 -0.42631,-0.161917 -0.41666,-0.180623 -0.88687,-0.36475 -0.10311,-0.04038 -0.209,-0.07329 -0.3135,-0.109929 -0.67549,-0.276553 -1.35247,-0.546176 -2.02792,-0.822428 -0.38917,-0.129529 -0.76388,-0.28975 -1.14936,-0.42953 -0.42379,-0.153672 -0.85728,-0.283427 -1.27505,-0.454795 -0.53992,-0.168732 -1.07596,-0.322947 -1.62805,-0.446405 -0.39195,-0.08765 -0.90793,-0.213473 -1.29631,-0.267988 -0.23424,-0.03288 -0.47125,-0.04154 -0.70688,-0.06231 -1.19799,-0.01291 -2.3963,-0.03636 -3.59201,-0.116459 -1.50283,-0.102833 -3.00216,-0.259937 -4.50984,-0.274333 -0.9022,-0.03969 -1.80388,-0.08388 -2.70551,-0.134999 -0.56742,-0.03217 -1.27312,-0.07883 -1.84065,-0.09163 -0.26706,-0.006 -0.53425,2e-6 -0.80138,2e-6 -1.11581,0 -2.23161,6e-6 -3.34742,1.6e-5 -0.84286,8e-6 -1.68571,3.2e-5 -2.52856,-4.5e-5 -1.15822,-1.45e-4 -2.31644,-5.29e-4 -3.47466,-0.0013 -1.22982,-7.93e-4 -2.45966,-0.0031 -3.68948,-0.0021 -1.38694,0.0035 -2.77502,0.0011 -4.16039,0.07519 -1.13057,0.08397 -2.25534,0.219318 -3.37136,0.421457 -0.51998,0.0581 -0.39605,0.04237 -0.85787,0.100089 -0.076,0.0095 -0.15131,0.0254 -0.22776,0.0291 -0.38456,0.01865 -0.77164,-0.01497 -1.15636,-0.0021 -0.98046,-0.0072 -1.96122,-0.02201 -2.9403,-0.07857 -1.18624,-0.07745 -2.36375,-0.267925 -3.55432,-0.276494 -0.49409,-0.02119 -0.99135,-0.03319 -1.48258,-0.09604 -0.16352,-0.02093 -0.67616,-0.109024 -0.82052,-0.131627 -0.1801,-0.02819 -0.36055,-0.05402 -0.54082,-0.08103 -0.22768,-0.02003 -0.45476,-0.04859 -0.68303,-0.06012 -0.16854,-0.0085 -0.3375,6e-6 -0.50625,1.4e-5 -0.72412,2.6e-5 -1.44824,6.8e-5 -2.17236,2.64e-4 -0.99472,2.65e-4 -1.98944,7.94e-4 -2.98416,0.0019 -1.02821,7.94e-4 -2.05646,0.0024 -3.08461,-0.0099 -1.03207,-0.01667 -2.06373,-0.05219 -3.09121,-0.157742 -0.69128,-0.06434 -1.38293,-0.141243 -2.07577,-0.18669 -0.55305,-0.03628 -1.10889,-0.03804 -1.6601,-0.103481 -0.65234,-0.08164 -1.29629,-0.225957 -1.95138,-0.284512 -0.13303,-0.01191 -0.267,-0.0083 -0.40043,-0.01408 -0.13033,-0.0057 -0.26057,-0.01352 -0.39085,-0.02029 -0.82516,-0.05974 -1.63662,-0.206735 -2.45292,-0.336868 -0.89477,-0.08216 -1.7827,-0.269396 -2.6852,-0.236101 -0.85026,0.0034 -1.702097,0.006 -2.54921,0.08862 -1.029301,0.119547 -2.051386,0.30792 -2.998007,0.749208 -0.296773,0.264911 -0.652537,0.475811 -0.890313,0.794737 -0.200845,0.26939 -0.317616,0.600654 -0.393991,0.927883 -0.22058,0.945073 0.168265,1.86114 0.628674,2.656274 0.110167,0.15953 0.214887,0.322963 0.330502,0.478591 0.456252,0.614167 0.131087,0.133244 0.514924,0.617464 0.357957,0.451574 0.689007,0.924406 1.092501,1.339304 0.719,0.651529 1.43096,1.316101 2.227146,1.873629 0.213085,0.148651 0.413899,0.314452 0.627669,0.462113 0.0705,0.0487 0.09278,0.0053 0.154673,0.07177 0.17735,0.190598 0.275923,0.448054 0.45499,0.634834 0.523859,0.649308 1.063012,1.288034 1.675082,1.857338 0.27889,0.257241 0.33078,0.314788 0.62861,0.550717 0.0443,0.03512 0.095,0.06177 0.13899,0.09732 0.36366,0.293875 0.36217,0.372695 0.87326,0.679545 0.19252,0.115589 0.40821,0.187272 0.61232,0.280908 0.21083,0.05388 0.41865,0.121306 0.63248,0.161655 0.40361,0.07616 1.14707,0.06689 1.44235,-0.12746 0.49033,-0.322725 1.04059,-0.716161 1.21199,-1.27758 0.40712,-1.333498 -0.11188,-1.685076 -0.7587,-2.379131 -0.2473,-0.181187 -0.50289,-0.368096 -0.75574,-0.540054 -0.0164,-0.01117 -0.0397,-0.0086 -0.0564,-0.01934 -0.13808,-0.08895 -0.43482,-0.373695 -0.48917,-0.422743 -0.21919,-0.173567 -0.43089,-0.356513 -0.65133,-0.528492 -0.079,-0.06162 -0.16602,-0.112401 -0.2452,-0.173771 -0.43025,-0.333491 -0.33274,-0.296833 -0.77585,-0.615122 -0.0507,-0.03644 -0.10734,-0.0639 -0.16101,-0.09585 -0.33184,-0.314809 -0.66005,-0.631963 -1.0148,-0.921348 -1.13904,-0.929177 0.0951,0.07509 -0.62747,-0.469093 -0.1018,-0.07666 -0.19773,-0.160808 -0.2966,-0.241215 -0.71813,-0.619739 0.24649,0.219305 -0.68008,-0.61585 -0.447756,-0.403574 -0.925374,-0.773493 -1.395435,-1.15012 -0.81234,-0.768127 -1.672458,-1.493562 -2.689818,-1.978734 -0.419647,-0.217069 -0.807497,-0.480001 -1.237816,-0.678307 -0.163372,-0.07529 -0.325069,-0.171 -0.503428,-0.194402 -0.0047,-5.29e-4 -0.0065,0.007 -0.0098,0.01053 0.645581,0.741466 0.761241,0.640824 0.707041,1.845921 -0.0083,0.185407 -0.172839,0.518568 -0.356957,0.664962 -0.01926,0.01532 0.02813,-0.04036 0.0422,-0.06055 0.101547,-0.09202 0.203095,-0.184041 0.304642,-0.276063 0.391768,-0.407985 0.827688,-0.771996 1.196292,-1.202164 0.567407,-0.493966 1.091541,-1.033936 1.677046,-1.50685 0.356571,-0.335481 0.137908,-0.13499 0.664255,-0.592325 0.366821,-0.343884 0.650258,-0.760577 0.952928,-1.158124 0.113872,-0.199093 0.01326,-0.03781 0.256434,-0.330234 0.264696,-0.318307 0.580026,-0.596164 0.853236,-0.908389 0.27035,-0.330925 0.0223,-0.03922 0.4685,-0.499491 0.0713,-0.07353 0.13534,-0.153963 0.20829,-0.225832 0.30701,-0.302451 0.6433,-0.574651 0.95902,-0.867627 0.11315,-0.101708 0.22808,-0.201467 0.33945,-0.305123 0.0621,-0.05776 0.11669,-0.123407 0.1807,-0.178996 0.41281,-0.358473 0.85559,-0.67769 1.31093,-0.979879 0.17431,-0.131085 0.35344,-0.255995 0.52293,-0.393255 0.34441,-0.278916 0.50059,-0.451887 0.82192,-0.742262 0.48804,-0.441013 0.98936,-0.867172 1.39536,-1.390116 1.64398,-2.301571 -1.61093,-4.626507 -3.25491,-2.324936 z" /></svg>
