<?xml version="1.0" encoding="UTF-8" standalone="no"?>
<!-- Created with Inkscape (http://www.inkscape.org/) -->

<svg
   width="313"
   height="265"
   viewBox="0 0 82.814581 70.114583"
   version="1.1"
   id="svg5"
   inkscape:version="1.2.2 (732a01da63, 2022-12-09)"
   inkscape:export-filename="Instructor_exploded.webp"
   inkscape:export-xdpi="96"
   inkscape:export-ydpi="96"
   sodipodi:docname="instructor_exploded.svg"
   xmlns:inkscape="http://www.inkscape.org/namespaces/inkscape"
   xmlns:sodipodi="http://sodipodi.sourceforge.net/DTD/sodipodi-0.dtd"
   xmlns:xlink="http://www.w3.org/1999/xlink"
   xmlns="http://www.w3.org/2000/svg"
   xmlns:svg="http://www.w3.org/2000/svg">
  <sodipodi:namedview
     id="namedview7"
     pagecolor="#ffffff"
     bordercolor="#000000"
     borderopacity="0.25"
     inkscape:showpageshadow="2"
     inkscape:pageopacity="0.0"
     inkscape:pagecheckerboard="0"
     inkscape:deskcolor="#d1d1d1"
     inkscape:document-units="px"
     showgrid="false"
     inkscape:zoom="2.8284271"
     inkscape:cx="107.12668"
     inkscape:cy="141.77491"
     inkscape:window-width="2560"
     inkscape:window-height="1377"
     inkscape:window-x="2552"
     inkscape:window-y="-8"
     inkscape:window-maximized="1"
     inkscape:current-layer="svg5" />
  <defs
     id="defs2">
    <inkscape:path-effect
       effect="envelope"
       id="path-effect44538"
       is_visible="true"
       lpeversion="1"
       yy="true"
       xx="true"
       bendpath1="M -5.3167305,-14.007534 H 87.725994"
       bendpath2="M 87.725994,-14.007534 V 79.035191"
       bendpath3="M -5.3167305,79.035191 H 87.725994"
       bendpath4="M -5.3167305,-14.007534 V 79.035191" />
    <linearGradient
       inkscape:collect="always"
       id="linearGradient44171">
      <stop
         style="stop-color:#000000;stop-opacity:0.92881358;"
         offset="0.66178054"
         id="stop44167" />
      <stop
         style="stop-color:#000000;stop-opacity:0;"
         offset="1"
         id="stop44169" />
    </linearGradient>
    <radialGradient
       inkscape:collect="always"
       xlink:href="#linearGradient44171"
       id="radialGradient44173"
       cx="39.14838"
       cy="35.931488"
       fx="39.14838"
       fy="35.931488"
       r="37.370457"
       gradientUnits="userSpaceOnUse"
       gradientTransform="matrix(1.1325316,-0.36563445,0.33651839,1.0423463,-10.862025,11.52845)" />
    <clipPath
       clipPathUnits="userSpaceOnUse"
       id="clipPath47309">
      <g
         inkscape:label="Clip"
         id="use47311" />
    </clipPath>
    <clipPath
       clipPathUnits="userSpaceOnUse"
       id="clipPath47324">
      <g
         inkscape:label="Clip"
         id="use47326" />
    </clipPath>
    <clipPath
       clipPathUnits="userSpaceOnUse"
       id="clipPath48797">
      <path
         style="display:inline;opacity:0.466501;fill:#ffffff;stroke-width:0.264583"
         d="M 10.306326,43.811872 9.1305111,38.520708 17.105602,38.162851 c 0,0 1.719331,-0.262739 2.333155,-0.269166 1.621079,-2.127242 3.45865,-3.036165 3.469234,-3.028227 -1.793678,0.91826 -5.635894,-1.107869 -5.693389,-4.650272 -0.315648,-1.467538 -0.09785,-3.395493 1.146118,-4.283741 0.804438,-1.280783 1.530575,-1.72636 2.272325,-2.33847 -0.335892,-2.082745 -0.07798,-8.273451 2.719004,-10.55677 1.9503,-1.939544 3.825837,-2.95892 5.939836,-3.4349803 -2.135108,-1.4004485 -4.493372,-2.1142904 -6.77558,-0.8737682 -0.459533,-0.1137068 -0.59904,-0.3932108 -0.370313,-0.8252142 1.360437,-2.3376255 3.435986,-4.4640941 7.510534,-2.7472574 1.023176,0.4847836 4.28289,2.5618969 6.65357,3.6434601 0.819502,0.5602245 2.795055,0.7998561 4.313663,1.1877958 0.343535,0.085731 0.533728,0.1380342 0.640541,0.4454932 l 0.345675,1.54035 c 1.321358,0.625228 2.660661,1.187643 3.919664,2.03111 0.02183,-0.456498 0.187127,-0.698342 0.339532,-0.884029 -0.509992,-0.483265 -0.809442,-1.260233 -0.949433,-2.060025 -0.144695,-0.82666 0.06326,-1.6587057 0.504195,-1.8725121 2.577902,-0.8747871 3.896352,-3.5514557 5.65173,-5.5538387 0.360381,-0.3984541 1.367994,-0.5213549 2.692191,-0.3289179 1.239184,0.1532404 2.636353,0.9184609 3.516556,1.7613776 0.230442,0.2670135 0.209029,0.6758987 -0.222038,0.8541482 -0.366866,0.1146218 -0.762056,0.1360139 -1.146122,0.1990363 -0.518764,0.093606 -1.655972,0.2403567 -1.960002,1.0219769 -0.0927,0.2506083 -0.192347,0.4803767 -0.410628,0.8558562 -0.899557,1.4196652 -2.363097,2.7082015 -4.040079,3.9002225 2.331794,0.02979 4.345834,0.0206 5.975392,0.760608 0.960821,0.428113 1.137772,0.670932 1.626304,1.612235 0.186844,0.344614 0.401243,0.661671 0.85412,0.740252 0.948343,0.20044 1.513345,0.725264 1.306264,2.233009 -0.153969,0.495484 -0.278122,0.863376 -0.731877,1.038471 -0.208484,0.09433 -0.592209,0.139633 -0.708306,0.221291 -0.06114,0.09072 -0.1719,0.220113 -0.232918,0.694096 -0.03796,0.404515 0.02201,0.80903 0.03429,1.213545 0.02897,0.371138 0.04974,0.657388 -0.03599,1.201142 -0.07932,0.336646 -0.24706,0.732442 -0.508125,1.127037 0.23757,0.179243 0.481595,0.375533 0.757346,0.63114 0.266965,0.315735 0.356987,1.041884 0.386517,1.757331 0.02336,0.724274 -0.01294,1.010713 -0.29168,1.516853 -0.180326,0.354264 -0.471627,0.737171 -0.662921,0.892201 -0.02908,0.03204 -0.400632,0.352886 -0.719717,0.399474 -0.167788,0.216074 -0.159009,0.969904 -0.202443,1.454898 -0.03645,0.390935 -0.05838,0.949307 -0.254119,1.663669 -0.12858,0.34591 -0.152567,0.706588 -0.646608,0.970695 -0.194151,0.124423 -0.764701,0.316378 -0.856144,0.359333 0.286737,0.381873 1.351463,1.834264 2.371294,4.709149 1.695392,0.430443 5.042876,1.325174 6.71281,1.779641 0.4534,0.134977 0.438864,0.73038 0.392046,1.244126 -0.12333,1.137518 -0.404079,2.507647 -0.731877,3.82619 l 13.803225,0.169341 7.157133,9.86662 0.311665,23.378678 -88.2633939,-0.02003 0.5182545,-33.530468 c 0,0 5.2786963,0.0049 13.4402304,0.0049 z"
         id="path48799"
         sodipodi:nodetypes="cccccccccccccccccccsccccccccccccccccccccccccccccccccccccccc"
         inkscape:label="Clipping Group" />
    </clipPath>
    <filter
       inkscape:collect="always"
       style="color-interpolation-filters:sRGB"
       id="filter49532"
       x="-0.14071142"
       y="-0.14071142"
       width="1.2814228"
       height="1.2814228">
      <feGaussianBlur
         inkscape:collect="always"
         stdDeviation="5.4550722"
         id="feGaussianBlur49534" />
    </filter>
  </defs>
  <path
     style="display:inline;fill:#0009a1;fill-opacity:1;stroke:#000000;stroke-width:0.79375;stroke-dasharray:none;stroke-opacity:1"
     d="m 17.111538,38.564852 c 7.197294,-1.124258 3.351111,1.231177 1.120618,5.892283 0.144596,0 -1.120618,-5.892283 -1.120618,-5.892283 z"
     id="path35562"
     sodipodi:nodetypes="ccc"
     inkscape:label="SuitBack" />
  <g
     inkscape:groupmode="layer"
     id="layer6"
     inkscape:label="Shirt"
     style="display:inline"
     transform="translate(-41.13753,-3.3257029)">
    <path
       style="opacity:1;fill:#d1f9ff;fill-opacity:1;stroke:#000000;stroke-width:1.32292;stroke-dasharray:none;stroke-opacity:1"
       d="m 70.575869,60.868767 20.966407,0.144597 -0.307269,17.243061 -20.586843,-0.03615 z"
       id="path22353"
       sodipodi:nodetypes="ccccc" />
    <path
       style="opacity:1;fill:#d1f9ff;fill-opacity:1;stroke:#000000;stroke-width:0.79375;stroke-dasharray:none;stroke-opacity:1"
       d="m 72.629093,69.831896 c 2.39665,-7.692886 5.237974,-9.41596 7.891067,-13.518651 L 65.796936,38.009146 c -3.752466,0.874939 -6.057101,4.705868 -8.19855,8.869967 z"
       id="path8425"
       sodipodi:nodetypes="ccccc" />
    <path
       style="opacity:1;fill:#d1f9ff;fill-opacity:1;stroke:#000000;stroke-width:0.79375;stroke-dasharray:none;stroke-opacity:1"
       d="m 82.328983,57.434304 c 2.44636,2.076522 3.584249,-2.307224 9.166113,10.515279 l 6.264803,-14.310611 z"
       id="path13741"
       sodipodi:nodetypes="cccc" />
  </g>
  <path
     style="display:inline;fill:#ff1903;fill-opacity:1;stroke:#000000;stroke-width:0.79375;stroke-dasharray:none;stroke-opacity:1"
     d="m 38.417442,59.617394 -9.508761,15.49008 c 10.918034,0.196106 14.057007,0.187932 23.26068,-0.102246 L 42.720373,59.607239 Z"
     id="path34099"
     sodipodi:nodetypes="ccccc"
     inkscape:label="Tie_Tail" />
  <g
     inkscape:groupmode="layer"
     id="layer2"
     inkscape:label="Suit"
     style="display:inline"
     transform="translate(-41.13753,-3.3257029)">
    <g
       inkscape:groupmode="layer"
       id="layer3"
       inkscape:label="Suit_Right"
       style="opacity:1">
      <path
         style="opacity:1;fill:#000a8f;fill-opacity:1;stroke:#000000;stroke-width:0.79375;stroke-dasharray:none;stroke-opacity:1"
         d="m 83.054285,78.152004 0.03979,-3.215057 c 5.755878,-8.922062 11.603561,-17.772086 14.42784,-27.356122 l 20.553765,0.249409 6.8737,9.485016 -0.006,20.912685 z"
         id="path3211"
         sodipodi:nodetypes="ccccccc" />
    </g>
    <g
       inkscape:groupmode="layer"
       id="layer4"
       inkscape:label="Suit_Left"
       style="display:inline">
      <path
         id="rect27184"
         style="opacity:1;fill:#0009a1;stroke:#000000;stroke-width:0.79375;stroke-dasharray:none"
         d="m 39.040493,47.529702 h 18.518338 c 4.973834,8.366668 15.229543,21.870335 23.79425,27.935162 l 0.03402,2.473878 -42.346609,-0.144596 z"
         sodipodi:nodetypes="cccccc" />
    </g>
  </g>
  <g
     inkscape:groupmode="layer"
     id="layer7"
     inkscape:label="Collar"
     style="display:inline"
     transform="translate(-41.13753,-3.3257029)">
    <g
       inkscape:groupmode="layer"
       id="layer12"
       inkscape:label="Collar_Right"
       style="display:inline">
      <path
         style="opacity:1;fill:#0009a1;fill-opacity:1;stroke:#000000;stroke-width:0.79375;stroke-dasharray:none;stroke-opacity:1"
         d="m 83.148004,74.9056 -0.0176,0.480393 15.46092,-8.914134 -4.663217,-5.422347 5.819984,1.229067 c 0.172504,0.03696 6.000629,-19.331982 4.952419,-19.701193 -0.13639,-0.04804 -6.832165,-1.807447 -6.832165,-1.807447 0.8242,12.48038 -14.720342,34.135661 -14.720341,34.135661 z"
         id="path36388"
         sodipodi:nodetypes="cccccscc" />
    </g>
    <g
       inkscape:groupmode="layer"
       id="layer8"
       inkscape:label="Collar_Left"
       style="display:inline">
      <path
         style="display:inline;opacity:1;fill:#0009a1;fill-opacity:1;stroke:#000000;stroke-width:0.79375;stroke-dasharray:none;stroke-opacity:1"
         d="m 50.802379,42.252044 c 1.558447,7.673558 3.323167,14.898646 6.68756,23.171494 l 7.518987,-1.662851 c 0,0 -4.59092,4.699365 -4.337877,4.699365 0.253043,0 21.002556,7.193648 21.002556,7.193648 C 68.930088,65.988361 60.146099,53.440245 58.502111,41.890554 Z"
         id="path30147"
         sodipodi:nodetypes="cccsccc" />
    </g>
  </g>
  <path
     style="display:inline;fill:#ff1903;fill-opacity:1;stroke:#000000;stroke-width:0.79375;stroke-dasharray:none;stroke-opacity:1"
     d="m 33.414725,61.664048 c 1.370126,-3.501306 3.8588,-5.828136 6.578111,-7.912798 l 1.796102,-0.214518 c 2.479409,1.54977 5.213235,3.403059 6.125914,6.566707 -7.660537,9.331228 -13.433311,2.539886 -14.500127,1.560609 z"
     id="path3220"
     sodipodi:nodetypes="ccccc"
     inkscape:label="Tie_Knot" />
  <g
     inkscape:groupmode="layer"
     id="layer9"
     inkscape:label="Face"
     style="display:inline"
     transform="translate(-41.13753,-3.3257029)">
    <g
       inkscape:groupmode="layer"
       id="layer13"
       inkscape:label="Skin"
       style="display:inline">
      <path
         style="display:inline;opacity:1;fill:#ffcd99;fill-opacity:1;stroke:#000000;stroke-width:0.79375;stroke-dasharray:none;stroke-opacity:1"
         d="m 63.32362,30.148092 c -1.726377,-3.449714 -1.30864,-5.476603 -1.022448,-7.7706 0.286192,-2.293997 0.826399,-3.863109 2.070456,-5.291165 1.763995,-2.024893 4.365272,-3.597772 7.029326,-3.936423 4.545219,-0.577782 9.163543,1.514372 13.291817,3.501883 2.880438,1.386754 5.105099,3.850065 7.693918,5.725704 0.901738,0.653323 1.828442,1.271722 2.730039,1.92524 1.197384,0.867918 3.196793,2.263621 3.558013,2.650214 0.27969,0.299336 0.392844,2.010582 0.220369,2.453938 -0.195435,0.502377 -0.651312,1.308943 -1.293939,1.469703 -0.759212,0.189925 -0.218752,2.105277 -0.894642,3.821398 -0.218561,0.554939 -1.794623,0.60048 -1.431428,1.073571 1.581522,2.060061 2.818985,5.263336 3.374078,8.2307 0.316614,1.692519 0.599836,3.474805 0.02556,5.061115 -0.743083,2.052603 -2.389497,3.816927 -4.217595,5.009995 -1.799522,1.174419 -4.155265,1.111678 -6.185807,1.814844 -1.752246,0.606792 -3.361971,1.630498 -5.16336,2.070455 -1.696626,0.414371 -3.46935,0.580175 -5.214483,0.511222 -1.937248,-0.07654 -4.086828,0.01335 -5.725705,-1.022445 -1.363077,-0.861485 -2.076048,-2.501532 -2.811728,-3.936423 -2.22503,-4.33976 -4.566571,-7.760652 -4.703259,-13.854163 -0.136688,-6.093511 0.397195,-6.059049 -1.329182,-9.508763 z"
         id="path36392"
         sodipodi:nodetypes="zzaaaaassssssaaaaaaazz"
         inkscape:label="Skin" />
      <path
         style="opacity:1;fill:#ffcd99;fill-opacity:1;stroke:#000000;stroke-width:0.79375;stroke-dasharray:none;stroke-opacity:1"
         d="m 70.910906,48.865087 c -1.178083,-1.2951 -0.86623,-2.337157 -0.947049,-3.632257"
         id="path37592"
         sodipodi:nodetypes="cc" />
      <path
         style="opacity:1;fill:#ffcd99;fill-opacity:1;stroke:#000000;stroke-width:0.79375;stroke-dasharray:none;stroke-opacity:1"
         d="m 87.91038,56.115693 c 2.109831,-1.91465 4.074191,-4.106101 5.241326,-6.303559"
         id="path38322"
         sodipodi:nodetypes="cc" />
      <path
         style="opacity:1;fill:#ffcd99;fill-opacity:1;stroke:#000000;stroke-width:0.79375;stroke-dasharray:none;stroke-opacity:1"
         d="m 89.442129,36.98319 c -0.169969,-0.250089 -2.384722,0.942152 -2.68399,0.920189 -0.299268,-0.02196 5.223608,-2.616608 5.470966,-2.555789 1.568059,0.385549 -3.341742,1.831803 -3.341742,1.688038"
         id="path38324"
         sodipodi:nodetypes="czsc" />
    </g>
  </g>
  <g
     inkscape:groupmode="layer"
     id="layer14"
     inkscape:label="Brows"
     style="display:inline;fill:#d1cdcd;fill-opacity:1"
     transform="translate(-41.13753,-3.3257029)">
    <path
       style="opacity:1;fill:#d1cdcd;fill-opacity:1;stroke:#000000;stroke-width:0.79375;stroke-dasharray:none;stroke-opacity:1"
       d="m 82.008845,13.840059 c -0.04427,-0.194768 -3.313991,-0.6463 -4.294277,-1.124693 -6.639392,-3.2401167 -6.195022,-3.9977947 -9.227589,-4.4220867 -3.032567,-0.424292 -5.039844,3.2827037 -4.907747,3.3229537 0,0 1.30067,-0.899914 3.719529,-0.517422 2.418859,0.382491 4.812585,2.825426 8.168421,4.286886 2.672781,1.163991 7.306698,1.9482 7.180688,1.266092 z"
       id="path40005"
       sodipodi:nodetypes="sszczscs" />
    <path
       style="opacity:1;fill:#d1cdcd;fill-opacity:1;stroke:#000000;stroke-width:0.79375;stroke-dasharray:none;stroke-opacity:1"
       d="m 86.909755,12.783142 c -1.149625,0.403758 -0.145382,3.698228 0.92725,3.622386 0.435649,-0.0308 5.868065,-3.254685 6.862792,-6.027514 0.637866,-1.7780707 4.038204,-1.1261337 3.389562,-1.7561247 -0.529491,-0.514266 -1.552724,-1.108 -2.423578,-1.421728 -0.623634,-0.224665 -2.729607,-0.466778 -3.165557,0.03256 -1.682117,1.926706 -3.089744,4.6721417 -5.590469,5.5504187 z"
       id="path40010"
       sodipodi:nodetypes="sssssss" />
  </g>
  <g
     inkscape:groupmode="layer"
     id="layer15"
     inkscape:label="Left_Ear"
     style="display:inline"
     transform="translate(-41.13753,-3.3257029)">
    <path
       style="display:inline;opacity:1;fill:#ffce99;fill-opacity:1;stroke:#000000;stroke-width:0.79375;stroke-dasharray:none;stroke-opacity:1"
       d="m 64.297514,30.670658 c 0,0 -3.041349,-1.867851 -4.399093,-1.187154 -1.032515,0.517646 -1.36901,2.069287 -1.278059,3.220709 0.09205,1.165374 0.704769,2.579874 1.789283,3.016221 1.561254,0.62816 4.865303,-1.348229 4.865303,-1.348229"
       id="path40343"
       sodipodi:nodetypes="caaac" />
  </g>
  <g
     inkscape:groupmode="layer"
     id="layer18"
     inkscape:label="Mouth"
     style="display:inline"
     transform="translate(-41.13753,-3.3257029)">
    <path
       style="display:inline;opacity:1;fill:#ffcd99;fill-opacity:1;stroke:#000000;stroke-width:0.79375;stroke-dasharray:none;stroke-opacity:1"
       d="m 70.174017,42.161853 c 0,0 0.380802,-4.097496 1.226937,-5.930196 0.814425,-1.764018 2.034077,-3.422197 3.578566,-4.601012 1.481732,-1.130916 3.348081,-1.723747 5.16336,-2.147141 4.656295,-1.086031 5.536218,-1.562631 13.952775,-0.811755 1.191164,0.106269 3.070977,2.243182 3.070977,2.243182"
       id="path38320"
       sodipodi:nodetypes="caassc" />
  </g>
  <path
     style="display:none;opacity:0.466501;fill:#ffffff;stroke-width:0.264583"
     d="M 10.306326,43.811872 9.1305112,38.520708 17.105602,38.162851 c 0,0 1.719331,-0.262738 2.333155,-0.269167 1.621079,-2.12724 3.45865,-3.036164 3.469234,-3.028226 -1.793678,0.918261 -5.635894,-1.10787 -5.693389,-4.650271 -0.315648,-1.467539 -0.09785,-3.395493 1.146118,-4.283742 0.804438,-1.280783 1.530575,-1.72636 2.272325,-2.33847 -0.335892,-2.082745 -0.07798,-8.273451 2.719004,-10.55677 1.9503,-1.939544 3.825836,-2.95892 5.939836,-3.4349803 -2.135108,-1.4004485 -4.493372,-2.1142904 -6.77558,-0.8737683 -0.459533,-0.1137067 -0.59904,-0.3932106 -0.370313,-0.8252141 1.360437,-2.3376255 3.435986,-4.464094 7.510535,-2.7472574 1.023174,0.4847836 4.282889,2.5618968 6.65357,3.64346 0.819502,0.5602246 2.795054,0.7998562 4.313662,1.187796 0.343536,0.085731 0.533727,0.1380341 0.64054,0.4454931 l 0.345675,1.54035 c 1.321358,0.625228 2.660662,1.187643 3.919666,2.03111 0.02184,-0.456498 0.187125,-0.698342 0.339531,-0.884029 -0.509993,-0.483265 -0.809443,-1.260233 -0.949434,-2.060025 -0.144695,-0.82666 0.06326,-1.6587057 0.504195,-1.8725121 2.577903,-0.874787 3.896354,-3.5514558 5.65173,-5.5538388 0.360382,-0.398454 1.367995,-0.5213549 2.692193,-0.3289178 1.239184,0.1532403 2.636352,0.9184609 3.516554,1.7613776 0.230443,0.2670135 0.209029,0.6758987 -0.222036,0.8541483 -0.366868,0.1146216 -0.762057,0.1360138 -1.146124,0.1990361 -0.518763,0.093606 -1.655971,0.2403569 -1.960001,1.0219769 -0.0927,0.2506085 -0.192347,0.4803768 -0.410627,0.8558563 -0.899558,1.4196653 -2.363097,2.7082015 -4.04008,3.9002225 2.331794,0.02979 4.345834,0.0206 5.975393,0.760608 0.960821,0.428113 1.137771,0.670932 1.626304,1.612235 0.186843,0.344614 0.401243,0.661671 0.854118,0.740252 0.948345,0.20044 1.513345,0.725264 1.306265,2.233009 -0.15397,0.495484 -0.278121,0.863376 -0.731877,1.038471 -0.208484,0.09433 -0.592208,0.139633 -0.708306,0.221291 -0.06114,0.09072 -0.171899,0.220113 -0.232917,0.694096 -0.03796,0.404515 0.02201,0.80903 0.03429,1.213545 0.02897,0.371138 0.04974,0.657388 -0.03599,1.201142 -0.07932,0.336646 -0.247059,0.732442 -0.508123,1.127037 0.237569,0.179243 0.481593,0.375533 0.757344,0.63114 0.266967,0.315735 0.356988,1.041884 0.386518,1.757331 0.02335,0.724274 -0.01295,1.010713 -0.291679,1.516853 -0.180327,0.354264 -0.471629,0.737171 -0.662921,0.892201 -0.02908,0.03204 -0.400632,0.352885 -0.719718,0.399474 -0.167788,0.216073 -0.159009,0.969904 -0.202443,1.454897 -0.03645,0.390937 -0.05838,0.949307 -0.254118,1.66367 -0.128581,0.34591 -0.152567,0.706589 -0.646608,0.970695 -0.194153,0.124422 -0.764703,0.316378 -0.856144,0.359332 0.286736,0.381874 1.351463,1.834266 2.371292,4.70915 1.695393,0.430442 5.042877,1.325173 6.71281,1.779642 0.453402,0.134977 0.438865,0.730379 0.392046,1.244124 -0.12333,1.137518 -0.404079,2.507647 -0.731877,3.826191 l 13.803227,0.169341 7.157132,9.866619 0.311666,23.37868 -88.2633949,-0.02003 0.5182544,-33.530467 c 0,0 5.2786964,0.0049 13.4402305,0.0049 z"
     id="path45011"
     sodipodi:nodetypes="cccccccccccccccccccsccccccccccccccccccccccccccccccccccccccc"
     inkscape:label="Clipping Group"
     sodipodi:insensitive="true" />
  <circle
     style="display:inline;opacity:1;fill:url(#radialGradient44173);fill-opacity:1;stroke-width:0.362605;filter:url(#filter49532)"
     id="path43779"
     cx="45.192177"
     cy="33.638519"
     r="46.521362"
     clip-path="url(#clipPath48797)" />
  <g
     inkscape:groupmode="layer"
     id="layer16"
     inkscape:label="Glasses"
     style="display:inline"
     transform="translate(-41.13753,-3.3257029)">
    <path
       style="display:inline;opacity:1;fill:#04053c;fill-opacity:1;stroke:#000000;stroke-width:0.79375;stroke-dasharray:none;stroke-opacity:1"
       d="m 64.090455,37.714207 c -0.72153,0.600361 -1.974365,0.27073 -2.81173,-0.153368 -1.101715,-0.557983 -2.012517,-1.675367 -2.351629,-2.862853 -0.429515,-1.504057 -0.0204,-3.222617 0.614533,-4.652137 0.458648,-1.032623 1.274292,-1.928451 2.195692,-2.582431 2.987659,-2.120543 5.969577,-5.987086 6.757897,-7.052319 0.538121,-0.727146 0.379238,-2.0256 1.111315,-2.637187 1.381604,-1.154213 3.47347,-1.074252 5.270744,-1.178382 2.694475,-0.156113 6.12779,-1.089651 8.053057,0.842232 0.972951,0.976295 0.710651,2.303665 1.681369,2.790557 0.710444,0.356345 1.81483,0.33105 2.372805,-0.234968 0.756847,-0.767758 -0.368546,-2.356045 0.272622,-3.222748 0.621945,-0.840719 1.837003,-1.21981 2.911939,-1.167576 2.518482,0.122379 4.898834,-0.136404 6.891684,1.05966 0.637161,0.38241 0.765709,1.307959 1.335383,1.78512 0.409433,0.342943 1.156473,0.262007 1.431429,0.719876 0.320685,0.534021 0.289815,1.341947 -0.0434,1.868226 -0.230776,0.364459 -0.910909,0.225899 -1.156676,0.580421 -0.677271,0.976972 0.04116,2.434221 -0.379564,3.546049 -0.203035,0.536549 -0.565384,1.024332 -0.995604,1.403829 -0.549822,0.485001 -1.247313,0.79505 -1.93886,1.03855 -0.58873,0.207298 -1.216286,0.351987 -1.840407,0.345075 -0.744416,-0.0082 -1.581121,-0.02539 -2.18548,-0.460102 -0.641783,-0.461631 -0.809417,-1.35834 -1.201375,-2.044895 -0.53135,-0.930713 -0.628202,-2.280937 -1.559233,-2.81173 -1.051495,-0.599471 -2.658392,-0.61997 -3.629687,0.102245 -0.943234,0.701351 -0.925188,2.20573 -1.109987,3.346966 -0.171314,1.057955 -0.829065,2.405229 -1.880673,2.813279 -1.247251,0.483965 -2.599481,0.89161 -3.949204,1.111913 -1.540728,0.25148 -3.139557,0.496908 -4.677696,0.230049 -1.085862,-0.188391 -2.127559,-0.669248 -3.054562,-1.265279 -0.431023,-0.277133 -0.881906,-0.596744 -1.124692,-1.048008 -0.487131,-0.905423 0.129938,-2.238042 -0.511224,-3.041783 -0.195371,-0.244911 -0.561722,-0.41854 -0.869079,-0.357855 -2.399783,0.473814 -3.800484,3.167348 -5.214483,5.16336 -0.414194,0.58468 -0.87317,1.227671 -0.920203,1.94265 -0.0658,1.000208 0.117836,2.262061 0.920203,2.862853 0.53216,0.398468 1.561224,-0.45373 1.993772,0.05112 0.693113,0.808971 0.409908,2.48822 -0.408979,3.169589 z"
       id="path42875"
       sodipodi:nodetypes="aaaassaasaaasaaaaaaaaaaaaassaaaaaaaaaaaa" />
    <path
       id="rect43610"
       style="display:inline;opacity:1;fill:#cef2d8;stroke:#000000;stroke-width:0.396875;stroke-dasharray:none;fill-opacity:1"
       d="m 71.112653,18.960453 c 2.715593,-1.670158 10.484649,-1.916493 11.50007,-0.584054 1.668545,2.189471 0.570383,7.531307 -0.66716,9.152956 -1.345345,1.762911 -7.849187,2.298036 -10.49933,0.713144 -1.560481,-0.93323 -2.220117,-8.12178 -0.33358,-9.282046 z m 18.378669,-1.440056 c 2.556125,-1.418693 5.656111,-0.193784 6.873495,1.333035 1.67744,2.103814 0.509675,6.637007 -0.66716,7.772652 -1.354396,1.306992 -4.194718,-0.07719 -5.335971,-1.152822 -1.632795,-1.538911 -3.369735,-6.565671 -0.870364,-7.952865 z"
       sodipodi:nodetypes="ssssssssss" />
    <circle
       style="display:inline;opacity:1;fill:#000000;fill-opacity:1;stroke:#000000;stroke-width:0.233751;stroke-dasharray:none;stroke-opacity:1"
       id="path55150-3"
       cx="90.40358"
       cy="20.595045"
       r="0.29807398" />
    <circle
       style="display:inline;fill:#000000;fill-opacity:1;stroke:#000000;stroke-width:0.233751;stroke-dasharray:none;stroke-opacity:1"
       id="path55150-3-0"
       cx="82.421227"
       cy="22.403589"
       r="0.29807398" />
  </g>
  <g
     inkscape:groupmode="layer"
     id="layer17"
     inkscape:label="Nose"
     style="display:inline"
     transform="translate(-41.13753,-3.3257029)">
    <path
       style="opacity:1;fill:#000000;fill-opacity:1;stroke:#000000;stroke-width:0.79375;stroke-dasharray:none;stroke-opacity:1"
       d="m 82.698998,28.921158 c 0,0 1.825782,-4.514216 3.578566,-6.083561 0.869057,-0.778105 2.026998,-1.450616 3.193333,-1.431428 0.815359,0.01341 1.749976,0.392374 2.198262,1.073571 0.59084,0.897816 0.322689,2.159344 0.153368,3.220709 -0.180986,1.134487 -1.226939,3.220709 -1.226939,3.220709"
       id="path54254"
       sodipodi:nodetypes="caaaac" />
    <path
       style="opacity:1;fill:#000000;fill-opacity:1;stroke:#000000;stroke-width:0.79375;stroke-dasharray:none;stroke-opacity:1"
       d="m 85.025067,28.409936 c 0,0 0.239712,-1.386842 0.715713,-1.278062 0.407769,0.09319 0.07668,1.2525 0.07668,1.2525"
       id="path55040"
       sodipodi:nodetypes="csc" />
  </g>
</svg>
